<?xml version="1.0" standalone="no"?>
<!DOCTYPE svg PUBLIC "-//W3C//DTD SVG 20010904//EN"
 "http://www.w3.org/TR/2001/REC-SVG-20010904/DTD/svg10.dtd">
<svg version="1.0" xmlns="http://www.w3.org/2000/svg"
 width="1024.000000pt" height="1384.000000pt" viewBox="0 0 1024.000000 1384.000000"
 preserveAspectRatio="xMidYMid meet">

<g transform="translate(0.000000,1384.000000) scale(0.100000,-0.100000)"
fill="#000000" stroke="none">
<path d="M4978 11586 c-1 -2 -167 -6 -368 -10 -509 -10 -781 -28 -940 -62 -81
-18 -313 -95 -364 -121 -52 -27 -156 -134 -191 -198 -19 -33 -47 -97 -64 -142
-45 -123 -78 -181 -130 -232 -34 -33 -53 -62 -66 -101 -9 -30 -32 -97 -51
-147 -48 -131 -62 -198 -109 -528 l-6 -40 28 26 c15 14 47 34 71 44 23 10 42
22 42 27 0 12 -14 10 -28 -4 -9 -9 -12 -9 -12 0 0 7 10 16 23 21 26 10 79 3
72 -9 -3 -5 -2 -15 1 -24 8 -22 26 -9 19 13 -3 10 1 24 10 31 20 17 20 61 0
54 -14 -6 -19 5 -16 34 1 6 -3 12 -9 12 -5 0 -10 10 -10 21 0 16 3 19 13 12
19 -16 67 -25 67 -13 0 5 -4 10 -9 10 -5 0 -11 9 -14 20 -3 11 -12 20 -21 20
-9 0 -16 5 -16 11 0 7 16 9 50 4 34 -5 50 -3 50 4 0 6 -4 11 -10 11 -5 0 -10
9 -10 20 0 11 -6 29 -12 40 -11 17 -10 22 1 30 11 6 12 12 3 22 -14 17 -14
139 -1 158 8 11 9 8 6 -13 -6 -38 10 -117 28 -137 8 -9 15 -26 15 -38 0 -12 5
-22 11 -22 7 0 9 -10 5 -27 -6 -27 -6 -27 9 -9 8 11 15 23 15 28 0 4 5 8 11 8
6 0 9 -9 6 -20 -3 -11 0 -20 5 -20 6 0 5 -6 -2 -15 -7 -9 -10 -18 -7 -21 8 -8
44 30 52 55 3 12 11 19 16 15 6 -3 6 -11 2 -17 -5 -7 -10 -25 -12 -42 -1 -16
-11 -39 -21 -50 -10 -11 -26 -38 -36 -60 -10 -22 -21 -48 -26 -57 -4 -10 -3
-18 2 -18 6 0 10 5 10 10 0 6 8 20 18 30 22 24 112 71 112 59 0 -5 11 -9 24
-9 13 0 29 -7 36 -15 7 -8 19 -15 26 -15 8 0 14 -4 14 -10 0 -12 -2 -12 -36 1
-33 12 -76 -5 -67 -26 3 -8 -7 -16 -25 -20 -30 -6 -50 -43 -37 -65 3 -6 -1 -7
-9 -4 -10 4 -21 -7 -35 -35 -12 -22 -21 -47 -21 -55 0 -8 -14 -26 -31 -41 -17
-14 -28 -29 -24 -33 4 -4 15 4 26 17 21 25 80 61 101 61 7 0 -4 -10 -24 -22
-22 -13 -38 -30 -38 -40 0 -10 -7 -18 -15 -18 -40 0 -84 -180 -59 -240 7 -16
18 -30 24 -30 19 0 10 -18 -13 -24 -43 -10 -63 3 -81 55 -10 27 -19 69 -20 93
0 24 -4 42 -7 40 -9 -5 -22 -65 -19 -92 1 -13 -3 -29 -10 -36 -8 -11 -6 -18 7
-32 13 -12 14 -19 5 -22 -6 -2 -12 -10 -12 -18 0 -9 -4 -12 -10 -9 -5 3 -10
19 -10 35 0 16 -4 31 -8 34 -5 3 -7 20 -6 38 l3 33 -8 -34 c-5 -19 -8 -50 -6
-69 2 -24 0 -31 -6 -21 -6 10 -9 10 -9 2 0 -29 -45 -113 -63 -119 -10 -3 -16
-12 -13 -20 3 -7 1 -16 -4 -19 -6 -4 -10 1 -10 9 0 10 -6 13 -15 10 -23 -9
-18 10 15 51 16 21 35 56 41 78 12 45 14 150 3 193 l-7 27 -18 -24 c-15 -19
-19 -21 -19 -7 0 9 5 20 10 23 16 10 11 25 -6 18 -12 -4 -15 -2 -12 8 6 19 49
24 59 8 5 -8 7 0 6 21 -1 19 2 50 7 69 6 26 5 32 -5 26 -9 -6 -11 -2 -7 13 7
26 -7 29 -21 5 -10 -17 -10 -17 -11 1 0 18 -3 17 -29 -8 -25 -24 -29 -35 -34
-114 -4 -48 -14 -107 -22 -131 -9 -24 -22 -87 -29 -140 -15 -103 -183 -692
-236 -827 -18 -44 -43 -94 -57 -112 -26 -34 -75 -161 -119 -305 -13 -43 -33
-91 -45 -108 -12 -17 -36 -65 -53 -107 -18 -42 -60 -123 -94 -180 -35 -56 -67
-113 -72 -127 -20 -53 -109 -183 -155 -227 -28 -26 -82 -71 -122 -100 -40 -28
-71 -53 -69 -55 1 -2 25 1 52 6 33 6 54 17 64 32 36 56 63 81 71 67 5 -8 -1
-22 -16 -38 -14 -15 -25 -33 -25 -42 0 -10 -13 -18 -42 -22 -65 -10 -150 -39
-137 -46 6 -5 -3 -16 -25 -29 -39 -25 -160 -151 -208 -218 -32 -44 -52 -57
-41 -25 4 13 2 13 -9 -3 -17 -25 -54 -132 -72 -209 -12 -50 -12 -58 1 -63 12
-5 12 -7 1 -14 -9 -6 -14 -37 -17 -94 -2 -69 -6 -85 -17 -81 -8 3 -14 1 -14
-4 0 -6 6 -10 13 -10 37 0 107 -139 107 -212 0 -37 12 -41 32 -11 l18 28 1
-35 c1 -32 2 -33 9 -10 4 14 5 35 3 48 -8 36 3 26 41 -37 40 -66 143 -167 208
-205 62 -36 153 -63 230 -69 56 -4 68 -2 71 12 3 9 5 1 6 -18 1 -31 2 -33 19
-19 9 8 31 15 47 16 17 1 32 7 33 12 2 6 10 10 18 10 9 0 12 4 9 10 -3 6 1 7
10 4 12 -5 13 -9 4 -20 -7 -8 -7 -14 -1 -14 5 0 15 6 21 14 6 7 24 16 39 19
32 7 167 95 202 132 l23 25 -27 0 c-15 0 -35 4 -45 10 -14 7 -29 2 -62 -18
-63 -40 -143 -72 -177 -72 -16 0 -46 -7 -65 -15 -57 -24 -179 -20 -226 7 -34
19 -37 25 -29 44 7 14 22 24 43 27 19 3 63 19 99 36 76 35 208 159 241 226 10
22 27 52 37 66 9 14 15 29 11 33 -3 3 3 6 15 6 11 0 24 -4 27 -10 9 -15 89
-12 111 5 10 8 32 15 47 15 25 0 27 -3 22 -22 -4 -13 -20 -37 -36 -53 -16 -17
-29 -36 -29 -43 0 -6 -12 -15 -26 -18 -15 -4 -21 -9 -15 -14 8 -5 7 -15 -4
-36 -15 -29 -14 -29 15 -37 17 -4 30 -12 30 -17 0 -5 7 -7 15 -4 9 4 15 0 15
-9 0 -25 16 -28 40 -7 13 11 28 20 34 20 6 0 3 -7 -7 -14 -9 -7 -17 -16 -17
-20 0 -11 28 -6 33 7 4 9 8 8 17 -3 9 -12 10 -10 6 13 -5 19 -2 27 8 27 7 0
17 12 21 27 6 24 8 26 18 12 7 -9 18 -14 25 -12 6 3 12 0 12 -6 0 -6 6 -8 14
-5 20 8 53 -55 36 -66 -8 -5 -10 -18 -6 -33 4 -19 0 -31 -16 -47 -12 -11 -16
-20 -10 -20 7 0 12 -7 12 -15 0 -22 15 -18 28 8 50 95 71 123 112 144 24 13
49 22 54 19 6 -2 -2 -10 -19 -17 l-30 -13 28 -4 c18 -2 37 3 50 15 19 17 20
17 14 1 -8 -23 1 -23 26 -1 18 17 19 17 32 -1 10 -13 11 -25 4 -43 -18 -48
-11 -57 24 -27 28 23 32 25 35 10 3 -14 12 -8 40 25 21 23 40 50 44 60 8 22
56 54 65 45 4 -4 1 -17 -6 -29 -13 -20 -13 -21 2 -8 10 7 17 22 17 31 0 32 12
50 31 50 12 0 19 7 19 18 0 11 14 25 34 34 29 14 37 15 52 3 23 -16 9 -36 -39
-56 -49 -21 -101 -89 -67 -89 6 0 10 3 10 8 0 4 11 20 24 37 23 29 29 31 119
34 30 1 37 5 37 21 0 35 36 23 67 -22 15 -22 37 -46 48 -52 11 -6 36 -21 56
-33 19 -13 42 -23 50 -23 19 0 49 -31 49 -51 0 -10 12 -14 41 -14 34 0 43 4
55 27 12 23 20 27 52 26 20 -1 31 -3 24 -6 -6 -2 -12 -10 -12 -18 0 -8 -4 -14
-8 -14 -5 0 -17 -6 -28 -14 -19 -15 -19 -15 1 -30 22 -17 55 -21 55 -7 0 5 18
24 41 41 39 31 40 32 46 12 5 -21 6 -21 62 8 45 22 74 29 139 33 79 4 84 3
102 -21 17 -20 18 -28 8 -40 -11 -13 -8 -15 23 -9 22 3 41 1 48 -6 7 -7 17
-12 24 -12 6 0 14 -11 17 -24 3 -13 13 -29 23 -35 15 -9 20 -7 29 9 29 51 108
97 108 63 0 -9 3 -9 11 -1 12 12 78 6 93 -8 16 -15 25 -10 41 21 17 32 40 32
51 -2 4 -13 11 -17 22 -13 10 4 24 7 32 6 8 -1 31 -2 50 -4 29 -2 36 -6 38
-27 5 -29 39 -56 66 -51 10 1 22 -3 26 -9 6 -9 15 -8 39 6 30 18 32 18 61 1
30 -18 30 -18 41 7 10 21 17 24 51 20 56 -5 61 -11 55 -63 -2 -25 -3 -52 0
-58 6 -17 28 -16 43 1 6 8 33 22 60 31 27 9 51 22 53 28 2 7 -16 36 -40 65
-45 56 -50 67 -33 77 21 13 126 37 156 36 21 -1 37 6 52 24 12 14 26 25 32 25
13 0 13 -33 1 -45 -6 -6 -14 -28 -19 -51 -8 -35 -6 -44 14 -69 17 -22 26 -26
36 -18 10 9 19 7 38 -7 13 -10 30 -16 37 -13 7 3 13 0 13 -7 0 -6 5 -8 10 -5
6 4 4 12 -5 21 -17 17 -20 40 -6 48 5 3 14 -1 21 -9 15 -18 61 -20 78 -3 7 7
12 24 12 40 0 33 24 48 79 48 31 0 41 -4 41 -16 0 -11 6 -14 20 -9 18 6 25 -2
48 -54 15 -34 32 -61 40 -61 7 0 27 -10 46 -22 30 -20 33 -26 29 -58 -4 -25 0
-40 11 -49 15 -13 16 -11 6 14 -6 15 -9 30 -6 32 2 3 26 -5 52 -17 45 -19 50
-20 61 -4 8 11 20 14 37 10 14 -3 37 -1 51 6 23 10 28 10 37 -5 5 -10 14 -14
20 -10 7 3 28 7 47 7 34 1 36 2 33 34 -2 35 0 36 57 14 9 -3 12 -1 8 6 -4 6
-21 13 -37 17 -20 4 -32 14 -36 30 -3 13 -12 29 -20 36 -8 6 -14 15 -14 20 0
17 28 9 57 -15 52 -43 74 -42 108 6 16 24 30 46 30 49 0 3 8 13 18 23 9 10 17
24 17 32 0 8 4 13 9 10 5 -3 7 -16 3 -29 -5 -20 -4 -21 11 -8 9 7 17 10 17 6
0 -4 6 -3 13 3 6 5 25 10 40 10 15 0 34 7 41 17 15 21 65 23 76 4 5 -7 7 -16
4 -20 -2 -4 3 -9 11 -13 8 -3 15 -15 15 -27 0 -11 25 -53 55 -92 30 -39 55
-76 55 -83 0 -8 10 -12 28 -10 15 2 33 4 41 5 7 1 11 7 7 16 -7 18 -7 18 33 4
25 -9 31 -16 28 -30 -3 -11 -2 -21 2 -24 11 -6 81 14 81 23 0 4 -16 22 -35 41
-35 33 -44 51 -25 51 6 0 10 8 8 17 -2 11 11 24 37 37 22 12 61 42 87 68 l48
47 15 -29 c8 -16 15 -36 15 -43 0 -21 65 -5 95 23 23 21 25 21 77 7 29 -8 72
-18 95 -22 22 -3 49 -16 60 -27 19 -22 138 -84 215 -113 43 -16 51 -16 93 -3
43 15 45 15 40 -3 -5 -14 5 -26 41 -49 71 -45 154 -53 154 -14 0 17 1 17 34 4
17 -6 26 -6 26 0 0 6 9 10 20 10 22 0 26 10 10 26 -10 10 39 10 76 -1 15 -5
23 0 32 19 10 23 13 24 47 13 28 -8 41 -8 56 1 23 15 66 16 74 2 10 -16 28
-11 21 6 -4 9 -1 23 5 30 9 11 8 14 -4 14 -18 0 -29 24 -20 45 3 9 -2 24 -11
34 -16 17 -16 19 0 25 14 5 29 -3 92 -55 26 -22 85 -40 95 -30 6 6 18 6 33 1
22 -9 22 -7 18 36 -3 40 -2 44 18 44 11 0 36 -11 54 -25 18 -14 35 -21 39 -15
3 5 13 6 21 3 9 -3 19 -1 23 5 5 8 17 9 39 3 20 -6 34 -6 38 0 3 6 27 9 53 7
33 -2 45 1 43 10 -1 8 9 11 29 10 18 -2 34 2 36 8 5 16 -86 27 -103 13 -11 -9
-22 -8 -44 1 -33 14 -40 37 -12 47 54 19 71 70 25 75 -28 3 -30 7 -20 63 3 14
16 22 46 28 l43 9 -20 21 c-11 12 -17 28 -15 35 3 8 -4 16 -16 19 -29 7 -16
23 20 23 22 0 32 -6 39 -25 11 -30 24 -34 15 -4 -7 22 -9 22 51 5 11 -4 38 1
58 9 28 12 41 13 51 5 8 -6 24 -10 37 -8 21 3 20 5 -14 25 -23 14 -38 30 -38
42 0 14 -5 18 -19 14 -11 -3 -21 2 -24 11 -8 21 2 46 18 46 7 0 15 7 19 15 7
19 36 19 64 -1 21 -15 22 -14 23 15 1 17 2 34 3 39 2 17 -35 55 -57 57 -29 3
-107 51 -107 65 0 17 27 22 50 10 29 -15 39 -4 14 15 -19 15 -19 16 1 14 11
-1 30 2 43 7 22 9 22 10 -15 46 -21 20 -47 38 -57 40 -10 1 -22 10 -26 18 -4
8 -17 36 -30 62 -15 32 -21 60 -18 87 l4 41 -24 -30 c-26 -33 -42 -31 -110 15
-40 27 -98 33 -135 14 -12 -6 -36 -25 -54 -42 l-32 -30 -28 34 c-65 78 -122
120 -163 121 -18 1 -34 7 -37 15 -3 8 -12 12 -19 9 -8 -3 -11 0 -7 10 5 14 22
19 57 15 16 -1 17 1 5 16 -8 10 -40 44 -71 76 -32 32 -58 64 -58 70 0 7 -11
25 -25 40 -45 48 -163 314 -210 472 -15 50 -33 95 -41 101 -8 7 -14 16 -13 20
1 5 0 16 -3 24 -3 8 -11 47 -18 85 -6 39 -16 85 -22 102 -5 18 -11 46 -13 62
-2 17 -11 44 -20 61 -34 65 -145 333 -163 390 -6 19 -13 118 -16 220 -10 327
-44 571 -126 900 -15 63 -37 162 -49 220 -45 228 -141 469 -244 609 -67 93
-265 287 -347 341 -116 76 -261 120 -401 120 -31 0 -81 5 -110 10 -63 13 -145
23 -664 84 -223 26 -522 48 -717 51 -102 2 -188 2 -190 1z m1492 -315 c0 -19
-12 -41 -20 -36 -10 6 -1 45 11 45 5 0 9 -4 9 -9z m100 -41 c0 -5 -8 -10 -17
-10 -15 0 -16 2 -3 10 19 12 20 12 20 0z m-70 -25 c0 -1 -6 -20 -14 -42 -25
-71 2 -178 90 -369 13 -28 24 -56 24 -61 0 -6 7 -13 15 -17 8 -3 15 -12 15
-21 0 -8 5 -15 10 -15 6 0 10 -6 10 -12 0 -16 56 -87 125 -158 29 -31 80 -98
114 -150 37 -58 61 -87 62 -75 0 11 21 54 47 95 51 80 102 120 157 120 33 0
97 -30 103 -48 2 -7 -9 -5 -27 5 -29 17 -31 17 -74 -4 -39 -19 -53 -36 -103
-119 -62 -107 -70 -147 -39 -220 8 -19 11 -34 8 -34 -4 0 4 -11 16 -24 19 -20
21 -28 11 -45 -6 -12 -8 -26 -4 -32 4 -6 0 -16 -7 -21 -11 -7 -11 -11 -1 -15
6 -2 12 -15 12 -28 0 -14 9 -29 20 -35 14 -7 19 -20 18 -44 -1 -25 12 -53 48
-107 27 -41 55 -85 62 -98 15 -29 38 -171 36 -221 -1 -19 -2 -61 -3 -92 -1
-42 -5 -58 -15 -58 -9 0 -12 -12 -10 -42 2 -30 -2 -46 -14 -56 -9 -7 -11 -11
-4 -7 15 8 17 -41 2 -50 -5 -3 -10 -16 -10 -27 0 -12 -12 -50 -26 -85 -19 -49
-23 -68 -14 -78 6 -8 10 -26 8 -42 -2 -23 -8 -28 -30 -28 -45 0 -47 -4 -75
-175 -5 -33 -5 -34 10 -15 15 19 16 17 19 -40 1 -33 2 -74 2 -92 1 -49 14 -50
25 -2 6 24 16 58 22 74 6 17 25 75 43 130 18 55 47 128 64 162 25 49 31 70 26
98 -5 31 -2 37 15 42 15 4 23 19 32 59 15 68 32 82 26 23 -5 -47 -65 -209 -77
-209 -4 0 -10 -8 -13 -17 -2 -10 -8 -27 -13 -38 -15 -38 24 3 60 64 29 48 44
95 51 161 1 8 9 30 18 47 14 27 15 36 5 52 -9 15 -9 25 0 46 16 35 15 48 -3
41 -16 -6 -18 5 -9 41 4 13 10 20 16 17 5 -3 15 -1 23 6 7 6 16 7 19 2 3 -5 3
-83 0 -173 -6 -178 -7 -209 -2 -254 2 -23 -1 -30 -15 -30 -9 0 -26 -15 -37
-33 -11 -17 -18 -32 -15 -32 2 0 -5 -21 -16 -46 -13 -28 -21 -67 -21 -102 0
-56 -14 -127 -29 -148 -5 -5 -11 -28 -13 -50 -3 -21 -17 -68 -31 -103 -22 -53
-25 -73 -20 -110 6 -40 8 -43 16 -23 5 12 15 25 24 28 8 3 13 10 10 14 -5 9
19 49 71 117 36 45 114 177 114 191 0 5 7 23 15 38 10 20 15 59 15 121 0 99 5
123 25 123 7 0 15 7 19 15 3 9 0 15 -9 15 -12 0 -12 5 -4 28 12 31 1 246 -16
289 -2 7 0 15 5 18 6 4 10 1 10 -5 0 -6 5 -8 11 -4 7 4 2 15 -16 31 -16 15
-24 31 -21 40 4 9 1 23 -6 31 -11 13 -10 15 5 9 15 -6 16 -4 6 15 -9 18 -9 20
4 15 9 -3 18 -1 21 6 3 8 10 6 20 -7 11 -13 16 -42 17 -85 1 -95 8 -170 19
-216 22 -95 21 -132 -5 -231 -30 -118 -31 -158 -5 -224 11 -28 20 -66 20 -84
0 -35 -96 -232 -132 -272 -11 -12 -18 -28 -17 -35 3 -18 -17 -65 -31 -74 -7
-4 -9 2 -4 19 4 16 2 26 -4 26 -6 0 -12 -10 -14 -22 -3 -20 -8 -23 -48 -21
-73 3 -94 6 -108 16 -8 7 -16 7 -23 0 -12 -12 -56 -5 -67 11 -15 24 -34 84
-48 149 -8 38 -16 73 -19 77 -3 5 -8 51 -11 102 -3 51 -8 95 -10 97 -14 15
-19 -26 -18 -137 1 -149 9 -223 25 -233 6 -4 9 -11 5 -17 -3 -5 1 -12 9 -16 8
-3 15 -13 15 -22 0 -13 -3 -14 -14 -5 -10 8 -16 9 -21 2 -3 -6 -26 -9 -53 -6
-34 3 -51 11 -62 27 -8 12 -29 36 -45 54 -17 17 -39 48 -49 70 -29 59 -36 74
-57 111 -10 18 -19 40 -19 48 0 8 -4 15 -10 15 -14 0 -12 -17 4 -48 8 -15 22
-45 31 -67 16 -38 35 -81 43 -97 2 -5 -2 -8 -7 -8 -6 0 -11 6 -11 14 0 7 -7
19 -15 26 -8 7 -15 23 -15 36 0 13 -4 24 -10 24 -5 0 -10 6 -10 14 0 7 -6 19
-14 26 -8 6 -13 17 -10 25 3 7 1 16 -5 20 -6 3 -11 12 -11 19 0 8 -8 31 -17
52 -10 22 -18 44 -18 49 -1 6 -9 27 -18 49 -9 21 -17 44 -17 50 0 7 -4 16 -9
22 -5 5 -14 36 -20 68 -6 33 -12 60 -13 62 -2 1 -15 5 -31 9 -22 6 -27 4 -27
-12 0 -10 4 -23 9 -29 15 -15 32 -124 22 -142 -14 -26 -77 -56 -98 -47 -15 6
-12 9 14 17 47 12 64 51 51 111 -7 36 -17 51 -42 67 -34 21 -91 27 -100 11 -3
-5 10 -25 30 -45 19 -19 34 -43 32 -53 -5 -26 -21 -21 -29 10 -14 52 -62 68
-116 39 -29 -16 -69 -6 -92 24 -21 27 -51 32 -51 9 0 -8 -5 -15 -10 -15 -6 0
-19 -8 -30 -18 -10 -9 -40 -23 -67 -31 -26 -8 -52 -17 -58 -22 -9 -6 -65 -13
-90 -10 -5 1 -3 6 5 11 11 8 8 9 -12 4 -16 -3 -28 -2 -28 3 0 5 45 19 100 32
61 14 100 28 100 36 0 7 9 15 19 18 14 3 18 11 15 24 -6 22 20 50 31 33 3 -5
11 -10 17 -10 10 0 -15 47 -36 65 -6 6 -24 28 -40 50 -17 22 -35 43 -40 47
-50 32 -51 33 -29 64 13 18 22 52 26 91 5 65 -9 97 -19 44 -4 -17 -10 -28 -15
-25 -5 3 -6 -2 -3 -10 8 -20 -106 -211 -166 -279 -37 -41 -61 -58 -96 -68 -48
-14 -80 -39 -51 -39 9 0 18 -4 22 -10 5 -8 -8 -8 -107 -1 -10 0 -26 9 -36 19
-10 9 -50 28 -90 41 -40 13 -72 28 -72 33 0 4 -8 8 -19 8 -10 0 -40 9 -66 21
l-47 21 -16 -23 c-9 -13 -28 -36 -42 -52 -25 -29 -26 -29 -26 -6 0 13 13 38
28 54 38 42 148 176 148 181 0 9 -10 3 -32 -18 -38 -37 -178 -216 -178 -227 0
-6 -5 -11 -11 -11 -6 0 -8 9 -3 22 6 20 5 21 -10 9 -14 -12 -16 -9 -16 38 0
29 -4 51 -11 51 -6 0 -8 -8 -4 -19 3 -12 -3 -36 -15 -58 -16 -29 -20 -32 -16
-13 2 14 7 34 11 45 11 36 -15 56 -75 58 -55 2 -55 2 -53 -27 1 -16 -4 -41
-12 -56 -16 -31 -45 -58 -45 -42 0 6 4 13 9 16 10 7 8 82 -2 93 -4 3 -13 1
-19 -5 -7 -7 -19 -12 -28 -12 -19 0 -56 -37 -47 -46 3 -3 23 -12 44 -19 22 -8
30 -14 18 -14 -11 -1 -33 6 -49 14 -16 9 -37 13 -47 10 -29 -9 -31 11 -7 62
18 37 28 47 43 45 46 -7 58 -6 62 4 4 12 -55 41 -72 35 -5 -1 -28 -5 -49 -7
-45 -4 -76 -29 -117 -93 -16 -25 -29 -42 -29 -38 0 18 33 84 52 104 30 32 17
29 -44 -11 -30 -19 -64 -52 -78 -75 -14 -22 -29 -41 -33 -41 -5 0 -5 5 -2 10
13 21 -7 9 -35 -22 -21 -23 -28 -27 -23 -13 3 11 11 23 17 27 8 6 8 8 0 8 -6
0 -19 -9 -29 -20 -22 -24 -55 -29 -35 -5 9 11 9 15 1 15 -6 0 -14 -7 -17 -15
-9 -22 -35 -19 -28 3 3 9 -6 -1 -20 -23 -14 -22 -26 -46 -26 -52 0 -7 -4 -13
-10 -13 -15 0 -12 26 5 43 8 8 11 17 8 20 -3 4 9 23 26 43 23 26 29 40 22 47
-8 8 -18 4 -34 -11 -13 -12 -28 -22 -35 -22 -14 0 -67 -69 -58 -77 3 -3 1 -12
-5 -20 -23 -27 12 -13 36 15 28 32 31 20 6 -23 -12 -21 -24 -29 -39 -27 -13 2
-27 -6 -37 -22 -17 -25 -103 -76 -129 -76 -8 0 -24 -12 -35 -26 -23 -29 -50
-27 -58 6 -4 14 -14 20 -34 20 -39 0 -76 18 -133 64 -41 34 -57 41 -95 42 -41
1 -50 -3 -78 -34 -17 -20 -37 -56 -43 -81 -8 -30 -14 -41 -19 -32 -11 17 -4
42 26 98 30 57 29 69 -4 43 -60 -47 -96 -146 -74 -204 9 -21 16 -27 31 -23 23
6 28 -11 6 -19 -16 -6 -56 12 -68 30 -16 23 -8 98 16 144 28 56 113 137 145
139 13 1 32 10 43 19 18 17 19 17 24 -3 7 -25 54 -47 105 -48 39 -1 69 -19 69
-41 0 -25 41 -37 114 -32 67 5 136 31 136 51 0 5 4 6 9 2 12 -7 24 12 16 25
-5 8 -11 7 -21 -1 -8 -6 -18 -9 -22 -5 -4 4 2 14 12 22 14 10 22 11 27 3 4 -8
10 -5 17 7 19 33 26 6 9 -36 -8 -22 -11 -38 -6 -34 11 7 42 64 34 64 -3 0 2
11 11 25 9 14 14 28 11 31 -3 3 -11 -4 -17 -16 -8 -14 -15 -19 -19 -12 -12 20
-78 3 -86 -22 -4 -11 -7 -25 -6 -29 1 -5 -13 -6 -31 -2 -69 15 -126 48 -182
104 l-58 59 -4 143 c-3 145 -10 173 -38 149 -12 -9 -15 -26 -10 -74 3 -33 9
-66 14 -71 10 -12 6 -19 -57 -124 -67 -108 -183 -199 -249 -194 -6 0 -11 -16
-11 -36 -1 -39 -83 -225 -91 -203 -2 7 6 29 18 48 28 49 18 56 -13 7 -28 -45
-76 -129 -91 -160 -14 -28 -22 -29 -29 -2 -4 14 14 57 54 129 32 60 59 116 59
125 0 15 -35 -9 -115 -77 -5 -5 -10 -25 -11 -46 -1 -20 -4 -58 -6 -84 -3 -27
0 -48 5 -48 5 0 7 -7 3 -15 -3 -8 -1 -15 5 -15 7 0 9 -10 5 -25 -4 -14 -2 -25
4 -25 5 0 10 -5 10 -11 0 -6 -7 -8 -15 -5 -9 3 -18 -1 -21 -9 -4 -8 -11 -15
-18 -15 -6 0 -19 -13 -28 -28 -15 -26 -23 -29 -77 -30 -34 -1 -61 2 -61 6 0 4
10 23 22 42 22 36 40 91 39 123 0 9 4 17 10 17 5 0 9 5 9 11 0 5 -5 7 -12 3
-7 -5 -9 -2 -6 7 3 8 2 23 -2 34 -7 18 -9 17 -20 -10 -6 -16 -13 -46 -15 -65
-5 -58 -17 -101 -31 -107 -6 -2 -15 -15 -18 -28 -9 -35 -32 -42 -119 -37 l-77
4 4 68 c2 37 6 72 9 77 3 5 9 42 12 83 3 40 13 86 21 101 20 39 18 88 -6 136
-34 71 -36 114 -7 176 14 31 23 58 20 61 -3 2 4 2 15 -1 16 -4 20 -15 24 -62
3 -43 11 -66 32 -94 30 -40 35 -65 37 -194 0 -56 -5 -83 -21 -116 -15 -29 -20
-57 -18 -87 4 -63 19 -52 24 17 3 39 11 68 26 88 25 33 39 135 19 135 -9 0
-10 17 -5 58 6 61 -11 117 -42 135 -17 10 -19 109 -4 138 6 10 24 26 40 34 34
18 38 9 20 -41 -9 -24 -6 -35 25 -85 19 -31 35 -62 35 -69 0 -7 7 -10 15 -6
24 9 32 -22 27 -98 -5 -67 -4 -70 13 -56 30 25 15 110 -38 215 -24 50 -47 99
-51 110 -5 18 5 49 15 45 2 -1 17 4 33 10 16 6 31 8 34 5 3 -2 11 0 18 6 9 7
14 4 20 -13 4 -13 8 -26 9 -30 0 -3 4 -10 9 -15 5 -5 6 6 3 25 -4 18 -2 32 3
32 6 0 10 -8 10 -18 0 -10 4 -22 9 -27 5 -6 16 -34 26 -63 15 -48 17 -122 3
-192 -5 -25 15 -24 35 2 16 21 18 44 18 159 0 75 -5 147 -11 164 -14 36 -4
125 15 125 13 0 85 -54 97 -73 5 -9 18 41 20 78 2 29 -17 75 -32 80 -28 9 -83
63 -75 74 3 6 1 11 -4 11 -6 0 -11 7 -11 15 0 8 5 15 10 15 6 0 10 -4 10 -8 0
-8 60 -46 73 -47 5 0 15 -9 23 -19 13 -19 14 -19 14 6 0 14 -3 40 -6 57 -6 28
-10 32 -30 27 -13 -4 -24 -4 -24 0 0 3 25 39 55 79 30 41 55 76 55 79 0 3 -15
12 -34 21 -19 9 -50 32 -70 52 -32 33 -35 40 -30 77 3 23 9 52 14 66 15 45 40
168 55 268 4 23 10 42 15 42 5 0 12 -19 16 -42 10 -54 9 -49 18 -78 5 -14 26
-42 47 -63 24 -24 39 -48 39 -63 0 -20 -8 -15 -57 39 -32 35 -64 72 -70 83
-11 17 -12 15 -8 -16 2 -19 6 -46 7 -60 6 -53 95 -190 124 -190 12 0 64 64
102 128 26 42 30 57 21 68 -6 7 -14 12 -18 9 -12 -7 -97 86 -125 136 -41 75
-79 339 -52 366 3 3 6 -7 7 -23 2 -142 23 -217 86 -310 60 -88 116 -163 123
-164 6 0 18 30 45 110 24 71 27 175 8 214 -21 40 -12 120 21 193 15 31 29 54
32 50 5 -5 2 -14 -25 -66 -16 -30 -17 -152 -1 -181 20 -37 15 -157 -10 -248
l-23 -83 34 -28 33 -28 22 66 c12 36 24 86 28 111 14 98 102 230 153 230 23 0
21 -4 -26 -57 -62 -70 -73 -105 -67 -225 2 -51 5 -103 5 -116 1 -13 5 -20 11
-17 14 9 88 -36 130 -78 31 -32 50 -39 50 -18 0 5 -10 19 -22 33 -59 64 -75
86 -92 121 -24 52 -14 101 29 144 52 52 116 43 138 -18 8 -23 -20 -60 -39 -52
-13 5 -13 7 1 23 33 36 8 64 -48 53 -36 -7 -57 -34 -61 -79 -2 -35 2 -44 53
-95 87 -87 92 -88 138 -31 21 26 52 62 70 81 41 46 71 106 83 171 12 61 17 70
30 50 13 -21 4 -130 -14 -174 -9 -21 -16 -45 -16 -53 0 -8 -25 -53 -55 -98
-30 -46 -55 -87 -55 -91 0 -19 41 -39 79 -38 46 1 57 -20 15 -30 -21 -6 -24
-9 -14 -21 7 -8 18 -15 24 -15 18 0 93 112 105 157 6 23 18 54 26 70 8 15 15
34 15 41 0 7 13 38 29 70 16 31 34 75 41 97 6 22 25 56 42 75 l30 35 -7 -32
c-3 -18 -15 -51 -26 -74 -22 -44 -19 -66 3 -29 7 13 41 65 75 118 59 89 67
112 40 112 -6 0 -26 14 -44 32 -44 42 -46 96 -6 128 27 21 64 24 63 5 0 -5
-10 -10 -21 -10 -13 0 -27 -11 -35 -28 -13 -23 -13 -30 1 -50 17 -26 84 -67
109 -67 10 0 31 7 47 16 17 8 38 14 47 12 13 -2 9 -10 -17 -34 -34 -32 -34
-32 -12 -44 19 -10 27 -8 57 15 47 36 54 25 15 -21 l-32 -36 48 -33 c46 -31
113 -104 113 -123 0 -5 7 -15 15 -22 13 -11 14 -8 9 21 -9 51 -35 131 -52 159
-9 14 -38 48 -65 76 -48 51 -51 78 -6 53 19 -10 25 -8 41 12 30 38 39 66 28
94 -11 28 -44 34 -54 10 -9 -23 -28 -18 -24 7 2 14 14 26 31 32 22 8 32 6 55
-11 23 -18 27 -27 24 -63 -3 -48 -27 -90 -50 -90 -10 0 5 -20 38 -53 68 -65
92 -96 127 -164 16 -29 32 -53 36 -53 5 0 0 16 -12 36 -24 39 -27 68 -8 62 16
-6 96 -111 91 -120 -2 -4 0 -9 5 -12 5 -3 26 -41 47 -84 20 -42 41 -78 46 -80
4 -2 8 -8 8 -14 0 -9 25 -38 33 -38 3 0 7 9 10 21 8 31 41 21 45 -14 4 -34 19
-34 56 -2 55 48 51 11 -9 -81 -32 -48 -62 -103 -67 -123 -13 -50 -17 -131 -7
-158 6 -17 4 -25 -11 -33 -23 -12 -27 -32 -5 -24 11 5 13 2 9 -10 -7 -17 11
-22 21 -6 4 6 11 8 16 4 5 -3 7 -10 4 -15 -4 -5 1 -9 9 -9 19 0 21 11 4 28 -8
8 -8 15 3 28 13 16 12 16 -7 6 -25 -13 -36 -6 -25 17 4 9 9 34 10 56 2 46 25
94 79 168 48 65 62 100 64 158 2 43 -2 52 -54 115 -31 38 -72 86 -90 106 -56
63 -108 189 -93 225 6 14 12 7 32 -37 14 -30 29 -56 34 -58 5 -2 9 -9 9 -15 0
-14 71 -83 150 -147 30 -25 57 -47 60 -50 3 -3 29 -23 58 -44 l53 -39 51 49
c53 52 98 131 98 175 0 54 -73 106 -101 73 -9 -11 -7 -20 4 -38 18 -27 12 -39
-13 -26 -38 20 -27 75 20 100 15 8 28 7 49 -4 86 -45 94 -139 21 -246 -10 -14
-32 -47 -49 -73 l-31 -48 22 -29 c26 -36 35 -37 43 -7 16 57 61 129 111 177
65 62 85 60 26 -4 -67 -72 -91 -135 -96 -248 -1 -27 1 -48 6 -48 4 0 8 -8 8
-17 0 -10 7 -26 14 -36 13 -16 16 -15 41 15 52 61 107 203 111 283 5 114 -88
331 -162 380 -13 8 -24 20 -24 25 0 15 91 -34 123 -66 40 -40 118 -167 148
-243 15 -36 30 -66 35 -68 5 -1 17 8 26 21 16 22 15 26 -22 102 -50 102 -62
154 -64 285 -2 91 -6 111 -24 137 -12 16 -22 34 -22 39 0 5 -13 22 -30 38 -30
28 -38 45 -22 45 9 0 37 -26 67 -61 29 -35 54 -125 54 -198 0 -35 5 -69 11
-75 5 -5 10 -18 10 -28 0 -10 5 -18 10 -18 6 0 10 -9 10 -19 0 -11 5 -23 10
-26 6 -3 10 -15 10 -26 0 -10 5 -19 10 -19 6 0 10 -6 10 -14 0 -35 50 -99 163
-208 67 -65 124 -118 127 -118 23 0 132 173 154 245 9 28 21 65 27 83 18 55
13 172 -10 237 -12 33 -22 62 -22 65 -1 3 -5 -13 -9 -35 -25 -139 -49 -196
-124 -295 -31 -41 -56 -82 -56 -91 0 -23 40 -61 57 -55 9 4 13 1 11 -6 -14
-40 -82 0 -93 54 -6 25 4 48 63 146 94 158 94 157 95 221 1 88 -20 157 -68
215 -23 28 -50 65 -60 81 -26 40 -122 135 -137 135 -6 0 0 -12 14 -27 30 -33
68 -101 68 -123 0 -9 4 -20 8 -26 12 -12 39 -106 52 -173 12 -64 5 -119 -22
-185 -11 -27 -22 -61 -25 -75 -7 -40 -124 -183 -138 -169 -5 4 5 21 21 37 42
43 99 171 123 274 17 73 18 97 10 145 -15 82 -62 202 -103 261 -20 28 -35 56
-34 62 2 6 -28 22 -67 35 -127 44 -194 83 -216 126 -15 29 -17 43 -9 58 15 27
22 25 14 -5 -9 -35 28 -81 84 -106 26 -12 61 -27 77 -35 32 -14 115 -35 115
-28 0 6 80 -35 113 -58 39 -28 44 -16 20 40 -42 96 -53 129 -67 212 -8 47 -15
115 -15 152 l-2 67 31 -1 c16 -1 30 -2 30 -3z m115 -37 c5 -18 3 -28 -4 -28
-6 0 -11 6 -11 13 0 6 -3 23 -6 37 -5 17 -4 22 4 15 6 -5 14 -22 17 -37z
m-2888 -296 c-3 -12 -5 -11 -6 6 0 12 -6 22 -12 22 -5 0 -7 5 -3 11 9 16 27
-16 21 -39z m-23 -74 c-9 -18 -38 -58 -63 -88 -26 -30 -60 -73 -76 -94 -16
-22 -30 -35 -32 -30 -8 25 33 90 96 152 37 37 71 76 75 86 3 10 9 16 12 13 3
-3 -2 -20 -12 -39z m-727 -160 c-3 -8 -6 -5 -6 6 -1 11 2 17 5 13 3 -3 4 -12
1 -19z m523 -228 c0 -5 -2 -10 -4 -10 -3 0 -8 5 -11 10 -3 6 -1 10 4 10 6 0
11 -4 11 -10z m-630 -160 c0 -5 -7 -10 -15 -10 -8 0 -15 5 -15 10 0 6 7 10 15
10 8 0 15 -4 15 -10z m300 6 c0 -2 -12 -12 -27 -21 l-28 -18 19 21 c17 20 36
29 36 18z m4107 -42 l28 -25 -36 6 c-45 7 -60 -8 -67 -70 -2 -25 -9 -45 -13
-45 -5 0 -6 18 -3 40 4 27 3 40 -5 40 -14 0 -15 -150 -1 -200 5 -19 21 -48 35
-65 27 -33 25 -14 -5 40 -19 34 -32 123 -19 131 5 3 9 -14 9 -36 0 -50 19 -91
65 -145 43 -48 88 -134 108 -201 17 -58 11 -76 -21 -67 -12 3 -19 10 -16 15 3
5 -2 16 -12 23 -17 13 -17 16 -4 25 8 5 12 10 8 10 -3 0 -13 3 -21 6 -11 4
-14 -2 -11 -23 4 -26 3 -26 -12 7 -9 19 -25 47 -35 61 -22 31 -23 39 -9 39 6
0 20 -16 32 -35 11 -20 23 -34 26 -31 2 3 -10 31 -29 62 -22 37 -44 60 -62 66
-23 8 -28 16 -25 37 1 14 0 31 -3 36 -19 32 -32 155 -24 216 14 101 65 136
122 83z m45 -69 c3 -14 1 -25 -3 -25 -5 0 -9 6 -9 14 0 8 -3 22 -7 32 -4 11
-3 15 4 11 6 -4 13 -18 15 -32z m-12 -214 c0 -4 14 -12 32 -17 17 -5 33 -15
36 -23 3 -10 -2 -11 -19 -6 -28 8 -80 55 -61 55 6 0 12 -4 12 -9z m-2952 -215
c4 -20 -15 -46 -33 -46 -21 0 -25 26 -8 49 17 25 36 23 41 -3z m3092 -6 c0 -5
-2 -10 -4 -10 -3 0 -8 5 -11 10 -3 6 -1 10 4 10 6 0 11 -4 11 -10z m-4383 -76
c-3 -3 -12 -4 -19 -1 -8 3 -5 6 6 6 11 1 17 -2 13 -5z m4258 -55 c8 -25 9 -43
2 -60 -9 -22 -11 -21 -18 21 -9 52 -10 112 -2 90 3 -8 11 -31 18 -51z m-4407
3 c2 -7 -2 -10 -12 -6 -9 3 -16 11 -16 16 0 13 23 5 28 -10z m4443 5 c-1 -12
-15 -9 -19 4 -3 6 1 10 8 8 6 -3 11 -8 11 -12z m-4506 -50 c-3 -23 -9 -67 -14
-97 -8 -48 -9 -43 -6 40 2 52 4 99 5 103 0 5 5 5 10 2 6 -4 8 -24 5 -48z m-35
14 c0 -6 -4 -13 -10 -16 -5 -3 -10 1 -10 9 0 9 5 16 10 16 6 0 10 -4 10 -9z
m30 -197 c0 -8 -4 -14 -10 -14 -5 0 -10 9 -10 21 0 11 5 17 10 14 6 -3 10 -13
10 -21z m4487 -154 c-3 -39 -17 -39 -17 0 0 17 4 30 10 30 5 0 8 -13 7 -30z
m-1333 -339 c-8 -20 -27 -47 -42 -60 -15 -12 -41 -35 -59 -51 -20 -17 -35 -24
-41 -18 -11 11 -56 -8 -48 -20 2 -4 -2 -13 -10 -19 -8 -8 -15 -9 -19 -3 -3 6
-2 10 3 10 5 0 12 9 15 20 5 21 -4 19 -36 -9 -17 -14 -17 -13 -7 13 l11 29
-25 -17 c-15 -9 -27 -12 -31 -6 -3 6 1 10 10 10 9 0 13 5 10 10 -3 6 2 11 12
11 10 1 37 3 61 4 24 2 51 10 61 19 10 9 22 16 27 16 15 0 68 52 89 87 25 42
39 22 19 -26z m-3168 12 c-10 -10 -19 5 -10 18 6 11 8 11 12 0 2 -7 1 -15 -2
-18z m-166 -23 c0 -5 -4 -10 -10 -10 -5 0 -10 5 -10 10 0 6 5 10 10 10 6 0 10
-4 10 -10z m2087 -42 c-3 -8 -6 -5 -6 6 -1 11 2 17 5 13 3 -3 4 -12 1 -19z
m588 -18 c-3 -5 -11 -10 -16 -10 -6 0 -7 5 -4 10 3 6 11 10 16 10 6 0 7 -4 4
-10z m40 -10 c3 -5 -1 -10 -9 -10 -9 0 -16 5 -16 10 0 6 4 10 9 10 6 0 13 -4
16 -10z m-1015 -8 c0 -13 -12 -22 -22 -16 -10 6 -1 24 13 24 5 0 9 -4 9 -8z
m240 -22 c0 -5 -4 -10 -10 -10 -5 0 -10 5 -10 10 0 6 5 10 10 10 6 0 10 -4 10
-10z m910 6 c0 -2 -7 -6 -15 -10 -8 -3 -15 -1 -15 4 0 6 7 10 15 10 8 0 15 -2
15 -4z m-932 -23 c5 -9 22 -17 38 -18 16 -1 46 -6 68 -10 36 -7 38 -6 31 14
-4 15 -2 21 9 21 8 0 18 -10 21 -21 7 -21 12 -21 99 -16 50 3 100 2 111 -2
l20 -8 -20 -6 c-38 -11 -80 -17 -117 -19 -47 -2 -48 -11 -5 -31 67 -32 131
-49 192 -49 54 0 69 4 99 27 36 27 45 48 26 60 -5 3 -10 15 -10 26 0 16 3 18
18 10 10 -6 28 -8 40 -4 18 4 20 1 15 -19 -3 -12 -15 -34 -27 -48 -12 -14 -30
-35 -40 -47 l-18 -22 28 8 c54 16 64 23 64 42 0 25 37 44 56 29 11 -10 25 -9
65 4 28 10 54 15 57 12 7 -7 8 -6 -48 -33 -39 -18 -46 -25 -45 -49 0 -23 -5
-30 -23 -32 -17 -3 -25 2 -29 16 -5 22 -32 20 -68 -5 -11 -7 -33 -13 -50 -13
-35 0 -49 -8 -58 -33 -7 -19 -50 -39 -70 -32 -7 3 -17 15 -22 27 -12 25 -107
58 -113 39 -2 -6 -8 -11 -13 -11 -4 0 -6 6 -3 14 8 20 -12 29 -35 14 -15 -9
-23 -9 -35 1 -15 12 -15 15 1 28 17 13 16 14 -4 8 -24 -7 -42 13 -22 25 27 17
-11 36 -100 49 -95 14 -157 10 -233 -16 -43 -15 -46 -18 -37 -41 13 -34 -1
-46 -35 -31 -23 11 -29 10 -36 -1 -6 -10 -4 -17 6 -23 8 -5 12 -12 9 -18 -4
-5 1 -12 9 -15 9 -3 16 -12 16 -20 0 -9 12 -14 36 -14 30 0 34 3 30 18 -4 12
1 26 14 37 17 16 25 17 40 7 17 -10 21 -8 33 15 14 26 15 26 21 5 9 -27 -17
-68 -55 -88 -16 -8 -29 -22 -29 -32 0 -20 -66 -76 -80 -67 -6 3 -10 17 -10 30
0 18 4 23 16 18 14 -5 14 -3 -2 15 -13 16 -21 18 -30 11 -16 -13 -37 -2 -30
16 7 19 -16 36 -34 25 -46 -28 -29 51 22 105 21 22 34 41 29 43 -17 6 -122
-60 -117 -74 3 -7 -8 -29 -24 -49 -28 -35 -29 -39 -15 -71 16 -38 3 -47 -16
-11 -7 12 -19 27 -28 33 -13 10 -13 14 -2 28 11 13 10 18 -3 32 -23 23 -16 37
25 48 19 5 57 27 85 48 29 21 56 38 60 37 5 -1 16 0 24 3 24 10 131 28 160 28
15 0 37 9 50 20 28 24 36 25 48 3z m447 -23 c-3 -5 -12 -10 -18 -10 -7 0 -6 4
3 10 19 12 23 12 15 0z m830 -10 c3 -5 -3 -10 -15 -10 -12 0 -18 5 -15 10 3 6
10 10 15 10 5 0 12 -4 15 -10z m-171 -58 c17 2 21 -2 19 -24 -1 -22 3 -28 18
-28 11 0 24 -10 30 -24 16 -34 -12 -86 -47 -86 -14 0 -40 -11 -58 -25 -38 -29
-48 -31 -39 -9 5 14 3 15 -15 5 -12 -7 -22 -18 -22 -25 0 -17 -27 -29 -35 -16
-4 6 -3 15 1 21 4 8 -1 9 -16 4 -19 -6 -21 -5 -12 11 7 12 6 23 -1 35 -5 9 -7
25 -3 35 7 18 9 17 26 -6 15 -19 20 -21 20 -9 0 9 9 19 21 22 15 4 23 -1 32
-21 6 -15 12 -28 13 -30 1 -2 12 2 24 8 18 9 21 18 16 41 -3 15 -1 31 4 34 30
19 -17 95 -58 95 -15 0 -38 9 -52 20 l-25 20 27 0 c18 0 26 -4 23 -12 -3 -8 4
-13 18 -13 19 0 23 4 19 20 -3 15 3 11 23 -13 18 -22 34 -32 49 -30z m-1144
18 c0 -5 -4 -10 -10 -10 -5 0 -10 5 -10 10 0 6 5 10 10 10 6 0 10 -4 10 -10z
m1480 -10 c-8 -5 -22 -9 -30 -9 -10 0 -8 3 5 9 27 12 43 12 25 0z m-63 -6 c-3
-3 -12 -4 -19 -1 -8 3 -5 6 6 6 11 1 17 -2 13 -5z m-477 -144 c0 -5 -4 -10
-10 -10 -5 0 -10 5 -10 10 0 6 5 10 10 10 6 0 10 -4 10 -10z m-2100 -14 c0
-10 -43 -77 -47 -73 -6 6 30 76 40 77 4 0 7 -2 7 -4z m-76 -130 c-3 -9 -10
-16 -15 -16 -5 0 -4 9 3 20 14 22 21 20 12 -4z m4750 -42 c3 -8 2 -12 -4 -9
-6 3 -10 10 -10 16 0 14 7 11 14 -7z m-4824 -54 c0 -5 -5 -10 -11 -10 -5 0 -7
5 -4 10 3 6 8 10 11 10 2 0 4 -4 4 -10z m3618 -42 c14 -14 16 -28 2 -28 -5 0
-14 9 -20 20 -12 22 -1 27 18 8z m-3890 -20 c23 -1 42 -5 42 -10 0 -4 -4 -8
-8 -8 -5 0 -17 -16 -28 -36 -18 -34 -20 -35 -64 -30 -25 4 -55 7 -67 7 -17 1
-23 7 -23 23 0 42 43 70 90 60 9 -2 35 -5 58 -6z m192 -8 c0 -6 -7 -13 -15
-17 -9 -3 -25 -23 -35 -44 -11 -21 -23 -40 -28 -43 -8 -5 -80 9 -88 17 -3 3 9
25 26 51 31 45 32 46 86 46 30 0 54 -4 54 -10z m3730 -31 c0 -5 -4 -9 -10 -9
-5 0 -10 7 -10 16 0 8 5 12 10 9 6 -3 10 -10 10 -16z m148 -39 c57 0 57 0 75
-40 9 -22 17 -42 17 -44 0 -7 -90 -15 -105 -10 -9 4 -22 22 -30 40 -8 19 -21
34 -29 34 -9 0 -16 7 -16 16 0 11 5 14 16 10 9 -3 41 -6 72 -6z m178 -26 c15
-18 24 -18 24 1 0 17 18 19 40 5 9 -6 17 -5 21 2 5 8 15 7 32 -5 18 -12 27
-13 36 -4 17 17 14 -24 -4 -47 -11 -14 -23 -18 -52 -14 -21 3 -58 2 -83 -1
-39 -5 -48 -3 -62 15 -10 12 -18 28 -18 36 0 8 -6 20 -12 27 -11 10 -5 11 27
6 22 -4 45 -13 51 -21z m-4305 -9 c19 -6 19 -7 -2 -36 -30 -43 -19 -45 21 -4
32 33 70 47 70 25 0 -5 14 -10 31 -10 l31 0 -58 -66 c-70 -79 -84 -88 -121
-72 -15 6 -32 10 -37 9 -17 -4 -76 21 -76 33 0 14 32 106 43 123 8 12 56 11
98 -2z m4280 -120 c17 -22 38 -43 47 -48 15 -7 15 -7 0 6 -10 8 -18 21 -18 30
0 9 -4 19 -10 22 -25 15 -7 30 40 32 41 2 51 -1 60 -17 11 -21 -2 -60 -20 -60
-6 0 -10 -5 -10 -11 0 -6 9 -8 20 -4 16 5 20 2 20 -17 1 -21 2 -22 14 -5 12
15 14 16 20 2 13 -35 -2 -41 -108 -42 -90 -2 -105 0 -110 15 -13 33 -31 62
-38 62 -5 0 -8 9 -8 21 0 12 -8 23 -20 26 -22 6 -26 19 -8 25 6 2 32 4 56 3
39 -1 47 -5 73 -40z m161 15 c0 -11 1 -25 2 -32 1 -6 -5 -13 -11 -15 -8 -3
-12 7 -11 31 1 38 17 50 20 16z m-4480 -73 c15 -6 28 -15 28 -18 0 -3 -28 -21
-62 -39 -35 -18 -76 -40 -92 -49 -21 -12 -30 -13 -33 -4 -2 7 -10 10 -18 7 -7
-3 -23 0 -35 6 -21 11 -21 12 18 41 22 16 47 41 57 55 16 24 21 26 63 20 25
-3 59 -12 74 -19z m4481 -101 c4 -6 12 -28 18 -49 5 -21 19 -54 30 -73 10 -19
19 -37 19 -39 0 -3 -18 -5 -41 -5 -46 0 -79 14 -79 34 0 7 -11 25 -25 40 -14
15 -25 31 -25 37 0 5 -4 9 -9 9 -11 0 -61 44 -61 53 0 19 159 13 173 -7z
m-4698 -16 c3 -5 17 -10 31 -10 13 0 24 -4 24 -10 0 -5 -5 -10 -11 -10 -12 0
-75 -26 -99 -41 -8 -5 -22 -12 -30 -16 -8 -3 -19 -12 -23 -20 -11 -18 -41 -17
-34 1 4 10 0 12 -16 8 -12 -2 -27 -9 -34 -14 -6 -5 -14 -5 -17 0 -3 5 16 24
41 43 25 19 60 44 77 57 32 23 80 29 91 12z m5414 -64 c-3 -3 -11 5 -18 17
-13 21 -12 21 5 5 10 -10 16 -20 13 -22z m-5644 -65 c3 -5 -5 -13 -17 -17 -28
-8 -70 -35 -65 -41 3 -2 20 4 38 13 19 10 46 24 62 31 16 9 27 10 27 4 0 -14
-144 -81 -172 -81 -22 0 -22 0 -3 19 24 23 107 80 117 81 4 0 9 -4 13 -9z
m-480 -47 c11 -9 15 -18 9 -20 -6 -3 -9 -18 -6 -34 2 -16 1 -42 -3 -57 -6 -27
-97 -123 -115 -123 -6 0 -10 -6 -10 -14 0 -7 -7 -19 -15 -26 -12 -10 -16 -9
-21 4 -4 9 5 29 21 48 24 28 25 34 11 36 -13 3 -15 11 -11 35 4 18 7 40 9 50
5 33 21 12 19 -25 -1 -21 2 -38 7 -38 15 0 32 39 25 60 -3 10 -1 21 5 25 5 3
10 13 10 21 0 16 -36 19 -45 4 -9 -15 -35 -12 -35 4 0 19 48 56 65 50 7 -3 16
-1 20 5 9 16 37 13 60 -5z m5580 -101 c19 -28 35 -55 35 -58 0 -12 -30 17 -30
29 -1 15 -48 72 -55 65 -2 -3 8 -23 25 -45 16 -21 30 -42 30 -46 0 -15 -19 -8
-24 10 -8 25 -59 82 -74 82 -7 0 -12 3 -12 8 0 4 -14 16 -30 27 l-30 20 42 5
c48 6 59 -2 123 -97z m435 77 c0 -5 -4 -10 -10 -10 -5 0 -10 5 -10 10 0 6 5
10 10 10 6 0 10 -4 10 -10z m52 -22 c-9 -9 -12 -7 -12 12 0 19 3 21 12 12 9
-9 9 -15 0 -24z m108 15 c14 -6 36 -14 50 -17 14 -3 41 -19 60 -36 33 -27 33
-29 12 -30 -16 0 -21 -4 -16 -12 6 -10 5 -10 -8 -1 -8 7 -19 9 -23 5 -5 -4 -5
-1 -1 6 4 7 2 12 -7 12 -7 0 -24 11 -37 25 -29 31 -36 31 -44 3 -6 -23 -6 -23
-31 7 -18 21 -23 24 -19 10 5 -15 4 -17 -5 -9 -13 12 -4 47 9 39 5 -3 11 -1
15 5 4 6 9 9 13 7 4 -2 18 -8 32 -14z m-5830 -33 c0 -5 -5 -10 -11 -10 -18 0
-90 -64 -105 -92 -8 -16 -19 -28 -25 -28 -19 0 21 59 68 99 47 40 73 51 73 31z
m5724 -16 c3 -8 2 -12 -4 -9 -6 3 -10 10 -10 16 0 14 7 11 14 -7z m-6228 -51
c-10 -10 -19 5 -10 18 6 11 8 11 12 0 2 -7 1 -15 -2 -18z m344 -18 c-7 -8 -16
-12 -21 -9 -13 8 -1 24 18 24 13 0 13 -3 3 -15z m6335 -16 c11 -17 -1 -21 -15
-4 -8 9 -8 15 -2 15 6 0 14 -5 17 -11z m-6395 -8 c0 -5 -10 -11 -22 -14 -13
-2 -32 -8 -43 -12 -16 -5 -15 -3 5 14 26 21 60 28 60 12z m5503 -24 c7 6 46
-36 47 -50 0 -4 10 -21 21 -36 20 -28 19 -51 -2 -51 -5 0 -13 8 -16 18 -4 9
-25 44 -47 77 -22 33 -33 54 -24 48 8 -7 18 -10 21 -6z m-5823 -32 c-7 -9 -15
-13 -17 -11 -7 7 7 26 19 26 6 0 6 -6 -2 -15z m204 -10 c-9 -14 -19 -24 -21
-21 -6 6 20 46 30 46 4 0 0 -11 -9 -25z m-234 0 c0 -8 -4 -15 -10 -15 -5 0
-10 7 -10 15 0 8 5 15 10 15 6 0 10 -7 10 -15z m16 -42 c-10 -10 -19 5 -10 18
6 11 8 11 12 0 2 -7 1 -15 -2 -18z m-236 -40 c-45 -51 -68 -69 -78 -59 -7 7
95 106 110 106 5 0 -9 -21 -32 -47z m420 43 c0 -8 -51 -13 -56 -5 -3 5 9 9 25
9 17 0 31 -2 31 -4z m-340 -25 c-11 -21 -30 -37 -30 -25 0 8 30 44 37 44 2 0
-1 -9 -7 -19z m250 -3 c-1 -13 -86 -58 -111 -58 -44 0 -289 -175 -289 -206 0
-7 -3 -14 -8 -16 -4 -1 -22 -22 -41 -46 -43 -55 -51 -47 -16 15 79 136 188
234 328 294 69 29 137 37 137 17z m6965 -18 c3 -5 1 -10 -4 -10 -6 0 -11 5
-11 10 0 6 2 10 4 10 3 0 8 -4 11 -10z m-6905 -20 c0 -5 -4 -10 -10 -10 -5 0
-10 5 -10 10 0 6 5 10 10 10 6 0 10 -4 10 -10z m5786 -8 c19 -12 54 -75 54
-97 0 -14 -12 -3 -40 35 -22 30 -40 58 -40 63 0 9 12 9 26 -1z m-5846 -27 c-7
-8 -17 -15 -23 -15 -5 0 -2 9 8 20 21 23 35 19 15 -5z m7035 -15 c-9 -14 -25
5 -25 30 0 12 3 12 16 -2 9 -9 13 -21 9 -28z m-7159 -62 c-9 -12 -16 -19 -16
-15 0 11 24 47 28 42 2 -2 -3 -14 -12 -27z m-372 -52 c-9 -15 -19 -25 -21 -22
-3 2 3 16 13 30 9 15 19 25 21 22 3 -2 -3 -16 -13 -30z m536 25 c0 -6 -4 -13
-10 -16 -5 -3 -10 1 -10 9 0 9 5 16 10 16 6 0 10 -4 10 -9z m-100 -32 c0 -5
-7 -9 -15 -9 -15 0 -20 12 -9 23 8 8 24 -1 24 -14z m-198 -51 c-8 -18 -17 -27
-20 -20 -2 7 4 22 14 33 24 26 25 24 6 -13z m220 -10 c-6 -6 -15 -8 -19 -4 -4
4 -1 11 7 16 19 12 27 3 12 -12z m7068 -2 c0 -2 -9 -6 -20 -9 -11 -3 -18 -1
-14 4 5 9 34 13 34 5z m-7115 -14 c6 -4 10 -19 10 -34 1 -28 -9 -36 -20 -18
-3 5 -12 7 -20 3 -11 -4 -15 2 -15 20 0 22 10 33 30 36 3 0 10 -3 15 -7z m-75
-16 c0 -3 -4 -8 -10 -11 -5 -3 -10 -1 -10 4 0 6 5 11 10 11 6 0 10 -2 10 -4z
m7468 -48 c-3 -7 -13 -13 -23 -13 -10 0 -20 6 -22 13 -3 7 5 12 22 12 17 0 25
-5 23 -12z m-7589 -14 c-10 -13 -10 -17 2 -25 12 -7 11 -9 -3 -9 -9 0 -24 -10
-32 -22 -13 -18 -16 -19 -16 -5 0 9 5 17 10 17 6 0 10 7 10 16 0 9 8 23 18 30
23 18 27 17 11 -2z m-166 -9 c-3 -9 -8 -14 -10 -11 -3 3 -2 9 2 15 9 16 15 13
8 -4z m260 -16 c-4 -13 -9 -17 -15 -11 -11 11 -3 32 12 32 4 0 6 -9 3 -21z
m-302 -36 c-12 -20 -14 -14 -5 12 4 9 9 14 11 11 3 -2 0 -13 -6 -23z m849 17
c0 -5 -4 -10 -10 -10 -5 0 -10 5 -10 10 0 6 5 10 10 10 6 0 10 -4 10 -10z
m5620 -20 c0 -5 -5 -10 -11 -10 -5 0 -7 5 -4 10 3 6 8 10 11 10 2 0 4 -4 4
-10z m-5903 -45 c-7 -14 -18 -25 -25 -25 -7 0 -11 3 -9 8 2 4 7 15 10 25 4 9
13 17 21 17 11 0 12 -5 3 -25z m5073 15 c0 -5 -4 -10 -10 -10 -5 0 -10 5 -10
10 0 6 5 10 10 10 6 0 10 -4 10 -10z m2047 -6 c7 -20 -8 -36 -25 -25 -14 8 -6
41 9 41 5 0 12 -7 16 -16z m-6854 -39 c-3 -9 -8 -14 -10 -11 -3 3 -2 9 2 15 9
16 15 13 8 -4z m5432 -6 c11 -17 -1 -21 -15 -4 -8 9 -8 15 -2 15 6 0 14 -5 17
-11z m-6282 -136 c2 -76 8 -146 12 -155 4 -11 3 -18 -4 -18 -6 0 -11 7 -11 15
0 8 -4 15 -8 15 -9 0 -9 2 -18 142 -4 59 -4 114 -1 122 16 41 25 5 30 -121z
m520 65 c-5 -68 -8 -77 -23 -62 -7 7 -7 28 -1 59 5 28 7 53 5 57 -3 5 1 8 9 8
11 0 13 -13 10 -62z m5112 30 c-4 -18 -12 -37 -17 -43 -10 -10 -2 49 9 68 10
17 14 5 8 -25z m-5055 9 c0 -9 14 -14 42 -15 23 -1 50 -9 60 -19 10 -9 18 -13
18 -9 0 4 9 2 20 -4 20 -11 19 -13 -22 -93 -51 -97 -140 -192 -215 -231 -70
-35 -84 -33 -44 8 17 18 39 55 47 82 8 26 26 61 41 76 25 26 28 27 45 11 20
-18 20 -20 23 110 1 52 0 58 -22 63 -25 7 -32 34 -8 34 8 0 15 -6 15 -13z
m5180 -6 c0 -14 -5 -18 -20 -14 -11 3 -20 12 -20 19 0 8 9 14 20 14 13 0 20
-7 20 -19z m-870 -11 c0 -5 -5 -10 -11 -10 -5 0 -7 5 -4 10 3 6 8 10 11 10 2
0 4 -4 4 -10z m-4620 -41 c0 -6 -4 -7 -10 -4 -5 3 -10 11 -10 16 0 6 5 7 10 4
6 -3 10 -11 10 -16z m861 -32 c-8 -8 -11 -4 -11 14 0 33 14 47 18 19 2 -12 -1
-27 -7 -33z m-941 9 c0 -8 -4 -18 -10 -21 -5 -3 -10 3 -10 14 0 12 5 21 10 21
6 0 10 -6 10 -14z m994 -28 c-1 -13 -3 -25 -3 -28 -3 -14 -21 28 -21 49 0 18
3 21 13 12 8 -6 13 -21 11 -33z m-399 22 c3 -5 1 -10 -4 -10 -6 0 -11 5 -11
10 0 6 2 10 4 10 3 0 8 -4 11 -10z m2346 -13 c-10 -9 -11 -8 -5 6 3 10 9 15
12 12 3 -3 0 -11 -7 -18z m-1531 3 c0 -5 -4 -10 -10 -10 -5 0 -10 5 -10 10 0
6 5 10 10 10 6 0 10 -4 10 -10z m-50 -34 c0 -11 -19 -15 -25 -6 -3 5 1 10 9
10 9 0 16 -2 16 -4z m510 -11 c0 -8 -2 -15 -4 -15 -2 0 -6 7 -10 15 -3 8 -1
15 4 15 6 0 10 -7 10 -15z m4808 -10 c-3 -3 -9 2 -12 12 -6 14 -5 15 5 6 7 -7
10 -15 7 -18z m-5373 5 c-3 -5 -14 -10 -23 -10 -15 0 -15 2 -2 10 20 13 33 13
25 0z m-282 -67 c3 -24 1 -43 -3 -43 -11 0 -30 57 -30 89 0 42 27 4 33 -46z
m127 17 c0 -5 -5 -10 -11 -10 -5 0 -7 5 -4 10 3 6 8 10 11 10 2 0 4 -4 4 -10z
m-40 -14 c0 -9 -30 -14 -35 -6 -4 6 3 10 14 10 12 0 21 -2 21 -4z m-874 -29
c-8 -32 -57 -119 -63 -113 -7 6 53 136 63 136 3 0 4 -10 0 -23z m-307 -77 c16
-33 27 -47 32 -39 5 9 11 8 23 -4 15 -14 15 -16 0 -19 -13 -2 -10 -12 16 -48
l31 -45 -41 43 c-22 23 -44 42 -48 42 -4 0 -17 27 -29 60 -26 73 -17 79 16 10z
m3579 31 c3 -8 -1 -12 -9 -9 -7 2 -15 10 -17 17 -3 8 1 12 9 9 7 -2 15 -10 17
-17z m-1188 0 c0 -12 -29 -23 -41 -15 -5 3 -7 10 -4 15 8 12 45 12 45 0z
m-2190 -26 c5 3 10 0 10 -7 -1 -16 -24 -48 -35 -48 -4 0 -1 7 6 16 11 13 10
17 -4 25 -9 6 -17 15 -17 21 0 7 5 6 15 -2 8 -6 19 -9 25 -5z m3410 0 c7 -9 8
-15 2 -15 -5 0 -12 7 -16 15 -3 8 -4 15 -2 15 2 0 9 -7 16 -15z m-3120 -4 c0
-5 -12 -16 -26 -26 l-25 -16 16 25 c17 26 35 34 35 17z m1680 -25 c0 -18 -17
-29 -30 -21 -8 5 -7 11 1 21 15 18 29 18 29 0z m5123 -14 c9 -8 17 -19 17 -23
0 -5 -8 -6 -17 -2 -22 8 -53 33 -53 44 0 11 31 0 53 -19z m-4953 -2 c0 -5 -2
-10 -4 -10 -3 0 -8 5 -11 10 -3 6 -1 10 4 10 6 0 11 -4 11 -10z m400 0 c0 -5
-7 -10 -16 -10 -8 0 -12 5 -9 10 3 6 10 10 16 10 5 0 9 -4 9 -10z m2250 -11
c0 -6 -4 -7 -10 -4 -5 3 -10 11 -10 16 0 6 5 7 10 4 6 -3 10 -11 10 -16z
m-4756 -23 c-3 -9 -10 -16 -15 -16 -6 0 -5 9 1 21 13 24 24 20 14 -5z m4651
14 c3 -5 1 -10 -4 -10 -6 0 -11 5 -11 10 0 6 2 10 4 10 3 0 8 -4 11 -10z
m-4725 -26 c0 -8 -7 -14 -15 -14 -15 0 -21 21 -9 33 10 9 24 -2 24 -19z m4240
17 c0 -6 -4 -13 -10 -16 -5 -3 -10 1 -10 9 0 9 5 16 10 16 6 0 10 -4 10 -9z
m-4010 -5 c0 -2 -7 -7 -16 -10 -8 -3 -12 -2 -9 4 6 10 25 14 25 6z m-60 -26
c-8 -5 -19 -10 -25 -10 -5 0 -3 5 5 10 8 5 20 10 25 10 6 0 3 -5 -5 -10z
m4230 -12 c0 -6 -6 -5 -15 2 -8 7 -15 14 -15 16 0 2 7 1 15 -2 8 -4 15 -11 15
-16z m350 7 c0 -8 -4 -15 -10 -15 -5 0 -10 7 -10 15 0 8 5 15 10 15 6 0 10 -7
10 -15z m-770 -25 c0 -5 -2 -10 -4 -10 -3 0 -8 5 -11 10 -3 6 -1 10 4 10 6 0
11 -4 11 -10z m-3966 -25 c-9 -21 -41 -38 -49 -25 -3 5 0 10 8 10 8 0 20 7 27
15 16 19 21 19 14 0z m3560 -39 c-9 -29 -10 -29 -33 -16 -23 12 -27 40 -9 58
18 18 50 -15 42 -42z m894 1 c2 -15 -1 -27 -7 -27 -6 0 -8 6 -5 14 3 8 1 17
-5 21 -15 9 -14 28 2 23 6 -3 13 -17 15 -31z m2322 23 c0 -5 -4 -10 -10 -10
-5 0 -10 5 -10 10 0 6 5 10 10 10 6 0 10 -4 10 -10z m-319 -56 c19 -23 -15
-18 -35 5 -17 19 -17 19 3 14 11 -3 26 -11 32 -19z m-6011 -34 c0 -5 -2 -10
-4 -10 -3 0 -8 5 -11 10 -3 6 -1 10 4 10 6 0 11 -4 11 -10z m3960 -6 c0 -9 -7
-14 -17 -12 -25 5 -28 28 -4 28 12 0 21 -6 21 -16z m250 6 c0 -5 -4 -10 -10
-10 -5 0 -10 5 -10 10 0 6 5 10 10 10 6 0 10 -4 10 -10z"/>
<path d="M6490 10905 c0 -3 4 -13 9 -23 5 -9 22 -48 37 -87 15 -38 37 -83 47
-98 16 -24 18 -33 8 -54 -10 -22 -8 -30 14 -59 32 -41 45 -45 16 -5 -12 16
-21 32 -21 35 0 12 20 6 38 -11 11 -10 38 -36 62 -58 l44 -40 -51 60 c-31 36
-80 117 -123 203 -65 127 -80 154 -80 137z"/>
<path d="M7079 10443 c-13 -15 -12 -15 9 -4 23 12 28 21 13 21 -5 0 -15 -7
-22 -17z"/>
<path d="M7008 10338 c-43 -78 -52 -104 -38 -113 5 -3 10 2 10 11 0 10 16 49
36 87 45 87 38 99 -8 15z"/>
<path d="M6800 10260 c0 -5 5 -10 11 -10 5 0 7 5 4 10 -3 6 -8 10 -11 10 -2 0
-4 -4 -4 -10z"/>
<path d="M6813 10200 c0 -25 -3 -61 -7 -80 -5 -19 -5 -32 -1 -28 14 14 23 84
15 118 -9 35 -9 35 -7 -10z"/>
<path d="M4813 10172 c-11 -15 -24 -38 -28 -52 -7 -23 -6 -22 34 9 40 32 52
51 30 51 -5 0 -7 5 -4 10 14 23 -13 8 -32 -18z"/>
<path d="M5090 10142 c0 -5 7 -15 15 -22 8 -7 15 -8 15 -2 0 5 -7 15 -15 22
-8 7 -15 8 -15 2z"/>
<path d="M4742 10128 c-14 -14 -16 -42 -3 -34 7 5 23 46 17 46 -1 0 -7 -5 -14
-12z"/>
<path d="M4834 10102 c-50 -49 -86 -122 -88 -180 -2 -40 3 -56 36 -102 20 -30
47 -61 59 -69 20 -12 24 -11 39 9 15 21 18 21 33 5 12 -12 14 -21 7 -34 -11
-21 -4 -31 20 -31 9 0 25 -8 36 -19 20 -18 21 -18 53 20 17 21 37 53 43 71 6
18 15 38 19 44 14 17 -10 123 -36 163 -30 48 -153 161 -175 161 -4 0 -25 -17
-46 -38z"/>
<path d="M6131 10043 c22 -87 34 -119 55 -145 13 -16 25 -37 29 -48 3 -11 10
-20 14 -20 9 0 -10 64 -22 76 -4 4 -7 15 -7 23 0 16 -67 151 -75 151 -2 0 1
-17 6 -37z"/>
<path d="M6923 10064 c20 -65 19 -73 -18 -136 -20 -35 -48 -78 -61 -95 -14
-18 -20 -33 -15 -33 11 0 59 62 105 135 27 44 28 48 16 91 -7 24 -17 47 -22
51 -6 3 -8 -2 -5 -13z"/>
<path d="M6782 10021 c-7 -19 -10 -36 -7 -39 6 -7 26 49 22 62 -2 6 -9 -5 -15
-23z"/>
<path d="M4707 10015 c-4 -8 -2 -17 3 -20 6 -4 10 3 10 14 0 25 -6 27 -13 6z"/>
<path d="M4662 9998 c-12 -15 -62 -127 -62 -139 0 -5 6 -9 14 -9 14 0 26 29
26 65 0 11 9 37 20 58 20 37 21 47 2 25z"/>
<path d="M6300 9988 c0 -10 8 -26 19 -37 10 -10 20 -23 22 -29 6 -19 103 -141
112 -141 5 -1 5 4 1 10 -3 6 0 15 7 20 10 6 -2 24 -52 71 -36 35 -75 77 -87
93 -16 22 -21 25 -22 13z"/>
<path d="M3896 9968 c-15 -47 -15 -78 -1 -78 11 0 15 12 15 45 0 44 -7 58 -14
33z"/>
<path d="M5237 9962 c3 -12 9 -25 14 -28 14 -8 11 10 -6 32 -13 18 -14 18 -8
-4z"/>
<path d="M5540 9976 c0 -11 98 -106 111 -106 8 0 25 -7 37 -16 13 -9 25 -14
28 -11 2 2 -15 17 -38 32 -24 16 -61 45 -83 67 -35 33 -55 46 -55 34z"/>
<path d="M6766 9943 c-6 -14 -5 -15 5 -6 7 7 10 15 7 18 -3 3 -9 -2 -12 -12z"/>
<path d="M4320 9882 c-45 -59 -45 -62 -20 -55 18 5 70 77 70 96 0 17 -18 2
-50 -41z"/>
<path d="M5297 9909 c4 -13 8 -18 11 -10 2 7 -1 18 -6 23 -8 8 -9 4 -5 -13z"/>
<path d="M6940 9908 c0 -13 -9 -36 -20 -53 -30 -45 -141 -165 -154 -165 -13
-1 -76 -56 -76 -68 0 -4 18 -31 39 -60 35 -46 39 -57 37 -102 -2 -27 0 -50 3
-50 4 0 33 25 65 56 82 79 95 137 51 232 -15 32 -20 52 -12 50 14 -5 55 -76
56 -98 1 -8 8 -28 16 -43 10 -20 13 -47 9 -95 -3 -37 -5 -78 -5 -91 1 -21 -11
-56 -58 -176 -22 -56 -43 -123 -48 -150 -2 -16 -15 -50 -28 -75 -27 -51 -27
-51 -26 -167 0 -72 3 -87 27 -123 27 -41 28 -41 36 -19 5 13 22 77 39 143 32
132 44 156 64 130 11 -15 12 -16 18 -1 4 10 2 16 -6 14 -7 -1 -13 11 -15 29
-2 24 3 36 23 52 16 13 21 22 13 24 -10 4 -9 14 5 43 10 20 16 40 13 43 -3 2
-1 12 4 22 9 16 16 44 27 103 3 15 0 34 -7 42 -14 17 3 78 32 111 24 27 14 78
-40 204 -22 52 -42 111 -45 130 -3 19 -9 56 -12 83 -7 48 -25 66 -25 25z m52
-645 c25 -23 23 -45 -4 -41 -17 2 -24 11 -26 31 -4 31 4 34 30 10z"/>
<path d="M6286 9873 c-16 -37 -16 -39 6 -83 43 -82 78 -130 111 -150 25 -16
33 -17 35 -6 2 7 16 16 33 20 27 5 42 26 19 26 -5 0 -10 7 -10 15 0 8 -4 15
-8 15 -8 0 -32 31 -113 144 -19 27 -40 51 -45 53 -6 2 -18 -13 -28 -34z"/>
<path d="M3901 9854 c0 -11 3 -14 6 -6 3 7 2 16 -1 19 -3 4 -6 -2 -5 -13z"/>
<path d="M3734 9813 c-6 -21 -41 -89 -79 -156 -15 -26 -25 -50 -22 -53 9 -9
79 -23 92 -18 14 6 40 58 66 133 l19 55 -27 28 c-31 32 -42 35 -49 11z"/>
<path d="M3908 9815 c-7 -7 2 -54 11 -59 4 -3 5 11 3 30 -4 35 -5 37 -14 29z"/>
<path d="M6680 9805 c-7 -9 -8 -15 -2 -15 5 0 12 7 16 15 3 8 4 15 2 15 -2 0
-9 -7 -16 -15z"/>
<path d="M7061 9805 c0 -5 6 -21 14 -35 8 -14 14 -20 14 -15 0 6 -6 21 -14 35
-8 14 -14 21 -14 15z"/>
<path d="M3954 9759 c3 -17 6 -37 6 -44 0 -8 8 -11 20 -8 16 4 20 0 20 -20 0
-14 -4 -36 -9 -49 -6 -16 -5 -29 4 -41 11 -15 13 -16 19 -2 3 8 14 15 24 15
11 0 25 7 32 15 16 19 -33 109 -72 133 -15 9 -28 20 -28 24 0 4 -5 8 -11 8 -8
0 -9 -11 -5 -31z"/>
<path d="M3655 9738 c-24 -36 -40 -78 -29 -78 6 0 66 112 62 116 -3 2 -18 -15
-33 -38z"/>
<path d="M6737 9733 c-4 -3 -7 -11 -7 -17 0 -6 5 -5 12 2 6 6 9 14 7 17 -3 3
-9 2 -12 -2z"/>
<path d="M6570 9721 c0 -5 5 -13 10 -16 6 -3 10 -2 10 4 0 5 -4 13 -10 16 -5
3 -10 2 -10 -4z"/>
<path d="M6107 9658 c-33 -63 -59 -103 -74 -115 -14 -11 -14 -14 0 -27 17 -17
37 -21 37 -8 0 4 -4 12 -10 18 -6 6 3 28 25 60 30 44 54 104 43 104 -2 0 -12
-15 -21 -32z"/>
<path d="M4205 9669 c-4 -6 -5 -12 -2 -15 2 -3 7 2 10 11 7 17 1 20 -8 4z"/>
<path d="M4560 9645 c-7 -9 -10 -18 -7 -21 3 -3 10 4 17 15 13 25 8 27 -10 6z"/>
<path d="M5185 9622 c-32 -31 -29 -42 16 -57 29 -10 39 -10 54 1 10 8 27 14
37 14 31 0 20 14 -32 41 l-50 27 -25 -26z"/>
<path d="M4933 9615 c-36 -32 -17 -32 22 0 17 13 25 24 18 25 -7 0 -25 -11
-40 -25z"/>
<path d="M4621 9584 c-23 -20 -40 -39 -36 -42 6 -7 115 48 115 58 0 6 -23 20
-34 20 -1 0 -21 -16 -45 -36z"/>
<path d="M5352 9601 c7 -11 16 -17 20 -14 10 5 -10 33 -23 33 -5 0 -4 -9 3
-19z"/>
<path d="M6265 9610 c3 -5 8 -10 11 -10 2 0 4 5 4 10 0 6 -5 10 -11 10 -5 0
-7 -4 -4 -10z"/>
<path d="M5736 9601 c-8 -12 94 -101 116 -101 32 0 27 17 -14 51 -22 19 -47
40 -54 47 -15 14 -40 16 -48 3z"/>
<path d="M6446 9601 c-4 -7 -5 -15 -2 -18 9 -9 19 4 14 18 -4 11 -6 11 -12 0z"/>
<path d="M6297 9593 c-4 -3 -7 -11 -7 -17 0 -6 5 -5 12 2 6 6 9 14 7 17 -3 3
-9 2 -12 -2z"/>
<path d="M6225 9540 c-22 -32 -25 -42 -15 -59 6 -12 8 -21 4 -21 -4 0 9 -16
29 -35 40 -39 73 -49 38 -11 l-23 24 31 23 c40 29 39 44 -3 84 l-35 33 -26
-38z"/>
<path d="M4175 9539 c-31 -58 -55 -261 -34 -275 6 -3 7 -14 4 -25 -4 -11 -2
-19 4 -19 6 0 11 -5 11 -11 0 -22 62 -101 72 -91 5 5 10 88 11 183 2 148 -1
181 -16 222 -10 26 -23 47 -28 47 -4 0 -16 -14 -24 -31z"/>
<path d="M6510 9557 c-14 -6 -27 -12 -29 -14 -6 -4 43 -42 55 -43 7 0 15 -7
18 -16 3 -8 11 -12 16 -9 13 8 2 77 -14 87 -14 9 -15 9 -46 -5z"/>
<path d="M3640 9550 c0 -5 17 -10 38 -9 30 0 33 2 17 9 -28 12 -55 12 -55 0z"/>
<path d="M3980 9545 c0 -9 5 -15 11 -13 6 2 11 8 11 13 0 5 -5 11 -11 13 -6 2
-11 -4 -11 -13z"/>
<path d="M4423 9547 c-22 -10 -31 -27 -15 -27 12 0 48 28 42 33 -3 2 -15 0
-27 -6z"/>
<path d="M4991 9536 c-10 -12 -8 -13 8 -9 16 4 23 -1 31 -22 6 -15 8 -36 5
-45 -3 -10 -1 -21 4 -24 14 -9 5 82 -10 100 -15 18 -23 18 -38 0z"/>
<path d="M4880 9510 c0 -13 7 -20 20 -20 24 0 25 6 6 26 -20 19 -26 18 -26 -6z"/>
<path d="M4950 9519 c0 -5 5 -7 10 -4 6 3 10 8 10 11 0 2 -4 4 -10 4 -5 0 -10
-5 -10 -11z"/>
<path d="M4596 9495 c-9 -13 -16 -31 -16 -40 0 -21 27 -30 45 -15 9 7 19 10
22 6 11 -10 -10 -39 -38 -53 -34 -17 -30 -33 13 -48 37 -12 37 -12 43 16 12
55 13 123 2 141 -17 26 -52 22 -71 -7z"/>
<path d="M6910 9512 c0 -5 -35 -46 -79 -89 -56 -58 -80 -89 -83 -112 -2 -17
-1 -31 3 -31 5 0 4 -12 -1 -26 -6 -14 -10 -39 -10 -55 l0 -30 32 23 c48 35 78
64 78 76 0 6 4 12 9 14 18 7 63 113 67 160 3 28 6 55 7 60 1 6 -4 13 -10 15
-7 3 -13 0 -13 -5z"/>
<path d="M3607 9503 c-6 -9 -10 -49 -8 -78 1 -17 9 -13 46 25 24 25 44 48 45
53 0 4 -18 7 -39 7 -22 0 -42 -3 -44 -7z"/>
<path d="M4117 9504 c-4 -4 -7 -23 -6 -43 l1 -36 9 33 c11 36 9 58 -4 46z"/>
<path d="M4965 9490 c-10 -11 -21 -17 -26 -14 -5 3 -20 -3 -34 -12 -27 -18
-31 -43 -14 -93 9 -26 16 -31 42 -31 l31 0 -32 -27 c-50 -43 -29 -82 45 -83
20 0 41 31 35 54 -2 5 -4 53 -6 107 -3 109 -12 131 -41 99z"/>
<path d="M3795 9470 c-26 -27 -27 -30 -10 -46 12 -13 15 -26 10 -53 l-6 -36
22 22 c16 16 24 37 27 76 2 30 0 57 -5 60 -6 4 -22 -7 -38 -23z"/>
<path d="M5239 9478 c-7 -13 -15 -36 -18 -52 -4 -16 -15 -34 -26 -40 -32 -18
-36 -30 -15 -48 11 -9 20 -22 20 -29 0 -6 6 -17 14 -23 7 -6 16 -23 20 -37 6
-26 1 -34 -58 -88 -32 -29 -32 -34 -2 -51 23 -12 28 -10 59 16 21 17 37 42 41
62 4 17 12 32 19 32 9 0 9 2 1 8 -14 9 -10 58 6 77 10 12 10 18 0 30 -11 13
-6 15 31 16 l44 1 -45 12 c-44 12 -44 12 -47 61 -5 80 -20 97 -44 53z"/>
<path d="M6720 9491 c0 -6 4 -11 9 -11 6 0 5 -15 -1 -36 -8 -32 -5 -55 6 -43
11 11 10 92 -1 96 -7 3 -13 0 -13 -6z"/>
<path d="M4401 9471 c17 -27 44 -42 37 -21 -2 7 -15 20 -29 29 l-24 16 16 -24z"/>
<path d="M6030 9439 c-25 -27 -46 -54 -48 -59 -6 -16 34 -11 48 5 7 8 16 13
19 10 4 -2 24 1 43 7 37 11 42 33 11 51 -7 4 -13 15 -13 22 0 24 -12 16 -60
-36z"/>
<path d="M5823 9467 c-2 -4 8 -11 22 -17 20 -7 32 -6 50 6 14 9 25 17 25 19 0
6 -93 -1 -97 -8z"/>
<path d="M6488 9455 c-23 -31 -23 -38 2 -25 12 6 30 8 40 5 26 -8 26 6 0 28
-25 21 -21 21 -42 -8z"/>
<path d="M6300 9434 c0 -8 5 -12 10 -9 6 3 10 10 10 16 0 5 -4 9 -10 9 -5 0
-10 -7 -10 -16z"/>
<path d="M6316 9396 c-19 -30 -21 -45 -4 -28 16 16 28 15 28 -3 0 -8 5 -15 10
-15 14 0 13 13 -4 44 l-13 26 -17 -24z"/>
<path d="M4095 9392 c-3 -12 -2 -29 3 -38 8 -14 10 -12 14 9 7 34 -7 57 -17
29z"/>
<path d="M6501 9392 c-5 -10 -11 -45 -12 -78 -3 -60 -14 -88 -30 -78 -5 3 -9
-5 -9 -18 0 -18 2 -20 10 -8 5 8 11 12 13 10 3 -3 7 -50 10 -105 4 -100 11
-124 51 -172 23 -27 43 -30 49 -5 3 12 6 8 11 -13 4 -16 12 -38 17 -48 5 -10
7 -22 4 -27 -3 -5 -1 -11 5 -15 22 -13 19 23 -5 83 -19 47 -24 72 -19 102 4
27 3 40 -5 40 -6 0 -11 -13 -11 -29 0 -17 -5 -33 -11 -36 -6 -4 -8 -13 -5 -21
3 -9 -1 -14 -14 -14 -30 0 -34 19 -10 45 20 21 23 36 25 137 2 62 6 141 9 175
5 48 3 65 -10 77 -21 21 -51 20 -63 -2z"/>
<path d="M6597 9387 c-4 -10 -2 -28 4 -39 15 -28 19 -19 10 22 -5 28 -8 31
-14 17z"/>
<path d="M3966 9382 c-3 -5 1 -9 9 -9 8 0 12 4 9 9 -3 4 -7 8 -9 8 -2 0 -6 -4
-9 -8z"/>
<path d="M3589 9364 c-12 -14 -11 -16 5 -13 11 2 21 10 24 17 5 17 -13 15 -29
-4z"/>
<path d="M3883 9373 c9 -2 23 -2 30 0 6 3 -1 5 -18 5 -16 0 -22 -2 -12 -5z"/>
<path d="M4425 9370 c3 -5 8 -10 11 -10 2 0 4 5 4 10 0 6 -5 10 -11 10 -5 0
-7 -4 -4 -10z"/>
<path d="M6064 9365 c-10 -8 -27 -15 -37 -15 -10 0 -20 -7 -23 -15 -4 -8 -16
-15 -28 -16 -20 0 -20 -1 3 -10 19 -8 29 -5 46 11 26 24 39 26 31 4 -4 -11 -1
-14 12 -12 9 2 16 10 14 16 -1 7 2 22 8 32 13 24 1 26 -26 5z"/>
<path d="M6722 9368 c-14 -14 -16 -54 -3 -62 5 -3 11 12 13 34 2 22 3 40 3 40
-1 0 -6 -5 -13 -12z"/>
<path d="M4696 9362 c-2 -4 -1 -14 3 -21 6 -9 10 -7 14 8 5 20 -7 29 -17 13z"/>
<path d="M5106 9345 c-15 -23 -15 -25 -1 -25 10 0 13 -5 9 -12 -5 -8 0 -9 17
-5 13 4 30 7 37 7 25 0 1 20 -26 21 -15 0 -21 3 -14 6 14 5 17 33 3 33 -5 0
-16 -11 -25 -25z"/>
<path d="M5687 9324 c3 -7 11 -10 19 -7 20 8 17 22 -5 20 -10 0 -17 -7 -14
-13z"/>
<path d="M6287 9322 c-9 -10 -14 -22 -10 -26 4 -4 -2 -9 -14 -12 -12 -3 -25
-13 -28 -22 -12 -30 -15 -192 -4 -192 5 0 9 -6 8 -12 -3 -18 11 -48 22 -48 5
0 7 11 3 25 -4 17 -1 32 9 43 18 21 26 58 31 142 3 42 0 68 -7 73 -9 5 -8 9 2
16 7 5 12 14 9 21 -2 7 -9 5 -21 -8z"/>
<path d="M5788 9323 c7 -3 16 -2 19 1 4 3 -2 6 -13 5 -11 0 -14 -3 -6 -6z"/>
<path d="M5896 9322 c-3 -6 -15 -8 -26 -5 -26 7 -26 -9 0 -24 17 -11 21 -10
31 8 11 21 6 39 -5 21z"/>
<path d="M3605 9311 c3 -5 2 -12 -2 -14 -5 -3 -7 -61 -6 -129 l1 -123 -44 -91
c-44 -92 -51 -114 -35 -114 21 0 62 45 87 95 24 50 27 68 30 193 4 152 0 192
-22 192 -9 0 -13 -4 -9 -9z"/>
<path d="M6188 9303 c6 -2 18 -2 25 0 6 3 1 5 -13 5 -14 0 -19 -2 -12 -5z"/>
<path d="M6341 9310 c-1 -3 -4 -20 -6 -38 -2 -22 1 -30 7 -24 5 5 8 22 5 38
-2 16 -5 27 -6 24z"/>
<path d="M5705 9291 c-11 -5 -15 -10 -9 -10 6 -1 14 -19 18 -41 3 -23 11 -51
18 -63 6 -12 14 -29 18 -37 4 -8 14 -16 22 -18 19 -4 108 77 108 99 0 10 8 20
18 22 11 3 7 5 -10 6 -15 0 -33 10 -41 21 -15 22 -108 36 -142 21z"/>
<path d="M5913 9284 c-7 -7 -9 -15 -4 -18 5 -3 14 1 20 8 15 18 0 28 -16 10z"/>
<path d="M3937 9279 c7 -7 15 -10 18 -7 3 3 -2 9 -12 12 -14 6 -15 5 -6 -5z"/>
<path d="M4720 9279 c0 -5 5 -7 10 -4 6 3 10 8 10 11 0 2 -4 4 -10 4 -5 0 -10
-5 -10 -11z"/>
<path d="M4820 9279 c0 -5 5 -7 10 -4 6 3 10 8 10 11 0 2 -4 4 -10 4 -5 0 -10
-5 -10 -11z"/>
<path d="M3828 9273 c7 -3 16 -2 19 1 4 3 -2 6 -13 5 -11 0 -14 -3 -6 -6z"/>
<path d="M4408 9263 c6 -2 18 -2 25 0 6 3 1 5 -13 5 -14 0 -19 -2 -12 -5z"/>
<path d="M5996 9261 c-3 -4 6 -8 20 -9 13 -1 24 0 24 2 0 7 -40 14 -44 7z"/>
<path d="M6711 9245 c-1 -16 -4 -40 -7 -52 -4 -13 -2 -23 4 -23 14 0 21 47 12
79 l-8 26 -1 -30z"/>
<path d="M5487 9231 c3 -11 13 -27 23 -36 18 -16 18 -15 2 19 -17 38 -34 49
-25 17z"/>
<path d="M6118 9243 c7 -3 16 -2 19 1 4 3 -2 6 -13 5 -11 0 -14 -3 -6 -6z"/>
<path d="M3970 9224 c0 -8 5 -12 10 -9 6 4 8 11 5 16 -9 14 -15 11 -15 -7z"/>
<path d="M4774 9198 c-23 -24 -51 -58 -63 -75 -26 -39 -30 -39 -59 -13 -12 11
-26 20 -32 20 -5 0 -10 5 -10 10 0 6 -4 10 -10 10 -5 0 -10 -7 -10 -15 0 -8 5
-15 10 -15 6 0 8 -11 4 -25 -4 -15 -2 -25 5 -25 6 0 11 -7 11 -15 0 -23 20
-27 83 -17 61 10 160 -1 165 -18 2 -5 9 -10 16 -10 6 0 19 -9 29 -20 15 -18
25 -19 74 -14 32 4 60 9 63 11 6 6 -78 79 -109 94 -58 29 -85 54 -104 98 -12
25 -20 49 -19 54 4 13 -3 8 -44 -35z"/>
<path d="M4420 9216 c0 -2 7 -9 15 -16 13 -11 14 -10 9 4 -5 14 -24 23 -24 12z"/>
<path d="M6587 9208 c4 -7 6 -22 4 -33 -2 -15 0 -17 9 -9 13 13 5 54 -11 54
-6 0 -7 -6 -2 -12z"/>
<path d="M5011 9189 c-16 -13 -18 -19 -8 -19 15 0 43 27 36 34 -2 3 -15 -4
-28 -15z"/>
<path d="M6097 9203 c-4 -3 -7 -11 -7 -17 0 -6 5 -5 12 2 6 6 9 14 7 17 -3 3
-9 2 -12 -2z"/>
<path d="M6197 9203 c-4 -3 -7 -11 -7 -17 0 -6 5 -5 12 2 6 6 9 14 7 17 -3 3
-9 2 -12 -2z"/>
<path d="M6320 9177 c0 -20 -6 -38 -12 -40 -8 -3 -8 -6 -2 -6 17 -1 46 36 42
55 -6 34 -28 27 -28 -9z"/>
<path d="M5299 9188 c-1 -7 -1 -17 0 -21 1 -5 -10 -22 -24 -39 -14 -16 -25
-35 -25 -41 1 -11 23 11 62 63 9 12 14 28 11 36 -6 17 -23 18 -24 2z"/>
<path d="M6804 9182 c-11 -9 -33 -34 -48 -55 -22 -30 -25 -41 -16 -52 7 -9 8
-20 3 -32 -5 -10 -8 -34 -7 -53 1 -19 2 -50 3 -68 2 -54 22 -24 35 53 1 6 7
22 14 37 6 15 14 50 18 77 4 28 13 56 20 62 15 12 19 49 7 49 -5 0 -17 -8 -29
-18z"/>
<path d="M6453 9175 c-3 -9 -3 -18 -1 -21 3 -3 8 4 11 16 6 23 -1 27 -10 5z"/>
<path d="M7030 9169 c0 -5 5 -7 10 -4 6 3 10 8 10 11 0 2 -4 4 -10 4 -5 0 -10
-5 -10 -11z"/>
<path d="M4434 9149 c3 -15 -1 -44 -10 -64 -10 -25 -12 -41 -6 -47 16 -16 36
97 22 119 -10 15 -10 14 -6 -8z"/>
<path d="M4260 9150 c0 -5 5 -10 10 -10 6 0 10 5 10 10 0 6 -4 10 -10 10 -5 0
-10 -4 -10 -10z"/>
<path d="M4670 9139 c0 -5 5 -7 10 -4 6 3 10 8 10 11 0 2 -4 4 -10 4 -5 0 -10
-5 -10 -11z"/>
<path d="M5487 9143 c-10 -9 -9 -23 2 -23 5 0 11 7 15 15 5 15 -5 20 -17 8z"/>
<path d="M6589 9148 c-6 -21 -5 -38 2 -38 5 0 9 9 9 20 0 16 -7 28 -11 18z"/>
<path d="M5529 9115 c-8 -9 -26 -17 -38 -20 -13 -2 -35 -12 -50 -21 -33 -21
-111 -105 -111 -120 0 -9 105 -64 123 -64 2 0 2 20 -1 45 -6 53 12 80 60 90
38 9 62 -13 64 -56 2 -31 -17 -36 -22 -5 -5 34 -13 46 -32 46 -20 0 -52 -29
-52 -48 0 -48 68 -102 129 -102 32 0 88 42 93 70 3 20 -46 119 -77 152 -14 15
-25 32 -25 38 0 15 -44 12 -61 -5z"/>
<path d="M3337 9088 c4 -18 8 -93 8 -165 0 -127 1 -132 17 -110 21 27 55 120
62 169 4 30 -1 45 -24 77 -16 22 -39 45 -51 51 -20 11 -21 10 -12 -22z"/>
<path d="M3990 9116 c0 -28 44 -205 56 -226 18 -29 60 -57 84 -54 8 1 21 2 27
3 21 2 8 64 -26 129 -32 60 -141 175 -141 148z"/>
<path d="M5794 9088 l-29 -31 32 22 c35 23 50 41 35 41 -4 0 -21 -14 -38 -32z"/>
<path d="M4370 9079 c-48 -63 -102 -150 -97 -155 2 -2 17 2 33 11 16 8 46 15
67 15 30 0 37 4 37 20 0 13 -10 24 -26 30 l-25 10 21 30 c12 17 20 40 18 52
-3 20 -5 19 -28 -13z"/>
<path d="M6313 9087 c-18 -39 -16 -55 3 -35 9 8 14 26 12 39 -3 23 -3 23 -15
-4z"/>
<path d="M7146 9074 c-4 -14 -5 -29 -2 -31 3 -3 8 7 12 21 3 15 4 29 1 32 -2
3 -8 -7 -11 -22z"/>
<path d="M4217 9069 c7 -7 15 -10 18 -7 3 3 -2 9 -12 12 -14 6 -15 5 -6 -5z"/>
<path d="M3855 9060 c3 -5 8 -10 11 -10 2 0 4 5 4 10 0 6 -5 10 -11 10 -5 0
-7 -4 -4 -10z"/>
<path d="M6047 9046 c-3 -7 6 -25 19 -39 13 -14 24 -31 24 -37 0 -6 4 -9 9 -6
9 6 -29 95 -40 96 -4 0 -9 -6 -12 -14z"/>
<path d="M6440 9050 c0 -5 5 -10 10 -10 6 0 10 5 10 10 0 6 -4 10 -10 10 -5 0
-10 -4 -10 -10z"/>
<path d="M6704 9045 c-4 -8 -3 -22 0 -31 4 -9 2 -22 -4 -29 -6 -7 -6 -28 -1
-56 9 -47 10 -42 16 64 4 66 0 82 -11 52z"/>
<path d="M3861 9014 c0 -11 3 -14 6 -6 3 7 2 16 -1 19 -3 4 -6 -2 -5 -13z"/>
<path d="M7116 9001 c-4 -7 -5 -15 -2 -18 9 -9 19 4 14 18 -4 11 -6 11 -12 0z"/>
<path d="M6260 8980 c0 -5 5 -10 10 -10 6 0 10 5 10 10 0 6 -4 10 -10 10 -5 0
-10 -4 -10 -10z"/>
<path d="M6460 8978 c0 -15 49 -78 61 -78 6 0 -1 15 -15 33 -15 19 -26 39 -26
45 0 7 -4 12 -10 12 -5 0 -10 -5 -10 -12z"/>
<path d="M5841 8941 c-14 -10 -19 -21 -13 -24 5 -4 17 4 26 18 20 30 18 30
-13 6z"/>
<path d="M6120 8951 c0 -9 30 -48 111 -144 28 -33 36 -37 63 -31 17 4 42 15
55 25 13 11 41 22 62 25 21 4 36 10 33 15 -7 12 -48 2 -104 -24 -50 -22 -74
-24 -96 -6 -16 13 -19 49 -4 49 6 0 10 5 10 11 0 7 -9 9 -24 5 -19 -5 -31 3
-65 40 -22 25 -41 41 -41 35z"/>
<path d="M6300 8938 c-31 -47 -32 -52 -3 -25 56 52 60 24 6 -37 -31 -33 -34
-41 -20 -44 9 -2 32 6 51 17 18 12 43 21 55 21 11 0 21 4 21 8 0 7 -84 82 -92
82 -2 0 -10 -10 -18 -22z"/>
<path d="M6925 8925 c-9 -20 -14 -40 -11 -43 3 -2 8 4 11 14 4 10 11 27 16 37
6 11 8 21 5 25 -3 3 -13 -12 -21 -33z"/>
<path d="M7520 8934 c0 -8 5 -12 10 -9 6 3 10 10 10 16 0 5 -4 9 -10 9 -5 0
-10 -7 -10 -16z"/>
<path d="M3220 8930 c0 -5 5 -10 10 -10 6 0 10 5 10 10 0 6 -4 10 -10 10 -5 0
-10 -4 -10 -10z"/>
<path d="M6546 8892 c-6 -10 30 -43 38 -35 11 11 6 22 -13 33 -11 5 -22 6 -25
2z"/>
<path d="M4195 8879 c-4 -6 -5 -13 -2 -16 7 -7 27 6 27 18 0 12 -17 12 -25 -2z"/>
<path d="M7335 8870 c-3 -5 -1 -10 4 -10 6 0 11 5 11 10 0 6 -2 10 -4 10 -3 0
-8 -4 -11 -10z"/>
<path d="M7031 8824 c-17 -38 -6 -42 14 -5 8 17 12 31 7 31 -5 0 -14 -12 -21
-26z"/>
<path d="M7320 8839 c0 -5 5 -7 10 -4 6 3 10 8 10 11 0 2 -4 4 -10 4 -5 0 -10
-5 -10 -11z"/>
<path d="M5673 8829 c14 -8 22 -8 30 0 8 8 3 11 -18 11 -26 -1 -28 -2 -12 -11z"/>
<path d="M3505 8797 c-20 -16 -9 -28 17 -18 11 4 14 11 10 19 -7 9 -12 9 -27
-1z"/>
<path d="M4075 8789 c-11 -16 -1 -19 13 -3 7 8 8 14 3 14 -5 0 -13 -5 -16 -11z"/>
<path d="M3291 8661 c-12 -16 -21 -37 -21 -47 0 -17 1 -17 18 1 23 25 45 75
32 75 -5 0 -18 -13 -29 -29z"/>
<path d="M6877 8683 c-4 -3 -7 -13 -7 -22 1 -13 3 -13 11 2 11 19 8 33 -4 20z"/>
<path d="M6723 8666 c-6 -7 -8 -18 -4 -24 4 -6 11 -1 18 14 12 26 5 31 -14 10z"/>
<path d="M7265 8667 c-4 -10 -5 -21 -1 -24 10 -10 18 4 13 24 -4 17 -4 17 -12
0z"/>
<path d="M3230 8601 c0 -29 15 -33 16 -5 1 13 -2 24 -7 24 -5 0 -9 -9 -9 -19z"/>
<path d="M6740 8607 c0 -10 5 -17 10 -17 6 0 10 -7 10 -15 0 -8 4 -23 9 -33 5
-9 13 -28 19 -42 6 -14 22 -51 37 -83 14 -32 25 -66 24 -75 -4 -30 32 -112 49
-112 7 0 12 3 10 8 -2 4 -10 19 -17 33 -11 22 -10 31 3 58 9 17 12 31 6 31 -5
0 -10 -4 -10 -10 0 -5 -4 -10 -9 -10 -10 0 -34 138 -25 151 3 6 -21 38 -55 71
-39 39 -61 55 -61 45z"/>
<path d="M6977 8557 c-11 -29 -9 -43 4 -30 6 6 9 19 7 29 -3 18 -4 18 -11 1z"/>
<path d="M6970 8494 c0 -8 5 -12 10 -9 6 3 10 10 10 16 0 5 -4 9 -10 9 -5 0
-10 -7 -10 -16z"/>
<path d="M6971 8420 c0 -27 4 -50 9 -50 9 0 7 86 -2 96 -3 2 -6 -18 -7 -46z"/>
<path d="M3210 8389 c-7 -11 -9 -23 -6 -26 3 -3 9 2 12 11 5 13 9 14 14 6 4
-7 10 -8 13 -4 3 5 -1 15 -9 22 -11 10 -15 8 -24 -9z"/>
<path d="M7080 8399 c0 -5 5 -7 10 -4 6 3 10 8 10 11 0 2 -4 4 -10 4 -5 0 -10
-5 -10 -11z"/>
<path d="M7476 8353 c-15 -25 -24 -48 -22 -51 3 -2 16 19 30 47 33 64 27 67
-8 4z"/>
<path d="M6977 8353 c-8 -13 12 -53 27 -53 4 0 4 6 -2 13 -5 6 -12 21 -14 32
-2 14 -6 16 -11 8z"/>
<path d="M7090 8324 c0 -8 5 -12 10 -9 6 3 10 10 10 16 0 5 -4 9 -10 9 -5 0
-10 -7 -10 -16z"/>
<path d="M3218 8323 c7 -3 16 -2 19 1 4 3 -2 6 -13 5 -11 0 -14 -3 -6 -6z"/>
<path d="M7127 8323 c-4 -3 -7 -11 -7 -17 0 -6 5 -5 12 2 6 6 9 14 7 17 -3 3
-9 2 -12 -2z"/>
<path d="M2860 8270 c0 -5 5 -10 10 -10 6 0 10 5 10 10 0 6 -4 10 -10 10 -5 0
-10 -4 -10 -10z"/>
<path d="M3015 8260 c3 -5 8 -10 11 -10 2 0 4 5 4 10 0 6 -5 10 -11 10 -5 0
-7 -4 -4 -10z"/>
<path d="M7100 8260 c0 -5 7 -10 16 -10 8 0 12 5 9 10 -3 6 -10 10 -16 10 -5
0 -9 -4 -9 -10z"/>
<path d="M7412 8248 c-14 -14 -16 -28 -3 -28 9 0 24 30 18 36 -2 2 -9 -2 -15
-8z"/>
<path d="M7225 8179 c-4 -6 -5 -13 -2 -16 7 -7 27 6 27 18 0 12 -17 12 -25 -2z"/>
<path d="M2947 8143 c-4 -3 -7 -11 -7 -17 0 -6 5 -5 12 2 6 6 9 14 7 17 -3 3
-9 2 -12 -2z"/>
<path d="M2821 8073 c-1 -6 -4 -20 -7 -30 -5 -17 -5 -17 6 0 6 10 9 23 6 30
-3 9 -5 9 -5 0z"/>
<path d="M2925 7960 c-3 -5 -1 -10 4 -10 6 0 11 5 11 10 0 6 -2 10 -4 10 -3 0
-8 -4 -11 -10z"/>
<path d="M2800 7860 c-9 -6 -10 -10 -3 -10 6 0 15 5 18 10 8 12 4 12 -15 0z"/>
<path d="M2731 7826 c-10 -12 -8 -13 8 -9 12 3 21 9 21 14 0 14 -16 11 -29 -5z"/>
<path d="M2610 7770 c-8 -5 -12 -12 -9 -15 8 -8 39 5 39 16 0 11 -11 11 -30
-1z"/>
<path d="M2554 7736 c-10 -8 -16 -17 -13 -20 3 -3 14 1 25 8 10 8 16 17 13 20
-3 3 -14 -1 -25 -8z"/>
<path d="M8160 7551 c0 -5 5 -13 10 -16 6 -3 10 -2 10 4 0 5 -4 13 -10 16 -5
3 -10 2 -10 -4z"/>
<path d="M3044 10264 c-18 -14 -18 -15 4 -4 12 6 22 13 22 15 0 8 -5 6 -26
-11z"/>
<path d="M3015 10180 c3 -5 8 -10 11 -10 2 0 4 5 4 10 0 6 -5 10 -11 10 -5 0
-7 -4 -4 -10z"/>
<path d="M2955 10159 c-4 -6 -5 -12 -2 -15 2 -3 7 2 10 11 7 17 1 20 -8 4z"/>
<path d="M3000 10141 c-12 -24 -13 -34 -1 -27 9 6 22 46 15 46 -2 0 -8 -9 -14
-19z"/>
<path d="M2920 10109 c0 -5 5 -7 10 -4 6 3 10 8 10 11 0 2 -4 4 -10 4 -5 0
-10 -5 -10 -11z"/>
<path d="M2965 10079 c-10 -30 -2 -32 12 -3 6 13 7 24 3 24 -5 0 -12 -9 -15
-21z"/>
<path d="M3031 10053 c-5 -10 -12 -15 -16 -11 -6 6 -95 -83 -95 -96 0 -4 3 -5
8 -3 4 3 6 -32 4 -77 -3 -75 10 -147 25 -132 3 3 9 27 13 53 6 35 4 51 -7 61
-8 8 -11 22 -7 31 4 9 6 24 6 35 -1 10 2 16 5 12 3 -3 18 11 33 32 18 25 23
39 16 44 -7 5 -5 8 5 8 18 0 43 46 29 55 -5 3 -13 -3 -19 -12z m-59 -105 c-7
-7 -12 -8 -12 -2 0 14 12 26 19 19 2 -3 -1 -11 -7 -17z"/>
<path d="M2832 9998 c-10 -13 -16 -41 -13 -68 1 -12 5 -11 16 4 29 38 17 -46
-15 -112 -17 -35 -27 -69 -23 -78 8 -20 87 180 84 215 -1 24 -17 51 -31 51 -4
0 -12 -6 -18 -12z"/>
<path d="M1279 7417 c-14 -56 -24 -65 -49 -42 -16 15 -22 15 -35 5 -8 -7 -24
-10 -34 -7 -14 3 -21 -2 -26 -20 -3 -14 -1 -30 4 -37 8 -9 6 -18 -3 -31 -11
-16 -17 -17 -29 -7 -12 10 -16 10 -21 -3 -3 -8 -16 -15 -28 -16 -23 0 -23 0
-2 -9 12 -4 23 -14 26 -22 7 -19 -18 -74 -43 -91 -26 -19 -19 -48 17 -72 20
-13 24 -22 19 -42 -7 -29 9 -53 36 -53 11 0 16 -5 13 -14 -6 -14 36 -31 47
-18 3 4 16 36 28 71 24 66 69 147 123 219 27 36 30 45 18 52 -12 8 -10 10 8
10 13 0 41 15 62 32 21 18 47 33 57 33 10 0 17 6 15 13 -1 8 2 11 8 7 5 -3 18
-1 27 4 11 6 13 11 5 11 -7 0 -18 11 -24 25 -6 14 -15 25 -20 25 -5 0 -6 -5
-2 -12 5 -8 2 -9 -11 -4 -11 4 -22 2 -26 -6 -6 -9 -13 -9 -31 -1 -13 7 -40 14
-62 17 -21 2 -42 10 -47 17 -5 9 -12 -3 -20 -34z m81 -17 c0 -5 -8 -10 -17
-10 -15 0 -16 2 -3 10 19 12 20 12 20 0z m-180 -165 c0 -8 -7 -15 -16 -15 -14
0 -14 3 -4 15 7 8 14 15 16 15 2 0 4 -7 4 -15z m96 -2 c-10 -3 -30 -17 -43
-31 -14 -15 -21 -20 -17 -12 15 31 38 50 58 49 19 -1 19 -2 2 -6z"/>
<path d="M9282 6810 c-10 -16 -10 -20 2 -20 17 0 38 24 29 33 -10 11 -17 8
-31 -13z"/>
<path d="M1090 6685 c-10 -12 -10 -15 3 -15 8 0 20 7 27 15 10 12 10 15 -3 15
-8 0 -20 -7 -27 -15z"/>
<path d="M1156 6603 c4 -16 8 -31 10 -34 6 -11 44 -18 44 -8 0 5 -5 9 -11 9
-5 0 -15 14 -20 30 -14 38 -32 40 -23 3z"/>
<path d="M3288 6513 c7 -3 16 -2 19 1 4 3 -2 6 -13 5 -11 0 -14 -3 -6 -6z"/>
<path d="M9010 6498 c0 -21 20 -24 38 -6 19 19 14 28 -13 26 -17 -2 -25 -8
-25 -20z"/>
<path d="M2286 6408 c3 -5 -3 -12 -15 -15 -12 -3 -21 -9 -21 -13 0 -33 100
-39 120 -7 6 10 10 20 8 21 -12 9 -96 21 -92 14z"/>
<path d="M6525 6354 c3 -20 11 -47 17 -60 12 -26 50 -43 56 -25 2 6 10 17 17
24 11 11 6 21 -26 55 -49 54 -74 56 -64 6z"/>
<path d="M6470 6350 c0 -11 -4 -20 -10 -20 -5 0 -10 -13 -10 -29 0 -17 -4 -33
-10 -36 -16 -10 -12 -25 8 -25 11 0 21 13 30 40 15 48 16 90 2 90 -5 0 -10 -9
-10 -20z"/>
<path d="M5450 6244 c7 -7 24 -14 38 -14 33 0 18 17 -21 24 -24 4 -27 3 -17
-10z"/>
<path d="M2760 6138 c0 -25 30 -80 62 -114 19 -21 19 -24 2 -83 -33 -120 -7
-394 55 -579 12 -35 19 -67 16 -72 -3 -5 -24 -60 -46 -122 -100 -278 -128
-431 -94 -497 14 -27 16 -48 11 -105 -6 -60 -3 -82 19 -144 17 -51 25 -95 25
-142 0 -55 4 -73 23 -96 17 -22 21 -39 19 -74 -3 -48 31 -195 68 -293 12 -32
42 -88 67 -125 25 -37 52 -80 60 -97 9 -16 46 -70 82 -120 37 -49 70 -96 74
-102 10 -16 -26 -166 -58 -242 -37 -89 -85 -263 -85 -309 0 -95 91 -64 216 73
43 48 108 116 143 152 l64 64 24 -23 c14 -13 47 -61 75 -108 92 -156 205 -274
374 -388 146 -99 501 -227 799 -287 306 -62 680 -60 934 5 229 58 380 131 601
289 176 127 308 268 375 401 22 44 77 119 88 120 11 0 49 -39 182 -183 115
-125 176 -171 222 -165 24 3 28 8 31 39 4 46 -34 190 -92 351 -25 70 -48 149
-52 176 -7 57 2 75 78 160 26 29 56 73 67 97 11 25 35 65 55 91 62 81 136 304
136 412 0 40 6 62 23 85 18 26 22 46 23 107 1 50 9 97 24 140 18 51 21 78 17
127 -5 46 -1 75 13 115 30 86 12 185 -86 470 l-57 163 17 60 c65 237 84 443
52 570 -14 56 -13 61 4 80 53 58 80 145 44 145 -24 0 -56 -20 -92 -56 -18 -19
-39 -34 -46 -34 -32 0 -68 -85 -81 -187 -2 -23 -9 -61 -15 -85 -6 -24 -13
-131 -17 -239 l-6 -197 -41 -12 c-23 -7 -47 -17 -54 -23 -25 -20 -823 -14
-1047 8 -74 8 -281 34 -350 46 -358 58 -600 71 -815 43 -99 -14 -137 -18 -235
-29 -22 -2 -110 -13 -195 -25 -338 -44 -531 -56 -985 -59 l-300 -1 -69 28 -69
28 -2 165 c-2 157 -30 396 -56 475 -12 38 -45 69 -81 78 -15 3 -30 15 -33 27
-7 20 -59 49 -90 49 -9 0 -15 -9 -15 -22z m179 -133 c11 -14 24 -49 31 -77 13
-64 26 -466 16 -530 -6 -42 -10 -48 -31 -48 -61 0 -101 148 -111 405 -7 158 1
217 31 249 30 32 39 32 64 1z m4404 -2 c30 -34 40 -108 34 -247 -11 -228 -52
-396 -96 -396 -28 0 -35 76 -27 281 9 217 21 322 42 354 19 30 26 31 47 8z
m-4213 -765 c0 -5 -7 -3 -15 6 -8 8 -15 18 -15 22 0 3 7 1 15 -6 8 -7 15 -17
15 -22z m40 -21 c0 -5 -4 -5 -10 -2 -5 3 -10 14 -10 23 0 15 2 15 10 2 5 -8
10 -19 10 -23z m3620 -197 c0 -5 -7 -10 -16 -10 -8 0 -12 5 -9 10 3 6 10 10
16 10 5 0 9 -4 9 -10z m517 -31 c1 -46 -11 -41 -22 9 -5 23 -3 32 7 32 8 0 14
-14 15 -41z m-490 4 c-4 -3 -2 -12 3 -18 8 -9 6 -14 -5 -19 -11 -4 -15 1 -15
19 0 14 5 25 12 25 6 0 8 -3 5 -7z m43 -63 c0 -5 -5 -10 -11 -10 -5 0 -7 5 -4
10 3 6 8 10 11 10 2 0 4 -4 4 -10z m460 -15 c0 -1 -7 -8 -15 -15 -13 -10 -15
-9 -15 8 0 15 5 20 15 16 8 -4 15 -7 15 -9z m-65 -16 c4 -11 4 -23 1 -26 -3
-4 -6 2 -6 12 0 14 -3 15 -15 5 -8 -7 -12 -17 -8 -24 3 -6 2 -7 -2 -3 -14 12
-15 41 -2 49 19 12 25 10 32 -13z m56 -77 l-6 -43 -14 32 c-12 28 -12 33 3 41
9 5 13 15 10 21 -5 8 -4 9 3 2 6 -6 8 -28 4 -53z m-79 -14 c-6 -6 -7 0 -4 19
5 21 7 23 10 9 2 -10 0 -22 -6 -28z m-2916 -1 c3 -23 -3 -21 -17 4 -8 17 -8
20 2 17 7 -2 13 -12 15 -21z m1621 -13 c-3 -3 -12 -4 -19 -1 -8 3 -5 6 6 6 11
1 17 -2 13 -5z m1362 -44 c11 -24 11 -24 -3 -6 -9 11 -16 24 -16 30 0 12 5 7
19 -24z m-2534 -30 c3 -5 -1 -10 -9 -10 -9 0 -16 5 -16 10 0 6 4 10 9 10 6 0
13 -4 16 -10z m2350 -10 c3 -5 1 -10 -4 -10 -6 0 -11 5 -11 10 0 6 2 10 4 10
3 0 8 -4 11 -10z m168 -20 c6 -22 5 -23 -17 -14 -8 3 -12 12 -9 20 7 20 20 17
26 -6z m-13 -82 c0 -19 -16 -5 -17 14 -2 18 0 20 7 8 5 -8 10 -18 10 -22z
m-32 -77 c-7 -12 -16 -21 -21 -21 -8 0 0 17 18 36 16 18 18 8 3 -15z m22 -101
c0 -5 -4 -10 -10 -10 -5 0 -10 5 -10 10 0 6 5 10 10 10 6 0 10 -4 10 -10z m54
-92 c-10 -18 -19 -27 -22 -20 -4 14 26 67 35 59 2 -3 -3 -20 -13 -39z m26 -28
c0 -26 -2 -29 -14 -18 -10 9 -11 18 -5 31 14 25 19 21 19 -13z m-6 -55 c-4 -8
-8 -15 -10 -15 -2 0 -4 7 -4 15 0 8 4 15 10 15 5 0 7 -7 4 -15z m-79 -35 c-4
-6 6 -10 24 -10 16 0 32 6 34 13 4 7 6 6 6 -4 1 -24 -28 -47 -39 -30 -6 11 -9
11 -15 0 -6 -9 -10 -8 -15 7 -7 18 -4 34 6 34 3 0 2 -4 -1 -10z m-128 -25 c9
-24 -1 -27 -15 -5 -8 13 -8 20 -2 20 6 0 13 -7 17 -15z m-246 -38 c-8 -8 -11
-7 -11 4 0 20 13 34 18 19 3 -7 -1 -17 -7 -23z m-131 -27 c0 -5 -5 -10 -11
-10 -5 0 -7 5 -4 10 3 6 8 10 11 10 2 0 4 -4 4 -10z m311 -7 c-5 -10 -16 -27
-25 -38 -14 -18 -15 -18 -16 -2 0 9 4 17 9 17 5 0 13 9 16 20 3 11 11 20 16
20 6 0 6 -6 0 -17z m-51 -80 c0 -5 -5 -15 -10 -23 -8 -12 -10 -11 -10 8 0 12
5 22 10 22 6 0 10 -3 10 -7z m-32 -62 c-7 -11 -16 -18 -20 -15 -4 3 -2 11 5
19 18 21 29 18 15 -4z m-31 -46 c0 -8 -4 -15 -9 -15 -10 0 -11 14 -1 23 9 10
10 9 10 -8z m-37 -99 c0 -3 -4 -8 -10 -11 -5 -3 -10 -1 -10 4 0 6 5 11 10 11
6 0 10 -2 10 -4z m-55 -16 c3 -5 1 -10 -4 -10 -6 0 -11 5 -11 10 0 6 2 10 4
10 3 0 8 -4 11 -10z m15 -75 c-7 -8 -17 -15 -23 -15 -6 0 -2 7 9 15 25 19 30
19 14 0z m-28 -67 c-7 -7 -12 -8 -12 -2 0 14 12 26 19 19 2 -3 -1 -11 -7 -17z
m154 -315 c25 -119 58 -231 79 -273 14 -27 39 -97 56 -156 28 -96 29 -108 15
-122 -25 -26 -56 -1 -213 170 -79 87 -148 156 -153 153 -5 -3 -11 -2 -14 3 -5
9 37 63 127 165 29 32 56 65 60 73 13 23 36 16 43 -13z m-3641 -128 c49 -41
92 -81 96 -88 8 -14 -306 -348 -327 -347 -6 0 -17 7 -24 15 -15 18 6 114 46
210 14 33 40 103 59 155 42 120 46 130 54 130 3 0 46 -34 96 -75z"/>
</g>
</svg>
