<?xml version="1.0" standalone="no"?>
<!DOCTYPE svg PUBLIC "-//W3C//DTD SVG 20010904//EN"
 "http://www.w3.org/TR/2001/REC-SVG-20010904/DTD/svg10.dtd">
<svg version="1.0" xmlns="http://www.w3.org/2000/svg"
 width="1180.000000pt" height="1180.000000pt" viewBox="0 0 1180.000000 1180.000000"
 preserveAspectRatio="xMidYMid meet">

<g transform="translate(0.000000,1180.000000) scale(0.100000,-0.100000)"
fill="#000000" stroke="none">
<path d="M5915 11483 c-17 -3 -149 -42 -205 -60 -8 -2 -16 -4 -17 -4 -1 0 -30
-11 -63 -24 -141 -55 -316 -205 -402 -345 -51 -83 -61 -117 -78 -265 -6 -55
-14 -107 -17 -115 -3 -8 -7 -22 -7 -30 -1 -9 -13 -16 -34 -18 -33 -3 -33 -4
-18 -27 l15 -23 -70 -4 c-39 -2 -76 0 -82 4 -16 10 -36 -2 -30 -18 3 -9 13
-12 24 -9 14 5 17 2 13 -9 -3 -9 -12 -12 -21 -9 -12 5 -14 3 -8 -7 6 -10 -4
-11 -49 -6 -31 4 -56 4 -56 -1 1 -16 46 -41 88 -48 23 -4 44 -10 47 -15 7 -11
-128 -40 -156 -33 -22 6 -23 5 -10 -11 8 -9 11 -20 7 -24 -8 -7 -13 -9 -42
-11 -13 -1 -15 -8 -10 -31 4 -23 2 -29 -7 -24 -6 4 2 -8 20 -27 18 -19 36 -45
42 -59 7 -17 10 -20 10 -7 1 9 8 17 16 17 8 0 15 -3 15 -7 -1 -15 -27 -43 -33
-36 -4 3 -7 -6 -7 -21 0 -15 -5 -36 -10 -46 -8 -16 -15 -18 -35 -10 -27 10
-33 2 -12 -19 10 -10 9 -11 -3 -6 -32 12 -19 -34 18 -65 20 -16 31 -30 25 -30
-7 0 -10 -6 -7 -14 3 -7 -6 -26 -21 -42 -14 -15 -27 -37 -30 -48 -71 -350 -71
-344 -46 -419 12 -35 26 -88 31 -118 5 -30 16 -83 24 -119 8 -36 11 -69 6 -75
-4 -5 -11 -26 -15 -45 -4 -19 -38 -99 -75 -177 -48 -100 -82 -156 -115 -192
-45 -48 -59 -90 -42 -119 14 -22 -5 -72 -29 -78 -13 -3 -24 -10 -24 -14 0 -5
-8 -9 -17 -8 -10 0 -67 -5 -128 -10 -112 -11 -151 -21 -246 -65 -30 -13 -69
-30 -87 -37 -36 -14 -105 -102 -164 -210 -53 -96 -106 -246 -123 -352 -9 -51
-29 -140 -45 -198 -16 -58 -34 -125 -39 -150 -10 -48 -65 -453 -76 -560 -4
-36 -16 -96 -28 -135 -24 -82 -27 -202 -7 -285 15 -63 34 -106 108 -242 86
-157 161 -209 383 -269 82 -22 129 -30 166 -27 l53 5 5 -36 c3 -20 8 -49 11
-66 2 -16 9 -109 14 -205 9 -161 8 -182 -9 -245 -31 -111 -59 -279 -71 -420
-13 -154 -21 -211 -60 -410 -17 -82 -37 -197 -45 -255 -8 -58 -22 -139 -31
-180 -8 -41 -19 -160 -24 -265 -7 -159 -14 -217 -44 -358 -20 -92 -40 -222
-46 -290 -5 -67 -14 -149 -20 -182 -13 -80 -25 -214 -23 -244 1 -13 -2 -32 -7
-42 -7 -13 -3 -40 15 -96 29 -90 31 -144 10 -239 -8 -38 -21 -108 -29 -157
l-13 -87 25 -27 c24 -26 24 -28 17 -147 -3 -67 -10 -150 -15 -186 -12 -89 -12
-1192 0 -1415 5 -99 15 -240 22 -313 l12 -132 701 0 701 0 12 47 c6 27 21 91
33 143 37 165 69 290 113 445 24 83 51 186 61 230 9 44 31 129 47 188 16 60
32 140 35 178 5 59 8 67 18 52 7 -10 16 -59 20 -108 3 -50 14 -115 22 -145 9
-30 16 -88 15 -128 0 -53 6 -91 24 -142 17 -50 24 -91 24 -146 0 -49 8 -101
21 -146 22 -70 22 -129 3 -303 -3 -35 1 -67 14 -105 l19 -55 650 -3 650 -2 12
82 c24 167 64 393 71 401 8 9 35 16 154 42 73 16 100 30 90 47 -4 6 -10 5 -15
-3 -7 -11 -9 -11 -9 -1 0 9 -7 11 -20 7 -13 -4 -28 2 -45 19 -20 21 -33 25
-61 21 -24 -3 -40 1 -53 13 -10 9 -26 22 -37 28 -22 13 -21 43 4 89 8 17 21
53 28 80 7 28 22 84 35 125 18 62 20 86 14 145 -4 38 -7 82 -7 97 1 15 -3 30
-7 33 -5 3 -7 13 -4 24 2 10 -4 36 -15 58 -11 21 -23 56 -27 76 -4 20 -11 37
-16 37 -5 0 -6 6 -3 14 3 7 -2 16 -10 19 -10 4 -13 1 -9 -9 3 -7 1 -14 -5 -14
-5 0 -12 -26 -16 -59 -4 -32 -9 -61 -12 -64 -3 -3 -7 -28 -9 -55 -2 -27 -11
-76 -19 -109 -9 -34 -16 -89 -16 -124 -1 -72 -24 -214 -38 -232 -5 -7 -12 -24
-16 -39 -8 -36 -46 -61 -80 -52 -26 6 -36 24 -13 24 8 0 7 4 -3 10 -12 8 -12
12 -2 18 13 9 11 59 -3 82 -6 10 -1 12 18 8 24 -5 25 -3 14 21 -6 14 -16 29
-22 33 -6 5 -5 8 4 8 7 0 11 6 7 15 -3 9 0 15 10 15 12 0 14 5 9 18 -4 9 -9
24 -10 32 -3 19 -14 50 -26 73 -6 12 -5 25 3 40 13 24 14 32 22 187 3 62 13
130 25 165 16 51 17 61 4 65 -12 5 -10 9 6 24 23 21 28 62 10 68 -9 3 -8 11 1
28 7 14 18 44 24 68 l11 44 27 -27 c26 -26 28 -26 50 -9 45 35 99 106 96 128
-4 25 -42 34 -64 15 -12 -10 -19 -8 -35 9 -10 12 -16 20 -13 17 4 -2 15 0 25
6 26 13 98 0 109 -21 6 -11 0 -43 -21 -104 -18 -52 -29 -101 -27 -124 3 -34 6
-37 36 -40 24 -2 32 -8 32 -22 0 -13 9 -22 25 -26 14 -3 25 -10 25 -14 0 -4 6
-8 13 -7 49 2 78 -6 101 -28 15 -14 31 -25 37 -25 18 0 21 30 6 67 l-16 38 0
-38 c-1 -25 -5 -36 -12 -31 -6 3 -9 19 -7 35 3 20 0 29 -9 29 -8 0 -16 7 -20
16 -3 8 -12 13 -19 10 -8 -3 -14 -1 -14 4 0 16 38 11 48 -6 6 -11 12 -13 16
-6 3 6 2 13 -4 17 -22 13 -8 33 28 39 30 5 40 2 55 -15 22 -27 23 -46 1 -24
-28 27 -43 1 -21 -36 9 -17 17 -39 17 -49 0 -10 7 -26 16 -35 15 -14 17 -14
30 2 20 27 17 65 -9 114 -13 24 -22 49 -20 56 7 20 -58 55 -89 49 -26 -5 -27
-4 -21 25 4 23 1 35 -16 50 -35 33 -27 46 27 44 26 0 60 -5 75 -9 27 -8 28
-10 22 -61 -6 -41 -3 -60 13 -92 23 -44 62 -69 81 -50 9 9 16 8 31 -1 11 -6
23 -12 28 -12 5 0 7 36 4 80 l-4 80 43 0 c70 0 74 7 71 105 -2 46 4 156 13
242 15 138 20 164 45 208 20 36 31 74 39 136 5 47 19 107 29 135 34 85 72 334
72 469 0 22 7 65 16 95 8 30 19 109 24 175 5 66 11 140 14 165 17 145 47 472
52 550 7 134 25 323 38 410 8 52 22 147 31 210 8 63 20 138 25 165 5 28 21
154 35 280 13 127 36 328 50 448 78 683 106 1344 70 1672 -61 557 -79 657
-141 775 -39 75 -81 123 -145 167 -47 33 -390 216 -480 256 -105 48 -267 117
-273 117 -4 0 -52 30 -107 66 -62 40 -105 75 -112 92 -14 31 -39 55 -80 78
-24 13 -48 14 -130 8 -57 -4 -93 -10 -83 -14 14 -5 16 -9 7 -14 -6 -4 -9 -16
-6 -26 4 -12 0 -22 -12 -29 -11 -5 -20 -22 -21 -40 -3 -35 2 -38 26 -15 14 15
14 17 -2 26 -17 9 -16 11 5 22 13 7 23 20 23 29 -1 9 2 17 8 17 5 0 6 5 2 11
-4 8 0 8 15 0 25 -14 28 -23 4 -14 -15 5 -16 3 -5 -8 15 -16 16 -33 2 -24 -6
4 -17 1 -25 -5 -16 -13 -21 -35 -6 -26 9 6 22 -17 20 -37 0 -7 -4 -3 -9 8 -8
19 -9 19 -9 -3 -1 -13 -6 -33 -13 -45 -19 -35 -17 -85 4 -90 10 -3 21 -13 24
-22 9 -23 -13 -68 -31 -61 -9 3 -12 0 -9 -9 6 -16 -21 -44 -87 -91 -72 -52
-154 -87 -274 -119 -63 -16 -179 -29 -149 -16 25 11 34 29 30 65 -2 14 1 23 5
20 5 -3 9 -14 9 -24 0 -34 65 -53 100 -30 11 7 2 8 -27 4 -52 -8 -57 7 -9 30
43 20 50 20 42 0 -6 -15 -4 -15 10 -3 9 7 12 15 6 17 -7 2 -9 22 -5 54 5 37 3
49 -5 44 -7 -4 -12 -1 -12 9 0 9 -4 13 -10 10 -5 -3 -10 -4 -10 0 0 14 52 25
71 14 18 -9 19 -8 7 10 -9 15 -16 17 -31 9 -26 -14 -33 -3 -17 29 19 39 20 66
4 52 -19 -16 -64 -114 -64 -139 0 -12 -5 -18 -10 -15 -6 3 -13 -1 -16 -10 -11
-27 -61 -47 -102 -39 -48 8 -89 33 -95 55 -7 24 3 31 21 16 13 -10 14 -9 8 1
-4 7 5 28 24 52 26 33 38 40 68 41 38 1 36 3 -11 14 -21 4 -26 9 -20 18 6 7
11 34 12 60 1 26 9 60 16 74 17 32 12 41 -10 23 -9 -7 -19 -10 -23 -6 -4 4 12
25 36 47 51 48 55 60 8 24 -25 -19 -35 -22 -39 -13 -4 10 -9 8 -17 -5 -9 -13
-15 -15 -31 -7 -28 15 -12 39 58 86 32 21 60 42 63 45 8 10 48 29 59 29 6 0
11 -11 11 -23 0 -13 9 -32 20 -42 11 -10 22 -26 25 -36 4 -11 10 -19 15 -19 5
0 4 14 -1 30 -6 17 -15 30 -21 30 -5 0 -6 4 -3 10 3 5 1 19 -5 30 -18 33 -5
56 29 54 25 -2 32 4 46 32 9 19 15 44 13 56 -3 18 -11 12 -63 -39 -57 -55 -90
-78 -107 -75 -5 1 -8 -2 -8 -7 0 -12 -105 -71 -125 -71 -8 0 -15 -6 -15 -12 0
-10 -3 -9 -9 1 -7 10 -13 11 -31 1 -15 -8 -25 -9 -29 -2 -3 6 -30 9 -58 7 -30
-2 -55 1 -59 7 -4 7 -10 5 -15 -3 -7 -11 -10 -9 -15 9 -6 20 -17 26 -51 25 -6
0 -14 12 -17 28 -3 18 -10 27 -19 24 -14 -6 -62 43 -53 53 3 3 -1 13 -9 23
-15 15 -27 100 -15 98 3 0 14 -4 25 -8 14 -6 29 -2 48 11 19 14 39 19 62 16
19 -2 37 1 39 7 3 7 7 6 13 -1 13 -17 76 -10 100 11 21 18 21 20 6 37 -9 10
-22 18 -30 18 -7 0 -13 5 -13 10 0 6 -7 10 -15 10 -8 0 -15 4 -15 8 0 4 -10 8
-22 9 -61 1 -64 2 -66 33 -2 22 2 30 14 30 12 0 15 -7 11 -25 -3 -16 0 -24 7
-22 6 2 12 14 14 26 3 18 9 22 28 18 13 -2 27 0 30 5 3 5 11 4 19 -2 10 -8 19
-8 36 0 14 8 51 10 105 7 138 -9 98 16 -48 30 -32 2 -58 9 -58 14 0 4 -7 6
-15 3 -9 -4 -34 6 -56 20 -25 17 -47 25 -60 21 -10 -4 -19 -2 -19 3 0 5 9 12
20 15 14 3 20 14 20 31 0 14 4 26 9 26 5 0 7 8 5 18 -4 19 11 41 40 58 11 5
26 20 34 33 15 21 14 23 -4 21 -36 -4 -49 0 -77 24 -24 21 -27 29 -25 82 1 33
5 66 9 75 9 18 19 151 22 279 1 61 -4 93 -15 115 -18 33 -55 70 -78 77 -10 4
-3 11 22 23 25 12 34 23 30 33 -3 10 -1 13 6 8 8 -4 10 -2 6 8 -3 9 2 17 15
21 12 3 21 10 21 14 0 5 11 21 25 37 14 16 30 35 36 42 19 23 23 4 5 -23 -14
-22 -15 -25 -1 -25 8 0 15 5 15 11 0 6 7 8 15 5 19 -7 105 15 105 26 0 4 8 8
17 8 9 0 14 -3 10 -6 -3 -3 10 -37 30 -75 43 -85 45 -99 19 -120 -18 -15 -19
-19 -7 -42 13 -24 19 -26 65 -22 35 2 65 -3 95 -16 51 -22 49 -37 -3 -19 -41
13 -101 1 -138 -29 -30 -25 -17 -39 16 -17 32 20 36 20 36 -2 0 -10 7 -27 15
-39 12 -17 12 -23 2 -27 -6 -3 2 -4 18 -1 17 3 37 7 46 9 9 1 28 10 42 19 32
21 38 21 31 3 -8 -20 22 -45 47 -39 11 3 24 16 29 27 7 19 14 21 44 18 20 -2
42 1 50 7 17 14 46 -10 46 -37 0 -9 14 -58 32 -108 l32 -92 -27 -97 c-27 -94
-72 -177 -103 -189 -18 -7 -18 -36 0 -36 8 0 18 5 21 10 3 6 13 10 21 10 11 0
13 -6 9 -20 -4 -12 -2 -20 5 -20 6 0 8 -4 5 -10 -3 -5 -2 -10 4 -10 5 0 12 14
16 30 4 17 10 30 14 30 4 0 2 -21 -4 -47 -18 -69 -8 -71 31 -7 6 10 15 14 23
10 9 -6 9 -11 0 -22 -9 -11 -9 -18 -1 -26 7 -7 22 2 51 32 23 24 41 48 41 53
0 5 7 6 15 3 8 -3 22 -9 30 -12 9 -4 15 -1 15 8 0 7 10 20 22 28 35 24 78 66
78 77 0 6 11 18 24 26 20 14 43 73 32 84 -2 3 -19 -3 -37 -13 -28 -14 -40 -15
-83 -5 -57 13 -55 15 -88 -73 -21 -54 -57 -90 -74 -73 -8 8 67 136 95 161 12
11 21 24 21 31 0 6 6 17 12 23 7 7 13 33 14 59 2 64 23 124 43 121 10 -2 17 6
19 20 5 36 27 19 24 -18 -2 -17 0 -30 5 -27 4 3 9 47 11 98 2 51 6 98 10 103
3 6 5 22 4 36 -1 14 2 32 8 40 8 13 16 9 46 -22 44 -47 55 -49 20 -4 -37 49
-50 116 -36 196 6 36 12 76 14 89 7 47 -23 252 -48 334 -14 45 -31 98 -36 117
-27 86 -86 186 -150 250 -101 101 -220 198 -275 225 -49 24 -176 55 -225 55
-13 0 -60 18 -105 39 -44 22 -104 44 -133 50 -52 11 -158 13 -197 4z m-1045
-1352 c-11 -22 -60 -30 -60 -10 0 6 7 8 17 5 10 -4 14 -4 10 0 -4 5 3 13 15
20 28 15 33 12 18 -15z m269 14 c25 -13 60 -69 49 -80 -9 -10 -160 -75 -173
-75 -7 0 -21 -7 -29 -16 -24 -23 -121 -14 -149 15 -11 11 -18 24 -14 28 4 3
13 1 19 -5 16 -16 28 -15 28 3 0 9 6 12 15 9 20 -8 19 13 -1 24 -14 8 -10 12
20 22 21 6 47 10 58 7 13 -4 35 4 57 19 19 13 41 24 48 24 7 0 13 5 13 10 0 6
-4 10 -10 10 -5 0 -10 5 -10 10 0 15 47 12 79 -5z m661 -45 c28 -20 69 -80 54
-80 -3 0 -21 15 -39 34 -18 19 -52 40 -74 47 -23 7 -41 17 -41 22 0 16 67 0
100 -23z m-450 -35 c37 -19 50 -43 50 -94 0 -46 -5 -49 -95 -54 -27 -2 -59 -8
-70 -14 -11 -6 -24 -12 -29 -13 -12 -2 -26 21 -26 44 0 25 -28 45 -63 46 -18
0 -26 4 -21 11 6 10 35 8 79 -6 18 -6 18 -5 -2 13 -13 11 -23 23 -23 27 0 4
28 4 63 1 47 -5 67 -3 81 8 16 13 17 18 6 31 -10 12 -10 15 4 15 9 0 30 -7 46
-15z m-100 -4 c0 -10 -30 -24 -37 -17 -3 3 -2 9 2 15 8 13 35 15 35 2z m549
-17 c11 -15 18 -30 15 -35 -2 -5 7 -11 21 -15 29 -7 30 -13 10 -40 -8 -10 -15
-38 -15 -61 0 -31 -4 -43 -15 -43 -16 0 -20 -23 -16 -100 1 -36 -6 -57 -34
-105 -58 -99 -77 -145 -71 -171 8 -31 54 -54 108 -54 l43 -1 -38 -23 c-21 -13
-39 -28 -40 -32 -3 -22 -22 -31 -33 -16 -9 12 -17 13 -44 3 -18 -6 -34 -10
-35 -9 -1 2 -7 18 -13 36 -8 22 -8 32 0 32 6 0 7 7 3 18 -4 9 -9 24 -10 32 -1
8 -7 26 -12 40 -10 24 -11 23 -31 -22 -26 -59 -36 -94 -61 -201 -11 -49 -38
-126 -61 -172 -22 -46 -40 -95 -40 -109 0 -30 -14 -34 -32 -8 -7 11 -23 24
-36 31 -19 10 -21 15 -11 27 6 8 9 17 6 20 -3 3 -10 -4 -17 -15 -10 -20 -13
-20 -40 -6 -21 11 -28 20 -24 33 5 14 4 14 -5 2 -13 -18 -24 -8 -15 14 4 9 13
15 20 12 8 -3 14 -1 14 5 0 6 16 29 35 51 31 37 64 119 68 170 1 10 5 18 9 18
10 0 5 54 -7 62 -18 14 -22 9 -29 -32 -3 -22 -10 -40 -15 -40 -4 0 -14 -17
-21 -39 -12 -38 -13 -38 -56 -33 -36 4 -45 1 -50 -14 -3 -11 -10 -27 -15 -37
-13 -24 -20 -107 -8 -107 5 0 9 5 9 11 0 5 5 7 10 4 6 -3 10 1 10 9 0 9 5 16
11 16 6 0 9 -12 7 -27 -2 -21 -8 -27 -23 -25 -11 1 -28 3 -38 4 -10 1 -15 8
-13 15 3 7 1 13 -4 13 -6 0 -10 -4 -10 -9 0 -4 -18 -3 -40 2 -37 10 -40 14
-40 47 -1 42 -17 65 -56 80 l-29 11 25 20 c16 12 34 17 48 14 15 -4 21 -2 17
5 -3 5 2 10 12 10 11 1 7 6 -13 14 -17 8 -34 22 -38 32 -5 14 -9 15 -15 6 -6
-10 -13 -10 -34 1 -15 8 -24 17 -21 20 4 3 3 22 0 42 -8 39 -34 48 -43 15 -3
-11 -9 -20 -13 -20 -5 0 -6 -10 -3 -22 5 -18 3 -20 -7 -11 -9 8 -10 23 -3 55
13 58 0 99 -37 121 -16 10 -30 22 -30 28 0 5 -7 9 -16 9 -28 0 -12 99 28 173
33 60 47 117 29 117 -4 0 -6 12 -3 27 4 23 6 24 17 10 7 -10 26 -17 43 -17
l31 0 -20 -35 -21 -35 29 -1 c15 -1 37 0 47 1 33 3 100 -33 138 -75 44 -46 78
-128 78 -185 0 -30 3 -38 14 -34 8 3 17 1 21 -5 3 -6 10 -11 15 -11 12 0 0 32
-14 42 -6 4 3 8 21 8 27 0 35 -6 49 -36 12 -25 21 -33 33 -29 13 5 14 4 3 -7
-9 -9 -19 -10 -42 -1 -17 6 -30 7 -30 2 0 -5 6 -9 13 -9 32 -1 40 -16 27 -54
-14 -44 -5 -62 10 -21 8 22 14 25 22 17 15 -15 42 -16 33 -2 -3 6 1 10 9 10 9
0 16 7 16 15 0 8 5 15 10 15 18 0 10 29 -11 41 -16 8 -18 13 -9 19 9 6 9 13 1
28 -8 15 -7 23 4 32 8 7 13 17 12 23 -1 7 6 11 16 11 9 -1 17 2 17 8 0 5 5 6
12 2 6 -4 8 -3 4 4 -11 18 -15 101 -5 107 18 11 9 40 -16 52 -15 7 -23 7 -19
1 4 -7 -8 -9 -35 -6 -22 2 -41 1 -41 -2 0 -3 -4 -11 -9 -19 -8 -12 -12 -12
-25 -2 -9 8 -16 22 -16 33 0 17 -3 18 -15 8 -8 -7 -15 -18 -15 -24 0 -6 -4
-17 -9 -25 -8 -13 -12 -13 -27 -1 -9 8 -24 15 -32 15 -31 0 -21 23 24 58 55
43 60 44 74 17 14 -27 30 -16 30 21 0 35 15 38 27 4 6 -19 11 -22 23 -14 13 8
12 11 -4 24 -25 19 -2 20 34 2 29 -15 90 -4 90 16 0 16 42 20 51 5 4 -6 26
-11 49 -10 50 2 66 10 51 25 -17 17 -13 27 9 27 32 0 23 17 -13 24 -39 7 -83
35 -56 36 9 0 36 -11 60 -23 l44 -24 27 31 c15 17 28 39 28 49 0 24 15 21 39
-9z m-654 -131 c3 -27 10 -56 15 -65 7 -13 4 -21 -11 -32 -20 -13 -24 -13 -50
6 -15 12 -26 25 -23 30 3 5 1 15 -5 22 -7 8 -7 24 0 49 8 32 14 37 39 37 27 0
29 -3 35 -47z m-345 -5 c0 -18 -2 -20 -9 -8 -6 8 -7 18 -5 22 9 14 14 9 14
-14z m-63 -20 c-3 -7 -5 -2 -5 12 0 14 2 19 5 13 2 -7 2 -19 0 -25z m502 -144
c3 -16 1 -17 -13 -5 -19 16 -21 34 -3 29 6 -3 14 -13 16 -24z m189 19 c-2 -5
-10 -25 -18 -45 -10 -28 -20 -38 -36 -38 -12 0 -25 7 -28 16 -5 13 -9 14 -21
4 -22 -19 -20 13 3 32 27 25 109 49 100 31z m-51 -109 c-3 -3 -12 -4 -19 -1
-8 3 -5 6 6 6 11 1 17 -2 13 -5z m-111 -49 c10 -8 14 -15 7 -15 -19 0 -43 11
-43 21 0 13 14 11 36 -6z m-256 -272 c24 -21 26 -33 4 -33 -9 0 -12 5 -8 12 4
7 3 8 -4 4 -7 -4 -22 2 -34 13 l-22 21 22 0 c12 0 31 -8 42 -17z m50 -14 c0
-14 -17 -10 -23 5 -4 10 -1 13 9 9 7 -3 14 -9 14 -14z m-90 -29 c8 -5 11 -10
5 -10 -5 0 -17 5 -25 10 -8 5 -10 10 -5 10 6 0 17 -5 25 -10z m37 -55 c0 -8
-6 -15 -14 -15 -7 0 -16 -7 -19 -15 -7 -17 -24 -20 -24 -4 0 10 39 48 51 49 3
0 6 -7 6 -15z m723 -8 c0 -13 5 -28 11 -34 6 -6 9 -17 7 -23 -2 -7 -14 -1 -30
15 -23 23 -25 30 -15 46 16 26 27 24 27 -4z m-724 -41 c8 -9 10 -17 5 -21 -6
-3 -15 4 -21 15 -12 23 -5 26 16 6z m48 -20 c-6 -15 -24 -23 -24 -11 0 8 24
34 28 30 1 -1 0 -10 -4 -19z m936 -26 c13 -9 13 -10 0 -10 -8 0 -22 5 -30 10
-13 9 -13 10 0 10 8 0 22 -5 30 -10z m830 -454 c0 -3 -4 -8 -10 -11 -5 -3 -10
-1 -10 4 0 6 5 11 10 11 6 0 10 -2 10 -4z m-766 -15 c4 -5 -3 -7 -14 -4 -23 6
-26 13 -6 13 8 0 17 -4 20 -9z m-24 -21 c0 -5 -5 -10 -11 -10 -5 0 -7 5 -4 10
3 6 8 10 11 10 2 0 4 -4 4 -10z m139 -14 c9 -10 3 -19 -29 -40 -50 -33 -60
-34 -21 -1 18 16 28 32 24 40 -7 19 11 19 26 1z m684 -37 c-5 -19 -7 -19 -15
-5 -10 18 -2 39 12 31 4 -3 6 -15 3 -26z m-843 18 c0 -2 -8 -14 -19 -25 -23
-28 -47 -28 -54 -1 -4 15 -2 19 9 15 8 -3 14 -1 14 4 0 6 11 10 25 10 14 0 25
-2 25 -3z m795 -65 c-11 -27 -21 -39 -31 -35 -8 3 -14 12 -14 20 0 13 3 13 15
3 13 -11 15 -8 15 19 0 17 5 31 11 31 5 0 7 6 3 13 -5 9 -4 9 5 1 9 -9 8 -20
-4 -52z m-740 34 c12 -12 11 -16 -10 -30 -28 -19 -41 -20 -50 -5 -7 11 22 49
37 49 5 0 16 -6 23 -14z m135 -23 c-1 -67 -55 -160 -111 -189 -17 -8 -48 -14
-71 -12 -46 3 -65 26 -21 26 15 0 29 4 31 10 1 5 11 8 21 5 9 -2 23 3 30 11 8
9 10 16 6 16 -5 0 0 9 10 20 10 11 13 20 7 20 -6 0 -14 -4 -17 -10 -10 -17
-43 -11 -47 8 -2 11 9 25 32 39 46 29 52 29 44 -4 -6 -27 -6 -27 20 7 14 19
31 45 37 58 16 30 29 28 29 -5z m-369 -3 c21 -12 23 -60 1 -60 -26 0 -82 29
-82 44 0 13 11 18 53 25 5 0 17 -4 28 -9z m999 -3 c0 -7 -7 -22 -15 -33 -13
-17 -14 -16 -4 14 11 33 19 41 19 19z m-1067 -64 c37 -33 37 -34 15 -43 -19
-7 -16 -9 22 -10 l45 -1 -30 -14 c-27 -12 -28 -13 -7 -14 12 -1 22 -5 22 -9 0
-5 9 -17 19 -29 19 -20 19 -20 -12 -21 -17 0 -35 4 -39 11 -4 6 -9 9 -12 7 -2
-3 6 -17 17 -31 18 -22 28 -26 54 -22 20 3 33 12 36 25 3 11 10 17 16 14 6 -4
8 -13 4 -21 -6 -18 8 -20 25 -3 9 9 12 7 12 -11 0 -31 -46 -74 -97 -90 -37
-12 -45 -12 -67 3 -14 9 -34 33 -45 54 -11 21 -27 44 -36 52 -9 7 -24 30 -34
49 -10 20 -26 50 -35 68 -14 26 -15 35 -4 52 25 40 75 34 131 -16z m242 37 c4
-6 -5 -10 -19 -10 -14 0 -26 5 -26 10 0 6 9 10 19 10 11 0 23 -4 26 -10z
m-1250 -32 c36 -18 65 -39 65 -47 0 -8 -29 -64 -64 -125 -185 -321 -216 -391
-216 -480 0 -64 13 -105 56 -172 40 -63 75 -79 146 -70 73 10 114 30 132 65
22 42 38 50 30 14 -26 -111 -69 -244 -90 -276 -19 -29 -22 -42 -14 -57 5 -10
10 -30 10 -44 0 -31 -43 -130 -61 -141 -9 -6 -10 -3 -5 11 23 54 19 88 -9 78
-12 -5 -15 -23 -14 -89 1 -105 -16 -143 -87 -196 -62 -45 -84 -74 -84 -109 -1
-24 -1 -24 -15 -6 -35 46 -14 105 56 159 50 38 70 78 52 106 -16 25 -35 19
-60 -18 -13 -19 -23 -30 -24 -25 -3 24 4 60 14 73 7 8 -13 1 -43 -15 -48 -25
-59 -37 -87 -94 -18 -36 -32 -69 -32 -73 -1 -4 14 -14 33 -22 43 -18 49 -27
33 -49 -12 -17 -16 -17 -52 -2 -21 9 -39 15 -40 14 -2 -2 -12 -22 -24 -45 -23
-45 -27 -48 -51 -33 -13 8 -13 14 -2 42 26 65 26 65 -17 87 -46 24 -46 24 -29
50 11 19 13 18 55 -2 23 -11 44 -19 46 -16 2 2 16 32 31 67 26 59 27 66 15
116 -10 48 -14 53 -29 44 -32 -20 -53 -67 -46 -106 l5 -36 -20 21 c-11 11 -26
42 -34 69 l-13 49 -1 -50 c-2 -79 -26 -114 -109 -155 -81 -40 -96 -56 -109
-120 l-9 -45 -11 50 c-12 52 -5 125 14 160 6 11 32 39 58 63 48 43 56 74 22
80 -13 3 -22 -6 -30 -27 -15 -41 -27 -39 -27 5 0 95 44 159 115 170 24 3 52
12 62 20 16 12 14 12 -17 4 -44 -12 -120 -13 -120 -1 0 5 13 14 30 21 37 15
66 61 75 120 12 75 49 133 68 107 5 -7 6 -4 2 9 -3 13 1 26 10 34 12 10 15 33
14 106 -1 115 1 120 168 316 8 9 21 41 29 72 21 80 163 376 180 376 2 0 33
-14 69 -32z m1224 3 c10 -6 10 -10 1 -16 -7 -4 -19 0 -28 9 -14 13 -14 16 -2
16 8 0 21 -4 29 -9z m98 -77 c-3 -3 -12 -4 -19 -1 -8 3 -5 6 6 6 11 1 17 -2
13 -5z m-217 -88 c0 -2 -7 -7 -16 -10 -8 -3 -12 -2 -9 4 6 10 25 14 25 6z
m207 -39 c17 -9 33 -22 35 -28 3 -8 15 -6 42 5 23 10 44 13 53 7 13 -7 10 -14
-16 -43 -17 -20 -45 -41 -61 -48 -35 -14 -43 -8 -82 65 l-21 40 -10 -25 -10
-25 -7 25 c-5 14 -9 21 -9 15 -2 -17 -59 -76 -65 -67 -3 5 6 19 20 31 13 12
29 32 33 45 11 27 48 29 98 3z m18 13 c3 -6 -1 -7 -9 -4 -18 7 -21 14 -7 14 6
0 13 -4 16 -10z m-111 -95 c-11 -16 -25 -25 -43 -25 l-26 1 28 15 c15 8 27 19
27 24 0 6 7 10 15 10 14 0 13 -3 -1 -25z m-865 -16 c26 -25 31 -38 31 -77 0
-29 -8 -63 -21 -87 -42 -80 -153 -248 -157 -237 -2 6 1 20 7 31 6 11 22 86 36
167 22 129 53 234 69 234 2 0 18 -14 35 -31z m911 6 c0 -20 -5 -25 -25 -25
-30 0 -30 3 -8 30 23 27 33 25 33 -5z m47 -31 c-10 -10 -37 16 -37 34 0 13 4
12 22 -5 12 -13 19 -25 15 -29z m123 21 c0 -10 -10 -15 -27 -15 -27 1 -27 1
-9 15 25 19 36 19 36 0z m-147 -405 c123 -46 217 -159 235 -281 l7 -54 53 -14
53 -14 47 45 c90 86 164 113 286 106 249 -16 421 -232 361 -454 l-18 -66 36
-35 35 -35 44 16 c25 10 64 16 88 14 l44 -3 50 -97 c47 -91 50 -103 54 -187 8
-168 -44 -271 -189 -373 -39 -27 -61 -50 -65 -67 -3 -14 -6 -29 -7 -32 -4 -15
-136 145 -167 202 -30 56 -35 75 -38 154 -5 102 12 174 54 238 l26 39 -23 24
c-28 30 -34 30 -70 0 -35 -30 -121 -63 -186 -72 -141 -18 -316 84 -385 224
-28 56 -33 79 -35 146 -2 67 -5 82 -20 88 -39 15 -59 8 -75 -24 -29 -62 -106
-136 -176 -170 -60 -30 -75 -33 -157 -33 -82 0 -97 3 -155 32 -76 37 -156 115
-194 188 -14 27 -26 55 -26 62 0 12 41 28 101 38 34 6 37 5 44 -22 11 -45 70
-109 127 -137 93 -46 184 -30 261 46 26 26 47 51 47 56 0 5 -13 12 -29 15 -39
8 -61 33 -61 68 0 40 32 69 75 69 43 0 44 12 5 73 -54 86 -162 129 -275 110
-45 -8 -57 -8 -61 3 -2 8 -7 22 -10 32 -3 9 -5 18 -4 20 0 2 -9 11 -20 20
l-22 17 21 19 c12 11 38 23 59 27 64 14 192 3 255 -21z m-345 -75 c-9 -19 -18
-25 -37 -23 -51 6 -25 45 31 47 15 1 16 -2 6 -24z m-914 -747 c3 -16 2 -28 -3
-28 -13 0 -21 27 -14 45 7 19 8 18 17 -17z m44 -173 c32 -160 34 -184 27 -241
-10 -79 -51 -129 -145 -176 -41 -21 -79 -37 -84 -35 -6 2 -13 15 -17 30 -4 16
-4 25 2 21 6 -3 8 10 5 33 -3 35 0 42 54 93 70 66 86 90 100 154 8 36 8 69 -1
127 -12 74 -11 80 7 93 10 8 22 12 26 8 4 -4 16 -52 26 -107z m-570 10 c72
-22 146 -83 167 -139 26 -69 17 -148 -28 -239 -37 -75 -125 -202 -134 -193 -2
2 3 28 11 57 32 106 16 183 -48 236 -45 37 -96 53 -166 53 -83 0 -128 -18
-188 -77 -29 -29 -55 -53 -57 -53 -7 0 29 132 50 177 44 98 96 148 184 179 49
18 147 17 209 -1z m1232 -286 c0 -42 -24 -58 -58 -40 -16 9 -18 17 -12 56 4
25 3 48 -2 51 -4 3 -6 10 -3 15 4 5 22 -3 41 -17 28 -22 34 -33 34 -65z m118
22 c2 -6 -4 -11 -13 -11 -15 0 -17 -6 -12 -36 5 -32 4 -35 -16 -32 -19 3 -22
9 -20 48 1 25 2 46 2 47 3 7 56 -7 59 -16z m122 -52 c0 -29 -4 -38 -22 -42
-37 -10 -58 9 -51 46 12 70 73 66 73 -4z m240 29 c21 -15 25 -25 22 -54 -5
-40 -34 -63 -57 -44 -10 8 -14 31 -13 71 2 61 2 61 48 27z m-115 -38 c0 -39
-3 -45 -22 -48 -14 -2 -20 -8 -16 -18 3 -8 1 -14 -3 -14 -17 0 -29 15 -28 35
1 11 2 37 3 57 1 36 2 38 34 35 31 -2 32 -4 32 -47z m515 -36 c0 -46 -14 -58
-56 -48 -27 7 -27 6 -15 56 5 22 5 40 -1 46 -6 6 -7 15 -4 21 4 6 19 2 41 -12
30 -19 34 -27 35 -63z m-270 51 c11 -13 10 -18 -8 -31 -26 -18 -29 -34 -6 -34
13 0 14 -3 5 -14 -7 -8 -21 -12 -31 -9 -17 5 -19 11 -13 47 8 54 29 70 53 41z
m133 -7 c-2 -5 -3 -25 -3 -46 0 -36 -1 -38 -34 -39 -40 -1 -53 19 -32 49 8 11
12 27 9 35 -4 11 2 14 28 11 19 -2 33 -6 32 -10z m-622 -355 c39 -6 73 -14 76
-16 2 -3 1 -21 -3 -42 l-6 -36 -57 6 c-31 4 -64 9 -73 11 -13 4 -18 -1 -19
-18 0 -13 -6 -111 -13 -218 l-12 -195 35 -33 c22 -20 41 -30 51 -26 70 29 58
-8 -20 -66 -63 -45 -74 -50 -89 -38 -10 7 -41 31 -69 53 -28 22 -61 47 -73 56
-21 14 -21 17 -6 40 22 35 25 63 32 276 l7 191 -24 4 c-12 2 -23 8 -23 14 0 6
47 62 105 124 l105 112 3 -94 3 -95 70 -10z m-343 151 c29 -20 29 -66 0 -107
-12 -18 -46 -60 -74 -94 -87 -102 -86 -97 -14 -167 61 -60 62 -61 56 -105 -3
-24 -6 -84 -6 -133 0 -76 -3 -89 -17 -94 -10 -3 -42 -16 -70 -31 l-53 -25 -35
30 c-40 36 -85 47 -161 39 -29 -3 -56 -2 -59 3 -3 5 21 42 53 83 77 97 105
144 96 159 -4 7 -25 34 -46 59 l-38 45 0 116 0 116 38 28 c20 15 39 32 40 36
7 15 23 8 73 -32 59 -47 121 -67 156 -51 33 15 38 37 18 75 -30 55 -5 84 43
50z m1710 -21 c-41 -45 -49 -68 -58 -181 -5 -59 -16 -195 -24 -302 -9 -107
-18 -212 -21 -232 -5 -35 -2 -40 46 -78 36 -29 55 -38 63 -30 15 15 36 12 36
-4 0 -12 -83 -84 -127 -110 -7 -4 -32 9 -59 29 -26 20 -69 47 -95 60 -26 14
-50 29 -53 34 -4 5 2 24 13 43 15 26 22 67 31 188 6 85 13 166 15 180 3 14 10
96 15 183 10 137 9 162 -4 189 -25 48 -20 51 34 22 48 -26 50 -26 76 -10 32
22 92 44 118 45 18 1 17 -2 -6 -26z m220 -123 c87 -63 92 -135 20 -279 -35
-72 -42 -96 -46 -162 -4 -64 0 -90 21 -151 24 -71 25 -80 23 -323 -2 -239 -3
-252 -26 -304 -25 -58 -27 -77 -15 -188 7 -64 5 -75 -14 -107 -13 -20 -27 -36
-32 -36 -5 0 -9 -6 -9 -13 0 -7 -13 -34 -29 -59 -29 -46 -29 -47 -14 -95 9
-28 15 -83 15 -131 -1 -74 -5 -92 -35 -155 -18 -40 -46 -86 -61 -104 -63 -74
-180 -125 -291 -126 -78 -1 -146 33 -208 104 -50 57 -53 57 -140 20 -42 -18
-44 -21 -50 -70 -28 -239 -299 -390 -519 -289 -63 29 -139 94 -173 148 -28 45
-65 144 -65 174 0 16 -7 26 -22 30 -13 3 -44 12 -70 20 l-46 14 -27 -41 c-81
-129 -296 -164 -450 -72 -104 61 -195 198 -209 313 -8 59 8 161 30 205 15 28
14 30 -28 77 -24 26 -48 50 -55 53 -6 3 -32 -1 -59 -9 -114 -34 -199 -9 -239
71 -18 36 -20 60 -20 220 0 198 11 259 66 369 23 47 29 73 29 122 0 56 -3 65
-24 79 -13 9 -27 24 -31 33 -14 37 -24 250 -15 332 10 91 43 228 64 268 l13
25 6 -25 c4 -14 -4 -67 -19 -124 -39 -150 -42 -374 -4 -374 4 0 10 18 14 39 6
41 23 62 30 39 17 -55 16 -55 41 -13 14 22 32 71 40 109 15 67 15 85 0 241 -3
23 0 42 7 46 9 6 8 12 -1 23 -8 10 -9 16 -3 16 6 0 12 8 14 18 5 23 48 -44 76
-121 29 -76 30 -190 2 -279 -19 -62 -96 -185 -136 -218 -16 -13 -18 -27 -16
-75 l4 -60 46 -1 c65 -1 132 -33 198 -96 63 -59 97 -119 120 -210 25 -98 1
-218 -61 -308 -29 -43 -27 -56 19 -99 l26 -25 65 33 c68 35 159 50 228 37 59
-11 152 -81 204 -153 62 -87 93 -175 93 -262 l0 -68 39 -11 c66 -20 74 -17
100 43 28 66 91 127 169 163 50 24 69 27 162 27 95 0 111 -3 163 -29 69 -33
153 -113 186 -177 l24 -46 48 15 c45 15 48 18 41 41 -4 14 -7 60 -7 102 0 65
5 85 33 142 93 189 342 255 524 141 l40 -26 34 33 c46 45 49 61 20 106 -80
121 -84 274 -11 419 41 80 129 194 150 194 22 0 19 94 -5 162 -31 89 -45 267
-31 401 6 62 11 150 11 195 0 45 4 82 8 82 5 0 28 -13 50 -30z m-1172 -72 c60
-64 147 -168 143 -172 -2 -1 -56 -35 -119 -75 -163 -102 -151 -88 -157 -174
l-6 -74 59 -35 58 -36 48 24 c53 27 68 30 68 12 0 -13 -12 -21 -120 -80 -30
-17 -63 -36 -73 -43 -15 -11 -30 -6 -94 31 -42 24 -88 46 -103 49 l-27 6 22
44 c19 37 23 66 29 207 10 249 13 266 45 273 14 3 60 24 101 45 41 21 77 39
80 39 3 1 24 -18 46 -41z m549 -96 c48 -57 83 -107 79 -111 -5 -4 -66 -45
-136 -91 -78 -51 -129 -91 -132 -104 -3 -11 -6 -49 -6 -83 l0 -63 58 -29 58
-29 39 24 c40 24 75 31 75 15 0 -5 -49 -39 -110 -75 l-110 -67 -81 40 c-45 23
-87 41 -95 41 -23 0 -25 18 -5 52 16 27 23 72 36 253 9 121 19 222 21 224 9
10 209 109 216 108 3 -1 46 -49 93 -105z m-2000 -522 c0 -7 -6 -15 -12 -17 -8
-3 -13 4 -13 17 0 13 5 20 13 18 6 -3 12 -11 12 -18z m1185 -184 c0 -3 -4 -8
-10 -11 -5 -3 -10 -1 -10 4 0 6 5 11 10 11 6 0 10 -2 10 -4z m-103 -48 c-18
-14 -17 -45 2 -57 10 -6 8 -10 -4 -15 -27 -10 -42 10 -37 46 5 37 30 64 46 48
7 -7 4 -14 -7 -22z m204 -8 c-15 -10 -21 -42 -10 -62 9 -17 8 -19 -13 -16 -21
3 -23 7 -20 48 5 57 19 78 37 53 8 -10 10 -20 6 -23z m-107 -25 c-1 -27 -6
-51 -11 -52 -16 -6 -22 20 -16 66 8 58 28 47 27 -14z m190 26 c3 -5 15 -7 26
-4 16 4 20 0 20 -20 0 -28 -19 -52 -50 -62 -24 -8 -27 -25 -4 -25 8 0 12 -5 9
-10 -4 -7 -13 -7 -26 0 -15 9 -17 15 -9 30 5 10 10 37 10 59 0 38 11 53 24 32z
m1731 -929 c30 -19 45 -41 65 -94 5 -16 16 -28 24 -28 21 0 73 -64 81 -99 8
-39 -18 -121 -48 -149 -12 -11 -44 -26 -72 -33 -27 -7 -60 -22 -72 -33 -23
-19 -23 -19 -23 1 0 25 -8 33 -26 26 -21 -8 -17 -22 16 -59 29 -33 31 -51 7
-81 -16 -22 -28 -14 -21 13 6 22 4 25 -12 22 -28 -5 -31 -54 -5 -63 23 -7 28
-21 9 -27 -7 -3 -14 -18 -15 -34 -6 -69 -11 -88 -27 -100 -17 -12 -25 -52 -56
-280 -5 -39 -16 -102 -24 -140 -23 -111 -26 -134 -16 -134 6 0 10 -9 10 -19 0
-16 12 -21 73 -32 39 -6 75 -15 78 -18 4 -3 2 -34 -3 -67 -10 -58 -13 -62 -40
-68 -54 -11 -61 -8 -54 19 5 18 2 25 -8 25 -7 0 -13 -8 -12 -17 1 -14 -7 -18
-31 -18 -40 0 -44 -22 -7 -31 21 -5 25 -11 21 -30 -3 -16 0 -24 9 -24 8 0 14
9 14 20 0 15 7 20 28 20 44 0 56 -13 49 -55 -3 -21 -9 -40 -12 -43 -3 -3 -28
0 -56 6 -64 15 -124 15 -148 0 -10 -6 -26 -8 -36 -4 -15 5 -16 14 -10 64 3 31
10 75 15 97 5 22 16 85 25 140 9 55 20 123 26 150 19 102 28 163 45 293 14
112 15 137 4 158 -10 18 -11 27 -2 36 7 7 8 17 1 30 -7 12 -6 25 2 39 8 15 8
24 0 32 -17 17 -13 27 9 27 24 0 39 45 21 63 -14 14 -34 -10 -26 -31 3 -8 0
-12 -7 -10 -7 3 -14 16 -16 30 -2 19 6 33 34 56 24 20 35 36 31 46 -9 22 -28
20 -34 -4 -6 -24 -23 -17 -23 10 0 11 -10 20 -24 24 -26 6 -59 47 -69 83 -8
35 22 135 50 165 14 14 35 29 47 32 11 3 30 22 41 42 11 21 33 46 50 56 39 23
111 23 150 0z m-345 -2476 c0 -8 -7 -19 -15 -26 -16 -13 -18 -8 -9 27 6 23 24
22 24 -1z m-78 -58 c-19 -19 -14 -54 10 -70 l22 -14 -22 -22 c-18 -18 -20 -26
-12 -47 12 -32 12 -35 2 -35 -5 0 -14 11 -20 25 -8 18 -20 25 -38 25 -26 0
-27 1 -20 46 3 26 6 55 6 65 0 11 5 19 11 19 6 0 8 -7 5 -17 -5 -12 3 -8 21
10 15 15 32 27 37 27 6 0 5 -5 -2 -12z m38 -7 c0 -5 -7 -14 -15 -21 -12 -10
-15 -10 -15 2 0 8 3 18 7 21 9 10 23 9 23 -2z m269 -10 c7 -13 6 -24 -3 -37
-12 -15 -16 -16 -30 -5 -16 14 -21 42 -9 54 12 13 32 7 42 -12z m-199 -27 c0
-21 -22 -42 -40 -37 -22 6 -27 32 -8 51 10 10 48 0 48 -14z m30 -34 c0 -21
-15 -27 -25 -10 -7 12 2 30 16 30 5 0 9 -9 9 -20z m-80 -72 c0 -5 -7 -8 -15
-8 -8 0 -15 -6 -16 -12 0 -7 -5 0 -11 16 -8 22 -7 30 3 36 12 8 38 -14 39 -32z
m-1720 -147 c0 -11 -4 -23 -10 -26 -6 -4 -10 5 -10 19 0 14 5 26 10 26 6 0 10
-9 10 -19z"/>
<path d="M4919 10017 c6 -8 8 -17 4 -20 -3 -4 1 -7 10 -7 9 0 19 5 22 10 3 6
-1 10 -9 10 -9 0 -16 5 -16 10 0 6 -5 10 -11 10 -8 0 -9 -4 0 -13z"/>
<path d="M5210 9938 c0 -18 18 -34 28 -24 3 4 -2 14 -11 23 -16 16 -17 16 -17
1z"/>
<path d="M5511 9768 c0 -13 3 -17 6 -10 2 6 12 12 21 12 15 0 15 2 2 10 -23
15 -30 12 -29 -12z"/>
<path d="M4939 9747 c-34 -37 -37 -61 -9 -80 l21 -14 -21 -6 c-11 -3 -20 -13
-20 -24 0 -14 2 -15 9 -4 6 9 30 14 69 15 57 1 71 10 29 18 -18 3 -18 4 1 26
29 33 14 84 -29 95 -15 4 -30 -3 -50 -26z"/>
<path d="M5587 9754 c3 -8 11 -14 19 -14 21 0 17 17 -5 23 -14 3 -18 1 -14 -9z"/>
<path d="M5510 9666 c0 -2 8 -10 18 -17 15 -13 16 -12 3 4 -13 16 -21 21 -21
13z"/>
<path d="M5056 9557 c-31 -30 -36 -40 -36 -81 0 -100 59 -144 124 -93 27 22
28 26 18 57 -13 35 -7 55 8 31 4 -8 6 -20 3 -28 -3 -7 -1 -13 5 -13 16 0 23
30 12 51 -7 13 -7 19 -1 19 7 0 7 8 1 24 -5 13 -6 27 -2 32 4 4 1 4 -5 0 -7
-4 -13 -2 -13 4 0 7 -6 10 -14 7 -8 -3 -16 -2 -18 2 -2 5 -13 11 -24 15 -16 5
-31 -2 -58 -27z m20 -72 c-9 -9 -16 -21 -16 -26 0 -19 -18 -8 -22 14 -4 19 0
23 25 25 26 2 28 1 13 -13z"/>
<path d="M5229 9528 c-6 -24 -5 -59 2 -63 15 -10 10 -25 -5 -19 -18 7 -41 -32
-26 -41 7 -4 3 -13 -9 -24 -23 -20 -18 -33 7 -24 15 4 15 3 0 -10 -10 -8 -18
-19 -18 -25 0 -18 -22 -25 -32 -11 -8 12 -9 11 -5 -1 5 -16 -17 -43 -27 -33
-3 4 -6 0 -6 -8 0 -9 16 -19 40 -25 28 -8 37 -8 33 0 -10 16 -13 56 -3 56 5 0
11 -6 13 -12 3 -8 6 -6 6 5 1 13 7 16 26 11 14 -3 25 -2 25 3 0 13 40 13 40 0
1 -7 7 0 15 15 12 21 13 32 3 52 -6 15 -15 26 -19 26 -9 0 -28 58 -26 83 0 9
5 17 11 17 6 0 2 7 -8 15 -18 14 -35 19 -37 13z m49 -140 c21 -21 14 -35 -18
-30 -16 2 -30 10 -30 16 0 27 27 35 48 14z"/>
<path d="M5450 9499 c0 -5 5 -7 10 -4 6 3 10 8 10 11 0 2 -4 4 -10 4 -5 0 -10
-5 -10 -11z"/>
<path d="M5325 9380 c-3 -5 1 -10 10 -10 9 0 13 5 10 10 -3 6 -8 10 -10 10 -2
0 -7 -4 -10 -10z"/>
<path d="M5507 9364 c3 -9 9 -12 12 -7 3 4 10 11 15 16 5 4 0 7 -12 7 -15 0
-20 -4 -15 -16z"/>
<path d="M5125 9193 c6 -57 20 -74 29 -38 5 19 2 33 -10 47 -16 17 -16 18 -1
13 9 -4 19 -15 22 -26 6 -19 25 -27 25 -10 0 16 -41 61 -56 61 -12 0 -14 -10
-9 -47z"/>
<path d="M5430 9201 c-16 -30 -12 -41 13 -40 16 1 18 2 5 6 -21 5 -21 8 -8 34
6 10 8 19 6 19 -3 0 -10 -9 -16 -19z"/>
<path d="M5860 8301 c-25 -7 -25 -7 9 -19 43 -15 41 -16 41 8 0 21 -8 23 -50
11z"/>
<path d="M4310 7546 c0 -17 43 -176 47 -173 4 5 -36 169 -43 176 -2 2 -4 1 -4
-3z"/>
<path d="M4361 7344 c0 -11 3 -14 6 -6 3 7 2 16 -1 19 -3 4 -6 -2 -5 -13z"/>
<path d="M4371 7304 c0 -11 3 -14 6 -6 3 7 2 16 -1 19 -3 4 -6 -2 -5 -13z"/>
<path d="M4286 7254 c-4 -14 -5 -28 -3 -31 3 -2 8 8 11 23 4 14 5 28 3 31 -3
2 -8 -8 -11 -23z"/>
<path d="M6642 7436 c-23 -8 -54 -21 -67 -30 -25 -16 -25 -16 -5 -36 24 -24
26 -58 4 -88 -11 -16 -25 -22 -55 -22 l-39 0 0 -42 c1 -82 63 -172 145 -209
56 -26 154 -25 205 1 22 11 40 22 40 24 0 1 -7 17 -16 34 -26 53 3 102 61 102
49 0 55 34 23 125 -40 111 -181 178 -296 141z"/>
<path d="M7236 6832 c12 -79 -51 -136 -90 -81 -8 12 -19 18 -25 15 -16 -10
-33 -115 -26 -165 8 -56 68 -183 74 -155 2 10 19 36 37 58 73 85 92 172 70
314 -7 41 -13 52 -28 52 -16 0 -17 -5 -12 -38z"/>
<path d="M4070 6761 c-47 -15 -87 -40 -118 -76 -32 -36 -70 -101 -55 -93 70
35 94 41 163 41 84 0 141 -18 196 -60 47 -37 67 -76 74 -143 l6 -55 27 56 c33
69 43 131 28 186 -15 55 -93 126 -155 142 -50 12 -128 13 -166 2z"/>
<path d="M5442 6525 c-1 -14 3 -25 8 -25 6 0 10 11 10 25 0 14 -4 25 -8 25 -4
0 -9 -11 -10 -25z"/>
<path d="M5686 6502 c-4 -13 -5 -26 -2 -29 10 -11 18 4 14 29 l-4 23 -8 -23z"/>
<path d="M5951 6470 c0 -33 1 -34 11 -12 8 17 8 26 0 34 -9 9 -12 4 -11 -22z"/>
<path d="M5820 6475 c0 -14 5 -25 10 -25 6 0 10 11 10 25 0 14 -4 25 -10 25
-5 0 -10 -11 -10 -25z"/>
<path d="M6325 6458 c-4 -10 -4 -26 0 -35 8 -17 8 -17 12 0 3 9 3 25 0 35 -4
16 -4 16 -12 0z"/>
<path d="M6180 6435 c0 -8 5 -15 10 -15 6 0 10 7 10 15 0 8 -4 15 -10 15 -5 0
-10 -7 -10 -15z"/>
<path d="M4985 6057 c4 -45 12 -81 23 -96 20 -28 42 -39 42 -21 0 6 16 34 35
63 19 28 35 55 35 58 0 4 -15 10 -34 13 -19 4 -50 18 -70 31 l-37 25 6 -73z"/>
<path d="M5050 5872 c0 -5 -18 -38 -40 -75 -22 -36 -40 -68 -40 -71 0 -4 9 -6
20 -6 28 0 78 -26 114 -59 l28 -26 -7 95 c-6 84 -10 98 -33 123 -26 27 -42 34
-42 19z"/>
<path d="M7153 5925 c0 -27 2 -38 4 -22 2 15 2 37 0 50 -2 12 -4 0 -4 -28z"/>
<path d="M4517 5169 c-3 -25 -13 -49 -24 -57 -16 -11 -20 -10 -36 9 l-17 21
-15 -36 c-23 -54 -35 -129 -35 -210 1 -122 47 -186 135 -186 35 0 35 0 35 43
0 68 56 102 101 61 23 -21 37 -11 60 40 21 47 25 136 7 187 -29 85 -97 149
-175 165 -29 6 -30 5 -36 -37z"/>
<path d="M7123 5175 c-31 -22 -43 -74 -43 -188 0 -113 15 -188 36 -180 9 3 15
-7 20 -37 5 -30 9 -38 15 -28 5 9 4 30 -1 49 -15 53 -12 89 15 168 27 81 44
189 25 159 -6 -10 -18 -18 -27 -18 -13 0 -15 8 -10 45 7 49 3 53 -30 30z"/>
<path d="M5045 4531 c-56 -14 -76 -30 -65 -51 27 -51 -15 -114 -73 -108 l-32
3 0 -82 c0 -78 1 -83 40 -139 57 -82 124 -117 216 -112 52 3 75 10 108 31 40
26 42 30 27 46 -22 24 -30 74 -17 100 9 15 21 21 47 21 l36 0 -7 43 c-13 86
-37 139 -84 187 -60 62 -117 80 -196 61z"/>
<path d="M6644 4500 c-53 -23 -111 -84 -125 -129 -6 -20 -9 -56 -7 -80 3 -40
6 -44 38 -55 47 -15 69 -54 53 -97 -11 -29 -10 -34 10 -52 134 -119 347 2 347
198 0 61 -7 76 -35 69 -23 -6 -64 10 -77 30 -12 17 -9 54 5 76 14 24 4 34 -53
50 -51 15 -110 11 -156 -10z"/>
<path d="M5841 4269 c-37 -11 -131 -99 -131 -124 0 -9 11 -26 24 -38 41 -36
36 -95 -9 -115 -29 -14 -30 -22 -9 -65 44 -87 128 -141 219 -141 85 0 172 51
211 126 14 27 20 67 8 55 -4 -3 -19 0 -35 9 -52 26 -51 102 1 126 39 17 38 35
-7 88 -66 77 -172 107 -272 79z"/>
<path d="M5905 5890 c-4 -61 -5 -113 -3 -116 4 -3 106 63 127 82 5 4 -72 104
-98 128 -18 17 -19 14 -26 -94z"/>
<path d="M6408 5954 c-3 -5 -9 -58 -12 -117 -6 -90 -5 -107 6 -100 7 4 39 25
70 47 l58 39 -29 36 c-66 82 -88 104 -93 95z"/>
<path d="M5950 5171 c0 -25 6 -27 13 -6 4 8 2 17 -3 20 -6 4 -10 -3 -10 -14z"/>
<path d="M7517 4213 c-15 -16 -14 -19 24 -54 l41 -37 35 24 c20 13 42 24 49
24 17 0 18 14 4 41 -12 22 -31 24 -61 7 -17 -10 -23 -10 -26 0 -7 17 -46 15
-66 -5z"/>
<path d="M7418 4128 c-30 -25 -48 -63 -48 -104 0 -68 46 -92 111 -58 29 15 30
16 14 34 -9 10 -14 23 -11 28 3 5 -1 15 -9 22 -8 7 -18 30 -21 51 -7 42 -12
46 -36 27z"/>
<path d="M7490 4123 c0 -6 9 -21 20 -34 15 -18 19 -20 20 -8 0 9 -9 24 -20 34
-11 10 -20 13 -20 8z"/>
<path d="M7633 4095 c-15 -13 -23 -25 -17 -25 6 0 21 11 34 25 30 32 19 32
-17 0z"/>
<path d="M7690 4062 c-25 -26 -44 -52 -42 -59 1 -6 -7 -14 -18 -18 -26 -8 -25
-20 2 -39 29 -21 87 -20 117 0 35 25 53 75 40 113 -9 26 -38 54 -51 50 -2 0
-23 -22 -48 -47z"/>
<path d="M5990 10299 c0 -5 5 -7 10 -4 6 3 10 8 10 11 0 2 -4 4 -10 4 -5 0
-10 -5 -10 -11z"/>
<path d="M6070 9531 c-13 -9 -13 -11 0 -15 34 -13 65 -11 65 4 0 18 -43 25
-65 11z"/>
<path d="M6004 9411 c1 -22 6 -42 11 -44 14 -3 13 51 0 70 -10 13 -12 8 -11
-26z"/>
<path d="M6646 9343 c-6 -14 -5 -15 5 -6 7 7 10 15 7 18 -3 3 -9 -2 -12 -12z"/>
<path d="M6612 9105 c-6 -14 -16 -25 -22 -25 -5 0 -10 -7 -10 -16 0 -14 3 -14
15 -4 13 10 15 9 16 -11 1 -13 5 -1 9 26 8 59 7 64 -8 30z"/>
<path d="M6566 9015 c3 -8 12 -11 20 -8 20 7 17 18 -5 20 -13 1 -18 -3 -15
-12z"/>
<path d="M6536 9002 c-4 -4 -12 -8 -17 -8 -5 -1 -13 -2 -17 -3 -8 -1 -42 -64
-42 -77 0 -3 14 4 30 16 l30 21 9 -23 c7 -19 5 -24 -10 -26 -23 -4 -25 -28 -3
-36 22 -8 26 -8 19 4 -6 10 15 50 28 50 16 0 38 -28 27 -35 -5 -3 -10 -17 -10
-31 0 -14 4 -22 10 -19 6 3 7 -1 4 -9 -3 -9 -9 -16 -13 -16 -4 0 -8 -12 -9
-27 -1 -15 -11 -44 -22 -65 -11 -21 -15 -38 -10 -38 6 0 10 5 10 10 0 6 3 10
8 10 4 0 8 -18 9 -40 2 -31 -2 -43 -20 -55 -22 -16 -22 -16 9 -11 24 5 36 0
53 -18 l22 -24 -25 -20 c-22 -17 -24 -21 -9 -26 9 -4 20 -1 25 6 6 8 7 4 3
-12 -5 -17 -4 -22 3 -15 6 6 13 37 16 70 3 33 2 49 -2 36 -8 -25 -8 -24 -30
14 -21 34 -27 83 -14 108 4 9 28 -31 35 -60 2 -10 4 -6 2 9 -1 15 3 26 9 25 5
-1 12 6 14 16 2 12 -3 20 -17 24 -12 3 -21 13 -21 22 0 14 2 14 10 1 16 -25
16 19 0 125 -4 28 -8 39 -10 25 l-2 -25 -7 25 c-5 14 -5 30 -2 35 10 17 10 35
0 41 -5 3 -6 10 -3 16 4 6 -1 8 -15 3 -12 -4 -28 -2 -35 4 -7 6 -16 7 -20 3z
m59 -52 c3 -5 1 -10 -4 -10 -6 0 -11 5 -11 10 0 6 2 10 4 10 3 0 8 -4 11 -10z"/>
<path d="M5814 8907 c-8 -21 2 -35 16 -21 5 5 6 15 0 24 -8 12 -10 12 -16 -3z"/>
<path d="M5865 8880 c-3 -5 -1 -10 4 -10 6 0 11 5 11 10 0 6 -2 10 -4 10 -3 0
-8 -4 -11 -10z"/>
<path d="M6436 8854 c-3 -9 -6 -28 -6 -42 l0 -27 19 29 c11 16 17 35 14 42 -7
19 -19 18 -27 -2z"/>
<path d="M6484 8835 c-4 -9 -4 -19 0 -22 3 -4 6 -1 6 5 0 7 4 12 10 12 5 0 7
-8 4 -17 -4 -11 -2 -14 3 -8 4 6 12 13 16 17 5 3 -1 11 -12 18 -17 9 -22 8
-27 -5z"/>
<path d="M6308 8727 c31 -12 51 -31 52 -49 0 -5 -17 -8 -37 -8 -21 0 -47 -8
-58 -17 l-20 -16 20 8 c50 20 72 17 94 -10 11 -15 21 -25 21 -22 0 3 3 13 7
23 4 10 2 15 -3 11 -6 -3 -11 9 -12 26 -3 42 -28 67 -66 66 l-31 -1 33 -11z"/>
<path d="M6440 8680 c0 -5 5 -10 11 -10 5 0 7 5 4 10 -3 6 -8 10 -11 10 -2 0
-4 -4 -4 -10z"/>
<path d="M6656 8653 c9 -38 14 -42 14 -10 0 14 -5 29 -10 32 -7 4 -8 -3 -4
-22z"/>
<path d="M6380 8591 c0 -7 7 -19 15 -27 19 -20 19 -5 0 20 -9 11 -15 14 -15 7z"/>
<path d="M6450 8568 c0 -9 -3 -25 -6 -35 -5 -13 -1 -11 11 5 13 18 14 27 6 35
-8 8 -11 7 -11 -5z"/>
<path d="M6660 8531 c0 -6 4 -13 10 -16 6 -3 7 1 4 9 -7 18 -14 21 -14 7z"/>
<path d="M6426 8492 c-4 -6 3 -8 15 -5 12 4 25 0 31 -8 8 -12 9 -11 5 1 -4 17
-42 26 -51 12z"/>
<path d="M6611 8428 c-1 -16 4 -28 9 -28 12 0 12 8 0 35 -8 18 -9 17 -9 -7z"/>
<path d="M6581 8433 c0 -6 -4 -20 -7 -30 -5 -14 -4 -15 5 -7 7 7 11 20 8 30
-3 11 -5 14 -6 7z"/>
<path d="M6451 8333 c-1 -43 -4 -53 -18 -54 -12 0 -13 -2 -5 -6 10 -4 10 -8 2
-18 -10 -11 -7 -12 13 -2 21 10 23 16 20 61 -6 72 -11 80 -12 19z"/>
<path d="M7100 1609 c0 -58 41 -144 88 -187 20 -18 71 -53 114 -78 42 -25 81
-51 88 -59 7 -8 27 -17 46 -21 19 -3 34 -10 34 -14 0 -8 104 -50 126 -50 8 0
14 6 14 14 0 8 6 16 13 19 16 6 47 67 47 91 0 13 -4 15 -19 7 -11 -6 -21 -27
-25 -53 -5 -30 -10 -38 -16 -29 -4 8 -6 21 -3 30 3 12 2 12 -7 -1 -6 -10 -19
-18 -30 -18 -10 0 -20 -3 -23 -7 -2 -5 -2 -2 0 5 1 8 3 36 3 63 0 37 4 49 15
49 8 0 15 8 15 18 0 14 2 15 10 2 9 -13 11 -13 21 0 8 11 9 1 6 -40 l-4 -55
18 43 c10 23 24 42 31 42 9 0 9 3 0 12 -7 7 -12 27 -12 45 0 27 -4 33 -22 34
-17 1 -19 2 -5 6 9 2 17 14 17 26 0 18 2 19 11 7 8 -12 10 -11 7 5 -2 12 -11
20 -23 20 -11 0 -26 4 -32 8 -21 14 -35 -3 -29 -34 9 -45 -21 -84 -61 -82 -18
1 -35 -3 -38 -7 -3 -5 -12 -7 -20 -4 -9 4 -18 -1 -21 -11 -6 -13 -9 -14 -16
-3 -7 10 -11 10 -15 1 -2 -7 -9 -13 -14 -13 -12 0 -12 47 1 55 17 11 0 30 -30
32 -25 2 -59 17 -156 71 -12 7 -41 33 -63 59 l-41 46 0 -44z m487 -171 c-3 -8
-6 -5 -6 6 -1 11 2 17 5 13 3 -3 4 -12 1 -19z m-357 -3 c7 -9 8 -15 2 -15 -5
0 -12 7 -16 15 -3 8 -4 15 -2 15 2 0 9 -7 16 -15z m407 -22 c-3 -10 -5 -4 -5
12 0 17 2 24 5 18 2 -7 2 -21 0 -30z m-312 -14 c33 -11 66 -25 73 -31 8 -7 12
-7 12 2 0 10 3 10 15 0 8 -7 15 -21 15 -31 0 -10 3 -20 8 -23 4 -2 6 14 4 37
-3 39 -2 41 13 23 15 -19 15 -19 15 2 0 12 5 22 10 22 6 0 10 -8 10 -17 1 -16
2 -16 11 1 16 27 29 2 29 -57 0 -36 -4 -49 -17 -54 -10 -4 -19 -1 -21 6 -3 9
-7 9 -18 0 -10 -8 -14 -8 -14 0 0 6 -7 11 -15 11 -9 0 -22 14 -29 32 -12 27
-15 29 -19 12 -5 -18 -5 -18 -12 2 -4 14 -15 22 -29 22 -30 0 -116 38 -116 51
0 15 7 14 75 -10z"/>
<path d="M7512 1340 c0 -14 2 -19 5 -12 2 6 2 18 0 25 -3 6 -5 1 -5 -13z"/>
<path d="M7481 1324 c0 -11 3 -14 6 -6 3 7 2 16 -1 19 -3 4 -6 -2 -5 -13z"/>
<path d="M7559 1097 c-12 -9 -14 -19 -7 -45 10 -37 21 -35 44 10 13 25 14 32
2 39 -17 11 -20 11 -39 -4z"/>
<path d="M7416 1074 c-11 -10 -16 -31 -14 -59 1 -37 3 -42 17 -33 9 5 26 24
38 41 18 25 20 34 11 51 -7 13 -13 16 -16 8 -2 -6 -8 -12 -13 -12 -6 0 -7 5
-4 10 9 15 -2 12 -19 -6z"/>
<path d="M7612 1000 c-17 -55 -16 -83 2 -50 18 33 30 90 19 90 -4 0 -14 -18
-21 -40z"/>
<path d="M7316 908 c-29 -91 -49 -143 -62 -155 -20 -20 -16 -23 31 -16 32 4
40 9 41 26 1 12 8 46 16 74 11 41 17 50 26 41 9 -9 12 -6 12 13 0 20 -5 25
-30 27 -18 1 -32 -3 -34 -10z"/>
<path d="M7557 903 c-3 -10 -8 -30 -11 -45 -4 -19 -13 -28 -26 -28 -17 0 -18
3 -9 26 12 33 10 35 -22 26 -16 -5 -25 -15 -27 -32 -1 -14 -8 -38 -16 -55 -7
-16 -16 -42 -20 -57 -5 -24 -3 -28 14 -28 20 0 29 15 54 84 5 14 10 16 18 8 8
-8 7 -18 -5 -36 -10 -14 -13 -27 -7 -31 11 -7 32 29 23 39 -3 3 -1 6 5 6 7 0
11 3 11 8 -3 16 26 72 37 72 7 0 15 7 18 16 9 24 7 31 -4 14 -8 -12 -10 -11
-10 8 0 26 -17 30 -23 5z"/>
<path d="M7370 847 c0 -8 -7 -28 -15 -43 -8 -16 -15 -37 -15 -46 0 -30 20 -20
27 12 3 17 10 33 14 36 12 7 11 41 -1 49 -5 3 -10 0 -10 -8z"/>
<path d="M7321 711 c-14 -25 -1 -35 15 -13 16 20 17 32 4 32 -5 0 -14 -8 -19
-19z"/>
</g>
</svg>
