<?xml version="1.0" standalone="no"?>
<!DOCTYPE svg PUBLIC "-//W3C//DTD SVG 20010904//EN"
 "http://www.w3.org/TR/2001/REC-SVG-20010904/DTD/svg10.dtd">
<svg version="1.0" xmlns="http://www.w3.org/2000/svg"
 width="758.000000pt" height="1024.000000pt" viewBox="0 0 758.000000 1024.000000"
 preserveAspectRatio="xMidYMid meet">

<g transform="translate(0.000000,1024.000000) scale(0.100000,-0.100000)"
fill="#000000" stroke="none">
<path d="M4459 8181 c-163 -125 -383 -191 -639 -191 -233 0 -407 53 -598 182
l-76 51 -45 -18 c-126 -49 -183 -68 -294 -101 -268 -78 -626 -217 -830 -321
-131 -67 -472 -299 -636 -432 -79 -64 -173 -140 -210 -169 -36 -29 -97 -79
-136 -111 -38 -31 -131 -106 -205 -166 -337 -272 -630 -539 -630 -573 1 -9 20
-40 43 -68 100 -121 257 -306 337 -399 47 -55 97 -114 110 -131 14 -17 102
-123 196 -235 94 -112 190 -230 213 -261 24 -32 51 -58 60 -58 17 0 208 83
308 134 66 33 93 34 94 4 1 -13 2 -745 3 -1628 l1 -1605 585 -7 c793 -9 3965
-12 3979 -4 8 5 11 451 11 1637 0 1385 2 1630 14 1635 8 3 40 -8 72 -24 109
-55 314 -142 333 -142 12 0 39 26 73 72 29 40 85 109 123 154 39 44 93 110
122 145 149 184 223 272 292 349 42 47 92 105 111 130 19 24 76 93 127 152
104 121 117 141 108 167 -13 41 -441 414 -851 741 -17 14 -87 70 -155 124 -68
55 -143 114 -165 132 -258 206 -541 391 -729 479 -202 94 -506 208 -756 285
-107 32 -215 76 -290 117 -3 2 -35 -19 -70 -46z m-689 -535 c0 -3 -4 -8 -10
-11 -5 -3 -10 -1 -10 4 0 6 5 11 10 11 6 0 10 -2 10 -4z m95 -36 c3 -5 -3 -10
-15 -10 -12 0 -18 5 -15 10 3 6 10 10 15 10 5 0 12 -4 15 -10z m328 -599 c20
-8 25 -18 30 -61 10 -82 1 -108 -42 -120 -39 -11 -259 -14 -285 -4 -9 3 -16
12 -16 20 0 11 30 14 160 14 153 0 160 1 160 20 0 18 -7 20 -65 20 l-65 0 0
35 c0 28 -4 35 -20 35 -17 0 -20 -7 -20 -40 l0 -40 -80 0 -80 0 0 43 c0 63 10
71 87 78 111 10 210 10 236 0z m395 -3 c16 -16 16 -105 0 -115 -7 -4 -51 -10
-98 -13 -79 -5 -85 -7 -88 -27 -3 -22 -8 -23 -78 -23 l-74 0 0 95 0 95 163 0
c113 0 167 -4 175 -12z m-752 -23 c18 -25 18 -32 -5 -52 -19 -15 -19 -17 -3
-29 15 -12 12 -14 -23 -15 -22 0 -49 -2 -60 -3 -11 -1 -59 -3 -107 -4 -80 -2
-88 -4 -88 -22 0 -17 6 -19 50 -15 43 3 50 1 50 -15 0 -23 -19 -30 -90 -30
l-57 0 -5 43 c-3 23 -3 68 0 99 l4 57 87 4 c172 8 232 3 247 -18z m-377 -9
c15 -18 19 -142 4 -157 -19 -19 -91 -28 -220 -29 l-123 0 0 89 0 89 53 10 c85
16 272 15 286 -2z m391 -146 c0 -18 -7 -20 -80 -20 -73 0 -80 2 -80 20 0 18 7
20 80 20 73 0 80 -2 80 -20z m1444 -128 c3 -26 13 -58 22 -71 19 -27 72 -51
112 -51 l29 0 7 -185 c7 -207 2 -231 -53 -278 -18 -15 -53 -32 -77 -38 -31 -8
-44 -17 -44 -29 0 -25 -29 -46 -85 -62 -40 -11 -53 -19 -65 -45 l-15 -33 -112
-2 c-62 -1 -139 -2 -170 -3 l-58 0 -1 55 c-1 30 -5 218 -10 418 l-7 362 85 0
c95 0 98 -2 98 -79 l0 -34 23 33 c47 70 92 87 233 89 l81 1 7 -48z m-771 -7
c11 -78 40 -105 128 -119 l37 -6 6 -248 c3 -136 8 -284 9 -329 l3 -83 -35 -6
c-42 -7 -43 -7 -98 -5 -39 1 -43 3 -43 26 0 17 -6 25 -17 25 -12 0 -27 19 -43
52 -17 35 -45 68 -87 102 -58 48 -79 73 -69 83 9 10 104 -40 159 -84 l58 -45
-4 211 c-6 226 -9 242 -60 276 -13 8 -44 18 -69 21 -46 6 -47 6 -62 -29 -13
-31 -21 -37 -76 -53 -36 -10 -67 -25 -75 -38 -15 -21 -20 -93 -9 -134 6 -22 7
-22 31 12 33 50 75 69 163 73 l75 5 -32 -21 c-39 -25 -49 -42 -58 -103 -7 -43
-10 -48 -34 -48 -14 0 -45 -9 -69 -20 -64 -29 -76 -66 -69 -207 l6 -113 -88 0
-88 0 0 28 c1 15 -2 131 -7 257 -8 271 -8 271 74 298 75 25 86 38 93 104 4 41
13 65 34 91 49 60 83 72 204 72 l106 0 6 -45z m-589 -17 c3 -29 6 -67 6 -84
l0 -32 -77 -6 c-43 -3 -122 -9 -177 -12 l-98 -7 5 -50 c4 -41 10 -56 37 -80
l32 -29 137 3 136 3 5 -79 c3 -44 5 -82 3 -84 -1 -2 -58 -4 -125 -5 -115 -1
-125 1 -157 23 -18 13 -42 42 -52 65 l-19 41 7 -110 c3 -62 12 -122 20 -138
18 -37 57 -55 78 -37 13 11 14 10 9 -5 -7 -17 0 -18 119 -11 l127 6 0 -84 0
-85 -89 -3 c-111 -4 -154 3 -191 30 -27 21 -30 21 -40 4 -8 -14 -9 -12 -4 10
3 16 -1 37 -11 55 -16 28 -16 27 -12 -43 l4 -71 -87 -2 -88 -2 -6 268 c-3 147
-9 337 -12 420 -5 123 -3 154 8 157 12 4 308 20 449 24 l56 2 7 -52z m-759 10
c2 -7 6 -30 10 -51 3 -21 18 -52 34 -69 22 -24 37 -32 78 -35 l50 -5 6 -187
c6 -174 5 -189 -14 -228 -24 -50 -62 -80 -115 -91 -29 -6 -40 -13 -42 -29 -4
-29 -25 -44 -91 -68 -47 -17 -57 -25 -65 -51 l-10 -32 -168 -7 c-93 -4 -171
-5 -173 -3 -3 3 -7 194 -9 426 l-3 422 83 0 84 0 0 -55 c0 -30 5 -55 10 -55 6
0 10 5 10 11 0 20 41 69 73 86 28 15 71 21 225 31 12 1 24 -4 27 -10z m-618
-150 c-35 -68 -73 -138 -84 -156 l-21 -33 -68 118 c-37 65 -76 130 -86 145
-10 14 -18 31 -18 37 0 8 54 11 170 11 l171 0 -64 -122z m-127 -272 c0 -3 -4
-8 -10 -11 -5 -3 -10 -1 -10 4 0 6 5 11 10 11 6 0 10 -2 10 -4z m64 -12 c3 -8
2 -12 -4 -9 -6 3 -10 10 -10 16 0 14 7 11 14 -7z m-18 -172 c11 -20 50 -85 86
-143 l66 -107 -37 -6 c-20 -3 -97 -6 -172 -6 l-136 0 31 63 c44 86 130 236
136 237 3 0 14 -17 26 -38z m1978 -231 c19 -21 14 -82 -9 -101 -19 -16 -45 25
-45 71 0 53 22 66 54 30z m190 -154 c10 10 1 -91 -14 -165 -13 -57 -30 -72
-23 -19 6 41 6 43 0 101 -3 26 -8 50 -11 53 -2 3 0 18 6 35 11 30 11 30 22 9
7 -12 16 -18 20 -14z m-37 -249 c-3 -8 -6 -5 -6 6 -1 11 2 17 5 13 3 -3 4 -12
1 -19z m-1067 -130 c0 -18 -2 -20 -9 -8 -6 8 -7 18 -5 22 9 14 14 9 14 -14z
m507 -541 c-14 -14 -31 -20 -51 -18 -28 3 -74 -15 -88 -34 -4 -5 -10 -6 -14
-2 -11 11 48 57 74 57 12 0 22 4 22 9 0 6 17 10 39 9 l39 0 -21 -21z m55 -45
c5 -18 12 -32 16 -32 5 0 17 -9 29 -19 14 -14 19 -27 15 -50 -4 -30 -32 -57
-45 -44 -3 3 -14 2 -24 -1 -16 -7 -16 -9 7 -27 l25 -20 -32 15 c-43 21 -44 25
-22 66 11 19 19 28 18 20 -3 -33 2 -40 26 -40 21 0 25 5 25 30 0 19 -7 33 -20
40 -11 6 -20 16 -20 22 0 7 -9 22 -21 34 -12 12 -18 28 -14 34 11 18 29 6 37
-28z m-76 -46 c27 -23 28 -24 11 -50 -21 -32 -43 -36 -26 -5 15 29 0 42 -34
30 -35 -14 -62 -4 -46 15 6 8 20 14 30 14 11 0 19 5 19 10 0 16 17 11 46 -14z
m-651 -36 c3 -5 1 -10 -4 -10 -6 0 -11 5 -11 10 0 6 2 10 4 10 3 0 8 -4 11
-10z m504 -91 c1 -23 -3 -27 -24 -25 -26 1 -36 16 -10 16 8 0 15 5 15 10 0 6
-4 10 -10 10 -5 0 -7 7 -4 15 4 8 1 15 -5 15 -7 0 -7 8 1 26 l12 26 12 -33 c7
-19 13 -46 13 -60z m81 14 c5 -7 10 -15 10 -19 0 -4 6 -15 13 -24 6 -9 0 -3
-15 12 -15 15 -32 28 -38 28 -5 0 -10 12 -10 28 1 26 1 26 15 7 8 -11 19 -25
25 -32z m-51 -87 c-9 -8 -10 -7 -5 7 3 10 7 24 7 30 1 7 3 4 6 -7 3 -10 -1
-23 -8 -30z m632 -323 c13 -16 12 -17 -3 -4 -17 13 -22 21 -14 21 2 0 10 -8
17 -17z m-101 -98 c7 -9 8 -15 2 -15 -5 0 -12 7 -16 15 -3 8 -4 15 -2 15 2 0
9 -7 16 -15z m650 -675 l0 -50 45 0 c38 0 45 -3 45 -20 0 -17 -7 -20 -45 -20
-33 0 -45 -4 -45 -15 0 -12 13 -15 60 -15 53 0 60 -2 60 -20 0 -18 -7 -20 -60
-20 l-60 0 0 -30 c0 -28 2 -30 41 -30 45 0 83 -16 73 -31 -3 -6 -24 -7 -48 -4
-33 5 -44 3 -49 -8 -6 -16 -67 -21 -67 -5 0 6 -18 7 -50 3 -35 -5 -50 -3 -50
5 0 13 60 40 90 40 15 0 20 7 20 25 0 24 -3 25 -60 25 -53 0 -60 2 -60 20 0
18 7 20 60 20 53 0 60 2 60 20 0 18 -5 19 -45 13 -41 -5 -45 -4 -45 15 0 17 8
22 45 28 l45 6 0 49 c0 42 3 49 20 49 17 0 20 -7 20 -50z m-2210 -101 l0 -51
47 3 c38 3 49 0 51 -13 3 -14 -7 -19 -47 -24 -33 -4 -51 -11 -51 -20 0 -11 17
-14 66 -14 57 0 65 -2 62 -17 -2 -14 -15 -19 -61 -21 -56 -3 -57 -4 -57 -32 0
-27 3 -30 34 -30 43 0 86 -16 86 -31 0 -8 -15 -10 -46 -6 -32 3 -47 1 -50 -8
-6 -15 -74 -18 -74 -3 0 6 -19 7 -50 3 -81 -11 -61 24 23 39 31 6 37 11 37 31
0 23 -4 24 -62 27 -50 2 -63 6 -66 21 -3 15 5 17 57 17 54 0 61 2 61 20 0 17
-7 20 -46 20 -38 0 -45 3 -42 18 2 12 15 18 46 20 l42 3 0 50 c0 42 3 49 20
49 17 0 20 -7 20 -51z m1298 -52 c28 -18 5 -22 -138 -24 -116 -1 -150 2 -150
12 0 9 23 13 86 13 47 0 87 2 89 4 7 7 101 2 113 -5z m-301 -14 c5 -13 2 -14
-57 -15 -57 -1 -70 1 -70 13 0 5 4 8 9 4 5 -3 12 -2 14 2 8 13 100 9 104 -4z
m171 -31 c30 -3 28 -17 -3 -20 -13 -1 -28 -2 -32 -3 -27 -5 -83 2 -83 10 0 15
37 19 118 13z m80 -9 c2 -8 -6 -13 -22 -13 -15 0 -26 6 -26 14 0 17 42 16 48
-1z m-237 -5 c0 -10 2 -10 6 0 2 6 9 12 15 12 6 0 6 -6 -2 -15 -7 -9 -29 -15
-51 -15 -28 0 -39 4 -39 15 0 19 70 21 71 3z m111 -41 c6 -9 8 -9 8 1 0 6 5
12 10 12 6 0 10 -7 10 -15 0 -12 -15 -15 -72 -16 -40 -1 -100 -1 -132 -2 -59
-1 -92 18 -44 25 68 9 213 6 220 -5z m185 -2 c2 -7 -23 -11 -69 -10 -49 0 -73
4 -76 13 -3 10 13 12 69 10 40 -2 74 -8 76 -13z m1053 -40 c0 -18 -27 -27 -33
-11 -6 16 12 38 25 30 4 -3 8 -11 8 -19z m-1203 -11 c-12 -12 -120 -10 -124 3
-3 8 14 13 54 15 55 3 84 -4 70 -18z m133 11 c11 -13 4 -15 -49 -15 -42 0 -61
4 -61 13 0 18 95 20 110 2z m-350 -10 c0 -8 -9 -15 -20 -15 -11 0 -20 7 -20
15 0 8 9 15 20 15 11 0 20 -7 20 -15z m51 3 c0 -10 2 -10 6 0 5 13 23 7 23 -9
0 -5 -16 -9 -35 -9 -26 0 -33 3 -29 15 7 18 34 20 35 3z m1079 -7 c0 -3 -5
-13 -10 -21 -12 -19 -35 2 -27 24 6 15 37 12 37 -3z m160 -10 c0 -15 -7 -19
-35 -19 -40 0 -49 24 -12 31 42 8 47 7 47 -12z m-1245 -21 c3 -6 -1 -13 -10
-16 -19 -8 -30 0 -20 15 8 14 22 14 30 1z m86 -4 c7 4 10 2 8 -5 -3 -7 -8 -12
-12 -12 -4 1 -20 1 -37 1 -16 0 -30 4 -30 9 0 13 33 19 47 8 7 -5 17 -5 24 -1z
m169 -1 c0 -11 -112 -20 -136 -11 -9 3 -12 10 -9 16 8 13 145 8 145 -5z m1117
-18 c-3 -8 -15 -17 -26 -20 -17 -4 -19 -2 -11 13 16 30 48 35 37 7z m-291 -14
c11 -12 13 -18 5 -21 -19 -6 -41 6 -41 23 0 20 14 19 36 -2z m-892 -8 c3 -10
-1 -15 -12 -16 -9 -1 -45 -3 -79 -5 -49 -3 -63 0 -63 10 0 10 16 14 61 15 34
0 64 3 67 6 10 9 20 5 26 -10z m1054 -2 c-2 -9 -16 -17 -35 -19 -27 -3 -33 0
-33 15 0 15 7 19 36 19 26 0 34 -4 32 -15z m-2068 -13 c0 -23 -25 -27 -33 -6
-7 16 1 26 20 26 7 0 13 -9 13 -20z m-290 -15 c0 -19 -13 -25 -29 -15 -19 11
-6 41 14 34 8 -3 15 -12 15 -19z m160 -9 c0 -7 -12 -16 -27 -19 -32 -6 -43 -1
-43 19 0 9 11 14 35 14 23 0 35 -5 35 -14z m2275 -5 c-12 -11 -113 -26 -102
-15 4 4 26 11 50 15 63 10 62 10 52 0z m-125 -15 c8 -2 -9 -4 -37 -5 -29 0
-53 3 -53 7 0 7 52 6 90 -2z m-2016 -20 c-6 -16 -34 -30 -42 -21 -8 7 19 35
34 35 7 0 11 -6 8 -14z m-288 -17 c19 -21 19 -21 -6 -18 -14 2 -26 12 -28 22
-5 23 11 22 34 -4z m162 -12 c3 -13 -4 -17 -32 -17 -41 0 -51 26 -13 33 32 6
42 3 45 -16z m62 -47 c-8 -5 -33 -9 -55 -9 -39 1 -39 2 -10 9 17 4 41 8 55 9
20 0 22 -1 10 -9z m-122 -7 c-16 -2 -40 -2 -55 0 -16 2 -3 4 27 4 30 0 43 -2
28 -4z"/>
<path d="M4400 6955 c0 -22 4 -26 23 -23 14 2 22 10 22 23 0 13 -8 21 -22 23
-19 3 -23 -1 -23 -23z"/>
<path d="M3650 6945 c0 -8 9 -15 20 -15 11 0 20 7 20 15 0 8 -9 15 -20 15 -11
0 -20 -7 -20 -15z"/>
<path d="M3277 6943 c-3 -4 -4 -30 -2 -58 3 -41 7 -50 22 -50 15 0 18 8 18 55
0 43 -4 55 -17 58 -9 2 -18 -1 -21 -5z"/>
<path d="M5133 6571 c-185 -10 -193 -24 -184 -306 l6 -190 97 -3 c54 -1 107 2
117 8 11 6 29 38 41 76 19 55 28 69 51 78 l29 11 -2 165 c-3 157 -4 165 -23
166 -11 0 -70 -2 -132 -5z"/>
<path d="M2944 6509 c-24 -6 -53 -22 -70 -40 l-29 -30 -5 -197 c-3 -108 -4
-207 -2 -219 3 -21 9 -23 65 -22 93 0 158 14 174 35 7 10 16 36 20 57 7 46 37
87 64 87 18 0 19 9 19 170 l0 170 -97 -1 c-54 -1 -116 -5 -139 -10z"/>
<path d="M2434 6578 c7 -43 12 -55 21 -47 2 3 7 24 11 47 6 39 5 42 -16 42
-21 0 -22 -3 -16 -42z"/>
<path d="M2440 6495 c0 -8 7 -15 15 -15 8 0 15 7 15 15 0 8 -7 15 -15 15 -8 0
-15 -7 -15 -15z"/>
<path d="M2417 5983 c-15 -15 -5 -25 18 -19 27 7 32 -3 13 -22 -6 -6 -8 -15
-5 -19 12 -11 50 34 44 51 -6 16 -57 23 -70 9z"/>
<path d="M2435 5901 c-8 -15 3 -31 21 -31 9 0 14 7 12 17 -4 20 -24 28 -33 14z"/>
<path d="M4620 5630 c0 -19 3 -21 12 -12 9 9 9 15 0 24 -9 9 -12 7 -12 -12z"/>
</g>
</svg>
