<?xml version="1.0" standalone="no"?>
<!DOCTYPE svg PUBLIC "-//W3C//DTD SVG 20010904//EN"
 "http://www.w3.org/TR/2001/REC-SVG-20010904/DTD/svg10.dtd">
<svg version="1.0" xmlns="http://www.w3.org/2000/svg"
 width="684.000000pt" height="1317.000000pt" viewBox="0 0 684.000000 1317.000000"
 preserveAspectRatio="xMidYMid meet">

<g transform="translate(0.000000,1317.000000) scale(0.100000,-0.100000)"
fill="#000000" stroke="none">
<path d="M3690 13163 c-111 -36 -240 -87 -240 -94 0 -5 -9 -9 -20 -9 -11 0
-20 -4 -20 -10 0 -5 -15 -16 -32 -24 -78 -33 -339 -270 -418 -380 -66 -92
-190 -359 -190 -411 0 -9 -12 -57 -26 -108 -15 -51 -30 -108 -34 -127 -4 -19
-19 -87 -33 -150 -14 -63 -28 -146 -32 -185 -4 -38 -13 -110 -21 -160 -22
-133 -45 -429 -34 -433 5 -2 7 -9 5 -15 -2 -7 -6 -50 -8 -97 -3 -50 -2 -73 3
-55 6 24 8 18 9 -32 0 -35 4 -63 9 -63 4 0 6 -34 4 -76 -3 -53 0 -74 7 -70 6
4 12 24 12 44 1 23 3 29 6 15 2 -13 9 -23 15 -23 7 0 7 -5 1 -12 -5 -7 -9 -43
-9 -80 1 -38 -2 -68 -5 -68 -4 0 -7 -19 -7 -42 -1 -78 -2 -89 -9 -85 -5 3 -8
-15 -8 -39 -1 -48 9 -61 13 -17 1 14 4 29 7 31 5 6 6 0 7 -135 1 -48 5 -80 11
-76 5 3 7 -3 3 -13 -5 -17 13 -86 25 -99 3 -3 6 18 7 45 0 28 -2 49 -6 46 -4
-2 -8 27 -9 65 -1 55 2 69 13 69 9 0 12 5 9 10 -3 6 -2 10 4 10 5 0 12 -6 14
-12 3 -8 6 -6 6 4 1 14 28 38 44 38 7 0 -11 -88 -23 -110 -15 -28 -16 -122 -1
-145 11 -17 11 -15 7 20 -2 22 -2 32 0 23 3 -10 10 -18 15 -18 6 0 8 4 5 9
-10 16 -15 121 -5 126 5 4 9 16 10 28 l0 22 9 -22 c10 -25 16 -181 6 -190 -3
-3 -6 -1 -6 5 0 7 -5 12 -11 12 -5 0 -8 -4 -5 -9 7 -11 -29 -44 -52 -46 -9 -1
-24 -5 -32 -8 -8 -3 -37 -9 -65 -12 -27 -4 -63 -14 -79 -22 -34 -18 -147 -51
-301 -88 -187 -46 -461 -138 -563 -189 -26 -13 -65 -29 -87 -36 -75 -24 -205
-98 -282 -161 -23 -19 -60 -47 -83 -64 -58 -42 -166 -157 -189 -203 -11 -21
-23 -56 -27 -77 -4 -22 -25 -83 -47 -135 -22 -52 -58 -147 -82 -211 -28 -78
-67 -158 -117 -240 -71 -116 -117 -198 -198 -359 -18 -36 -49 -87 -67 -113
-19 -27 -51 -97 -71 -155 -43 -127 -49 -227 -19 -327 42 -134 56 -212 38 -201
-13 9 -13 9 -1 -34 6 -21 6 -36 0 -40 -11 -7 35 -158 56 -181 8 -8 14 -19 14
-23 0 -4 9 -21 21 -37 11 -16 17 -29 12 -29 -4 0 0 -5 9 -11 10 -5 18 -19 18
-30 0 -11 -4 -17 -10 -14 -13 8 -13 5 5 -46 18 -50 9 -45 -16 9 l-17 37 3 -60
c2 -33 7 -69 11 -80 5 -15 -2 -12 -27 13 -27 26 -36 45 -45 95 -6 34 -22 118
-35 187 -22 116 -25 167 -18 293 1 26 -1 50 -4 54 -4 3 -7 -5 -7 -18 0 -13 -7
-43 -15 -65 -10 -30 -11 -50 -5 -70 17 -54 43 -228 47 -318 2 -49 8 -95 14
-102 5 -7 9 -18 8 -26 -2 -7 7 -45 19 -85 21 -68 24 -72 54 -75 31 -3 53 -28
25 -28 -8 0 -20 -7 -27 -15 -10 -12 -7 -15 14 -21 21 -5 24 -9 15 -20 -9 -11
-8 -18 1 -29 7 -9 14 -28 15 -43 2 -15 15 -54 31 -87 24 -50 30 -56 32 -36 3
15 -3 30 -14 38 -46 34 -12 246 46 282 25 15 25 15 7 -5 -22 -26 -41 -128 -32
-174 4 -19 8 -65 9 -103 1 -48 7 -72 19 -84 16 -16 17 -16 17 -1 0 9 -4 19 -9
22 -12 8 -20 55 -10 58 7 3 15 30 18 61 1 4 6 7 11 7 6 0 10 -20 10 -45 0 -73
53 -213 70 -186 3 6 16 -9 28 -34 l22 -45 -30 0 c-21 0 -30 5 -30 16 0 10 -5
14 -16 10 -8 -3 -13 -2 -10 3 9 14 -13 77 -34 96 -11 10 -20 14 -20 9 0 -17
25 -64 33 -64 5 0 6 -9 2 -20 -9 -27 24 -80 50 -81 11 0 14 -3 8 -6 -20 -7
-15 -29 12 -61 14 -17 25 -33 25 -36 0 -5 61 -111 115 -201 7 -12 41 -75 76
-140 34 -66 75 -142 90 -170 16 -27 38 -69 51 -92 22 -42 42 -55 50 -31 3 7 7
6 11 -5 3 -9 2 -17 -3 -17 -6 0 -10 -7 -10 -15 0 -20 40 -35 62 -24 13 7 17 4
20 -18 2 -18 10 -29 25 -33 19 -4 20 -7 7 -24 -14 -20 -14 -20 -29 0 -8 10
-15 22 -15 27 0 11 -19 8 -34 -5 -8 -8 -10 -19 -5 -28 4 -8 10 -23 13 -32 7
-23 42 -23 55 -1 5 10 13 15 17 10 4 -4 -1 -16 -11 -27 -16 -18 -17 -30 -2
-85 2 -5 9 -25 17 -42 15 -33 30 -43 30 -20 0 7 7 4 15 -7 14 -19 15 -18 15
10 0 38 -7 46 -31 34 -20 -11 -37 4 -17 16 16 10 78 12 72 2 -3 -4 0 -16 5
-25 9 -16 10 -16 11 5 0 13 6 22 15 22 8 0 15 5 15 11 0 6 11 24 25 41 14 16
25 39 25 51 0 12 7 30 14 40 13 16 15 16 38 -3 14 -10 28 -16 32 -12 4 3 4 -1
1 -10 -4 -9 -1 -19 5 -23 21 -13 75 -13 90 0 14 12 83 35 106 35 5 0 11 -18
12 -40 3 -38 1 -40 -26 -40 -15 0 -33 -5 -39 -11 -14 -14 -5 -47 18 -59 13 -8
16 -16 11 -37 -9 -34 -4 -83 8 -83 9 0 7 -32 -4 -67 -12 -36 -23 -28 -57 39
-17 35 -33 65 -36 68 -3 3 -14 -6 -25 -20 -11 -14 -23 -24 -26 -23 -4 1 -5
-11 -4 -27 3 -24 0 -29 -12 -24 -9 3 -16 1 -16 -5 0 -6 5 -11 11 -11 6 0 1 -9
-12 -21 -17 -14 -20 -22 -11 -25 8 -4 5 -12 -10 -25 -20 -16 -21 -20 -8 -29
10 -6 11 -10 3 -10 -7 0 -13 -7 -13 -15 0 -8 -3 -14 -7 -14 -19 3 -27 -2 -14
-10 10 -6 5 -12 -18 -22 -17 -8 -33 -20 -36 -28 -4 -10 -2 -11 8 -3 9 7 17 8
27 1 12 -8 12 -12 2 -16 -6 -2 -9 -10 -5 -16 4 -7 -2 -5 -12 3 -17 14 -18 13
-12 -10 4 -14 7 -32 7 -41 0 -9 11 -21 25 -27 23 -10 26 -18 24 -55 -2 -24 1
-49 6 -57 5 -9 4 -11 -3 -6 -8 4 -10 2 -6 -8 3 -8 12 -17 20 -20 8 -3 14 -19
14 -36 0 -18 6 -33 15 -36 8 -4 15 -11 15 -18 0 -6 13 -27 30 -46 16 -19 29
-42 29 -50 0 -8 -7 -2 -15 13 -18 33 -47 33 -52 -2 -5 -33 18 -83 34 -77 8 3
14 1 14 -4 0 -6 -5 -10 -12 -10 -6 0 -4 -8 6 -19 16 -18 16 -36 -8 -342 -35
-436 -64 -767 -80 -924 -32 -292 -38 -479 -33 -925 6 -521 22 -990 37 -1075 5
-33 10 -78 10 -100 1 -22 8 -58 16 -80 8 -22 26 -130 39 -240 28 -221 78 -547
92 -597 4 -17 48 -18 737 -18 l732 0 18 218 c16 197 38 393 52 465 5 26 8 27
63 27 32 0 94 11 140 25 46 13 106 28 133 31 l51 7 -7 -139 c-8 -144 -24 -269
-50 -389 -9 -38 -19 -109 -22 -158 l-7 -87 645 0 645 0 6 68 c12 119 85 462
141 657 13 44 32 115 41 158 l18 77 76 44 c154 88 377 206 425 223 78 29 79
30 64 263 -11 180 -10 212 5 294 41 224 60 319 86 431 28 117 29 128 29 405 1
247 -2 309 -23 465 -13 99 -33 280 -45 403 -24 269 -40 369 -84 550 -19 75
-42 173 -51 217 -9 44 -20 94 -25 110 -5 17 -14 49 -20 73 -10 38 -13 41 -31
31 -94 -50 -217 -69 -135 -21 62 37 41 109 -24 82 -44 -18 -46 -7 -2 15 52 27
172 105 172 111 0 3 -44 -18 -97 -47 -54 -29 -129 -70 -168 -91 -68 -36 -118
-48 -129 -29 -3 5 6 12 21 16 34 8 80 41 93 66 13 24 -2 55 -31 64 -22 7 -97
-20 -111 -40 -5 -7 -8 -6 -8 1 0 16 29 39 75 59 50 23 195 117 256 167 26 21
52 38 58 38 6 0 11 5 11 10 0 16 -15 12 -45 -12 -16 -13 -64 -43 -106 -68 -43
-25 -123 -75 -178 -113 -55 -37 -115 -70 -133 -73 -33 -6 -33 -6 15 27 67 48
76 96 23 121 -22 9 -31 7 -66 -16 -47 -31 -54 -32 -40 -6 9 18 65 59 155 115
17 11 46 35 64 52 47 47 112 98 145 114 16 8 32 20 34 27 3 11 0 12 -16 3 -11
-6 -27 -11 -34 -11 -7 0 -4 6 7 12 42 23 75 62 74 87 0 16 -3 20 -6 11 -7 -19
-44 -60 -54 -60 -4 0 -6 16 -3 35 4 30 1 35 -15 35 -11 0 -23 -4 -26 -10 -3
-5 -19 -10 -34 -10 -17 0 -46 -14 -72 -34 -24 -19 -45 -33 -47 -31 -3 2 -17
-2 -33 -10 -30 -16 -59 -20 -59 -7 1 4 19 19 40 34 48 33 54 69 15 94 -21 14
-30 15 -52 5 -14 -6 -28 -9 -31 -7 -18 18 85 76 136 76 18 0 33 5 34 13 0 6 1
19 2 27 1 8 7 16 14 16 6 1 16 2 21 3 8 1 40 124 55 211 3 19 10 134 16 255 5
121 17 267 25 323 28 196 37 318 44 607 6 266 9 293 28 330 11 22 26 65 33 95
18 73 96 207 131 226 44 22 54 18 84 -38 32 -61 73 -108 93 -108 15 0 162
-138 162 -152 0 -4 19 -38 42 -75 39 -63 43 -73 41 -131 -1 -34 -6 -77 -12
-95 -6 -18 -13 -54 -16 -82 -7 -71 -16 -106 -23 -101 -4 2 -8 -7 -8 -20 -1
-15 4 -24 12 -24 9 0 14 -11 14 -27 l0 -27 30 29 c17 16 30 34 30 41 0 6 8 15
18 19 16 8 23 10 47 14 6 1 25 15 44 31 18 17 38 30 42 30 5 0 9 7 9 15 0 11
5 12 26 5 37 -14 96 -12 137 5 49 20 91 58 147 131 39 52 51 80 69 151 12 49
39 133 60 188 104 267 112 340 56 506 -37 107 -90 282 -101 332 -4 17 1 53 11
88 15 50 16 65 6 99 -19 64 -69 168 -127 260 -28 47 -57 105 -64 130 -6 25
-34 96 -62 159 -45 102 -49 118 -43 162 6 41 3 53 -15 80 -13 17 -41 39 -64
49 -22 10 -76 51 -120 91 -43 41 -108 93 -145 117 -36 24 -88 65 -116 91 -94
90 -167 142 -284 200 -64 31 -134 69 -156 82 -22 14 -105 61 -185 104 -151 82
-186 105 -172 114 4 3 16 27 26 54 10 26 24 54 33 62 8 8 12 19 9 23 -3 5 1
20 9 35 7 14 11 28 7 31 -3 3 0 6 7 6 15 0 36 47 40 88 0 7 6 10 13 6 8 -5 9
-2 5 9 -3 10 -2 17 3 17 6 0 10 5 10 12 0 6 7 19 15 28 8 9 16 37 17 62 2 25
7 44 11 41 5 -3 6 -28 2 -57 -5 -42 -4 -48 6 -31 7 11 15 22 19 25 16 12 30
108 31 217 1 114 2 116 13 68 14 -57 21 -47 32 45 10 89 10 92 -2 163 -9 56
-9 67 2 63 7 -3 16 -1 19 3 3 5 -2 11 -10 15 -8 3 -15 11 -15 18 0 9 3 8 10
-2 8 -13 10 -12 10 3 0 10 -7 20 -15 23 -11 5 -12 10 -6 18 11 13 3 88 -8 82
-3 -2 -7 33 -8 78 -1 44 -5 113 -9 151 -9 87 -11 162 -4 237 3 32 2 58 -2 58
-4 0 -8 8 -8 18 0 14 2 15 10 2 7 -10 9 6 7 53 -4 100 14 78 35 -44 19 -107
23 -142 26 -269 2 -61 5 -71 14 -56 14 24 22 108 9 87 -6 -10 -9 7 -8 50 2 94
-14 230 -26 222 -6 -3 -7 -1 -4 4 4 6 0 73 -8 149 -19 168 -24 193 -34 175 -6
-9 -10 -5 -13 13 -5 23 -3 26 16 21 12 -4 16 -3 10 2 -6 4 -10 16 -8 26 1 9
-2 17 -8 17 -6 0 -8 -7 -4 -15 3 -8 1 -15 -4 -15 -6 0 -10 3 -11 8 0 4 -2 17
-5 30 -2 12 1 22 7 22 5 0 7 -4 4 -10 -3 -5 -1 -10 5 -10 6 0 8 10 4 28 -10
39 -15 46 -25 31 -7 -11 -9 -10 -9 3 0 9 4 18 9 20 20 7 -53 216 -146 418
-150 324 -383 564 -638 658 -58 21 -88 26 -171 26 -70 0 -107 -4 -118 -13 -13
-11 -24 -8 -71 23 -30 21 -60 34 -67 30 -7 -4 -8 -3 -4 4 5 9 -31 12 -141 11
-81 0 -155 -3 -163 -6z m687 -79 c-3 -3 -12 -4 -19 -1 -8 3 -5 6 6 6 11 1 17
-2 13 -5z m793 -949 c0 -8 -2 -15 -4 -15 -2 0 -6 7 -10 15 -3 8 -1 15 4 15 6
0 10 -7 10 -15z m-1671 -51 c57 -5 81 -17 81 -40 0 -21 43 -36 135 -50 44 -6
106 -6 113 0 3 4 14 -1 24 -11 11 -10 18 -12 18 -4 0 8 8 6 24 -4 19 -13 40
-15 97 -10 40 3 77 9 83 13 6 4 25 9 41 11 17 1 37 9 46 17 9 8 19 11 22 7 4
-3 7 -1 7 6 0 7 4 10 9 7 5 -3 16 5 26 18 15 19 23 22 50 16 18 -4 40 -3 49 2
10 6 25 8 35 5 9 -2 23 2 30 10 11 12 15 12 27 -4 12 -16 13 -16 14 -2 0 15
40 35 40 21 0 -9 172 -8 186 0 19 12 65 -36 75 -78 26 -109 44 -394 44 -694 0
-155 -1 -155 -44 -290 -23 -74 -47 -146 -51 -160 -5 -14 -23 -79 -39 -145 -16
-66 -44 -148 -61 -182 -29 -57 -134 -173 -177 -196 -10 -6 -40 -26 -66 -45
-37 -27 -45 -37 -36 -48 7 -9 10 -60 8 -153 -3 -102 0 -144 9 -153 6 -6 12
-22 12 -34 0 -13 16 -50 35 -83 19 -32 35 -65 36 -73 1 -7 4 -2 8 12 4 14 10
20 14 14 10 -18 -32 -86 -84 -136 -151 -143 -356 -222 -606 -235 -191 -10
-330 21 -515 112 -126 62 -197 111 -193 132 2 10 4 29 4 42 1 34 8 23 15 -24
4 -22 14 -46 24 -53 15 -12 18 -9 23 20 4 18 7 25 8 16 1 -20 31 -25 31 -5 0
8 4 7 10 -3 8 -12 10 -12 11 5 0 19 1 18 11 -2 6 -13 15 -23 20 -23 5 0 6 -4
3 -10 -3 -5 -1 -10 4 -10 6 0 11 10 11 22 0 17 3 19 12 10 7 -7 16 -12 20 -12
13 0 9 45 -4 59 -8 8 -8 11 -2 8 16 -9 24 38 10 55 -6 7 2 2 17 -12 16 -14 25
-30 22 -40 -3 -9 1 -8 10 4 11 14 12 22 4 27 -7 4 -9 14 -6 22 4 11 1 14 -9
10 -22 -8 -17 3 21 43 24 25 35 32 35 20 0 -9 4 -16 10 -16 5 0 7 6 4 14 -3 8
4 19 16 26 18 9 25 8 41 -6 20 -18 86 -28 94 -14 8 14 -5 37 -28 49 -12 6 -15
10 -6 7 12 -3 15 2 11 21 -3 15 -7 20 -12 13 -5 -8 -9 -7 -13 4 -4 9 -1 15 6
13 7 -1 11 5 9 13 -2 8 0 11 5 7 4 -5 8 -12 9 -15 2 -18 17 -42 26 -42 6 0 5
7 -2 15 -16 19 -5 34 12 17 23 -23 29 -12 9 17 -20 27 -20 30 -4 34 15 4 14 5
-3 6 -12 0 -28 9 -35 19 -12 15 -12 16 1 6 23 -18 112 -8 124 13 10 17 12 23
15 49 0 7 10 14 21 17 11 3 20 12 20 21 0 9 12 18 28 22 15 3 45 15 68 25 22
10 48 19 57 19 9 0 17 4 17 10 0 5 -7 7 -15 4 -8 -4 -15 -2 -15 3 0 6 -18 18
-40 28 -22 10 -40 21 -40 25 0 3 -9 16 -21 28 -23 25 -51 87 -43 95 3 3 -4 8
-15 12 -12 3 -21 13 -21 21 0 9 -11 14 -30 14 -19 0 -39 10 -57 28 -29 28 -68
112 -79 170 -4 17 -13 32 -20 32 -8 0 -14 6 -14 13 0 8 -14 41 -30 75 -17 33
-33 75 -35 92 -2 18 -11 40 -19 49 -9 10 -13 21 -10 24 4 4 2 13 -4 20 -7 8
-13 30 -14 50 -2 20 -6 37 -9 37 -3 0 -25 44 -50 98 l-44 97 0 127 c0 69 -3
124 -7 122 -3 -2 -4 5 -1 17 4 16 8 17 14 7 9 -13 14 23 10 65 -1 9 1 17 6 17
18 0 91 -30 136 -55 55 -31 75 -36 101 -23 12 7 16 7 12 0 -3 -6 -2 -13 4 -17
5 -3 10 0 10 7 0 16 70 20 70 4 0 -6 7 -2 15 8 17 23 45 30 46 13 0 -7 4 -3 9
9 7 18 17 21 76 23 37 1 71 4 76 7 5 3 -23 38 -62 76 -39 39 -68 73 -65 76 3
3 26 -10 51 -28 l46 -33 -18 28 c-10 15 -43 39 -74 53 -45 21 -75 26 -165 30
-60 2 -115 8 -121 13 -6 5 -36 7 -67 5 -54 -4 -57 -3 -57 19 0 33 39 60 108
75 51 10 65 10 108 -5 27 -10 72 -26 99 -35 28 -10 71 -27 96 -39 25 -11 71
-23 102 -27 l56 -7 -4 33 c-2 18 -6 34 -8 37 -17 16 -364 123 -401 123 -32 0
-105 -32 -134 -59 l-22 -22 -11 28 c-18 46 -7 167 17 200 26 35 89 45 149 25
22 -7 64 -15 94 -18z m1698 -56 c-3 -8 -6 -5 -6 6 -1 11 2 17 5 13 3 -3 4 -12
1 -19z m-440 -50 c-3 -8 -6 -5 -6 6 -1 11 2 17 5 13 3 -3 4 -12 1 -19z m420
-170 c-3 -8 -6 -5 -6 6 -1 11 2 17 5 13 3 -3 4 -12 1 -19z m-1573 -194 c20 -8
21 -24 2 -24 -8 0 -16 7 -20 15 -6 17 -4 18 18 9z m92 -29 c4 -8 15 -15 25
-15 10 0 19 -4 19 -9 0 -12 -24 -18 -78 -20 l-43 -2 22 31 c25 33 46 39 55 15z
m-191 -25 c3 -6 -1 -7 -9 -4 -18 7 -21 14 -7 14 6 0 13 -4 16 -10z m-868 -172
c-3 -8 -6 -5 -6 6 -1 11 2 17 5 13 3 -3 4 -12 1 -19z m-20 -180 c-3 -8 -6 -5
-6 6 -1 11 2 17 5 13 3 -3 4 -12 1 -19z m-10 -100 c-3 -8 -6 -5 -6 6 -1 11 2
17 5 13 3 -3 4 -12 1 -19z m106 -590 c17 -10 18 -58 1 -58 -8 0 -14 6 -14 13
-1 6 -3 30 -5 52 -2 22 -1 31 2 20 3 -11 10 -23 16 -27z m-10 -93 c-3 -9 -8
-14 -10 -11 -3 3 -2 9 2 15 9 16 15 13 8 -4z m-56 -17 c-3 -8 -6 -5 -6 6 -1
11 2 17 5 13 3 -3 4 -12 1 -19z m40 -50 c-3 -8 -6 -5 -6 6 -1 11 2 17 5 13 3
-3 4 -12 1 -19z m1798 -292 c0 -15 -4 -21 -9 -16 -5 5 -6 16 -3 24 9 22 12 20
12 -8z m112 -58 c-3 -8 -6 -5 -6 6 -1 11 2 17 5 13 3 -3 4 -12 1 -19z m-1162
-87 c3 -5 2 -12 -3 -15 -5 -3 -9 1 -9 9 0 17 3 19 12 6z m-537 -81 c-2 -18 3
-30 10 -26 5 3 9 -11 10 -31 l2 -36 -23 21 c-12 11 -30 35 -40 52 l-18 30 30
-2 c16 -1 29 -5 29 -8z m326 -96 c3 -8 2 -12 -4 -9 -6 3 -10 10 -10 16 0 14 7
11 14 -7z m1743 -430 c-2 -2 -12 -1 -22 3 -18 6 -18 7 1 13 17 7 33 -5 21 -16z
m-1567 -903 c47 -6 149 -15 228 -21 210 -18 215 -18 237 -23 32 -6 29 -32 -13
-109 -22 -40 -45 -89 -51 -108 -19 -61 -75 -546 -71 -615 0 -16 -4 -81 -11
-143 -8 -70 -9 -116 -3 -122 10 -10 141 -16 599 -25 264 -6 284 -5 345 14 36
11 82 21 103 21 43 0 45 -5 23 -102 -14 -63 -35 -235 -57 -486 -7 -76 -18
-140 -25 -150 -12 -16 -15 -14 -38 14 -33 40 -51 47 -236 83 -124 24 -213 33
-443 47 -158 9 -290 14 -292 12 -3 -2 -7 -54 -11 -114 l-7 -111 69 -16 c38 -9
114 -21 169 -27 55 -5 159 -17 230 -25 263 -31 353 -36 490 -30 214 9 301 22
353 51 l45 25 -7 -58 c-4 -32 -11 -150 -16 -263 -10 -232 -26 -381 -41 -391
-6 -3 -47 12 -91 35 l-80 41 -232 7 c-127 3 -289 11 -361 17 -71 6 -157 13
-190 15 -33 2 -135 9 -228 16 -92 7 -169 11 -171 9 -2 -2 -7 -130 -10 -284 -3
-154 -8 -321 -12 -372 -4 -51 -3 -116 0 -146 l7 -54 102 -16 c56 -8 156 -25
222 -36 66 -11 170 -27 230 -37 61 -9 171 -32 245 -51 257 -65 300 -83 388
-161 42 -37 44 -43 56 -123 16 -103 32 -142 88 -211 23 -29 58 -87 77 -128 18
-41 42 -93 52 -115 42 -91 79 -313 79 -470 0 -49 5 -150 12 -223 14 -167 3
-267 -51 -430 -66 -201 -171 -390 -307 -552 -134 -160 -245 -248 -412 -328
-87 -41 -158 -49 -326 -34 -67 6 -123 6 -145 0 -20 -5 -105 -9 -190 -8 -120 0
-166 -3 -205 -16 -29 -10 -85 -18 -131 -18 l-80 -1 3 200 c2 110 8 256 14 325
5 69 11 446 13 838 2 393 6 739 10 770 9 77 -5 112 -44 112 -17 0 -41 -5 -55
-11 -34 -16 -43 -68 -51 -299 -4 -102 -11 -248 -16 -325 -5 -77 -13 -319 -19
-538 -5 -220 -14 -424 -20 -455 -25 -149 -18 -392 15 -520 13 -52 13 -53 -11
-69 -21 -13 -31 -14 -63 -5 -56 17 -78 47 -85 117 -4 33 -9 67 -11 75 -2 8 -6
27 -9 42 -9 41 -23 34 -53 -27 l-27 -55 -65 0 c-71 0 -181 -19 -181 -32 0 -4
-22 -8 -48 -8 -70 0 -173 53 -242 124 -30 31 -96 90 -146 130 -126 103 -184
171 -231 268 -22 46 -72 148 -111 228 -38 80 -77 175 -86 211 -17 70 -42 280
-52 434 -3 50 -9 142 -14 205 -20 243 -2 609 35 695 9 22 23 60 32 85 45 133
134 256 218 306 24 13 75 31 115 40 40 8 89 22 109 30 146 62 354 104 513 104
111 0 216 -18 245 -42 10 -8 13 0 13 44 0 30 3 89 6 132 6 60 10 76 22 74 9
-2 16 6 18 20 4 21 3 22 -12 8 -16 -17 -29 -21 -20 -8 4 7 20 318 29 562 l2
65 -80 11 c-44 6 -120 19 -170 28 -69 13 -137 16 -290 14 -121 -1 -248 3 -321
12 -135 15 -236 5 -308 -30 l-38 -19 6 72 c3 40 11 189 17 332 6 143 12 261
13 262 1 2 18 -8 36 -22 19 -14 40 -25 47 -25 7 0 13 -7 13 -16 0 -11 4 -14
13 -7 6 5 53 8 102 6 50 -1 223 -5 385 -7 162 -3 313 -9 335 -14 22 -5 88 -8
147 -8 84 1 111 4 123 17 11 11 19 47 25 114 6 53 8 101 5 105 -3 4 -28 10
-57 13 -29 3 -141 15 -248 27 -202 23 -264 23 -470 -1 -103 -12 -106 -13 -142
-51 -26 -28 -38 -36 -44 -26 -4 7 -8 176 -9 376 0 278 3 366 12 369 21 8 83
-18 84 -35 0 -9 3 -12 5 -5 4 9 17 8 52 -2 26 -8 146 -23 267 -34 121 -12 245
-25 275 -31 30 -5 87 -12 125 -15 39 -3 100 -8 136 -11 l66 -6 12 98 c6 55 16
142 21 194 6 52 22 141 35 197 28 112 32 191 21 388 -9 158 -8 177 4 210 11
29 21 30 150 16z m-2016 -986 c27 -26 70 -53 99 -63 46 -15 52 -22 75 -72 14
-32 28 -87 33 -132 4 -42 14 -87 23 -100 39 -60 71 -278 96 -650 11 -167 24
-337 30 -378 14 -115 42 -461 37 -466 -7 -7 -39 51 -82 147 -21 46 -70 147
-108 224 -104 209 -189 448 -238 670 -11 49 -38 151 -60 225 -23 74 -44 149
-49 165 -4 17 -33 93 -64 170 -31 77 -56 146 -56 155 0 25 21 40 56 40 26 0
43 11 86 55 29 30 58 54 63 54 6 1 32 -19 59 -44z m297 -2354 c-6 -10 -7 -21
-4 -25 3 -3 0 -6 -9 -6 -8 0 -15 -7 -15 -15 0 -8 4 -15 9 -15 4 0 8 -10 8 -22
0 -17 3 -20 9 -9 12 18 42 6 35 -14 -3 -8 -10 -15 -15 -15 -5 0 -9 -6 -9 -14
0 -8 -3 -16 -7 -18 -5 -1 -15 -19 -24 -38 l-16 -35 -22 44 c-11 25 -21 58 -21
73 0 41 24 93 51 112 31 21 42 20 30 -3z m41 -166 c-2 -14 -8 -22 -13 -19 -5
3 -12 -2 -15 -10 -3 -9 -11 -13 -16 -10 -7 4 -8 -6 -3 -27 4 -25 3 -30 -4 -19
-17 24 -13 48 9 60 11 6 18 15 15 21 -8 12 3 29 19 29 9 0 12 -9 8 -25z m-125
-32 c0 -10 -4 -21 -9 -24 -4 -3 9 -16 29 -30 26 -16 39 -33 41 -52 2 -15 8
-27 14 -27 6 0 8 -3 5 -7 -4 -3 0 -15 9 -25 16 -17 15 -21 -7 -63 -13 -25 -28
-45 -32 -45 -5 0 -6 4 -2 9 3 6 -3 14 -13 20 -27 14 -72 83 -74 114 -1 15 -6
27 -10 27 -17 0 -7 68 13 94 24 30 36 33 36 9z m125 -55 c-7 -7 -12 -8 -12 -2
0 14 12 26 19 19 2 -3 -1 -11 -7 -17z m43 -10 c-4 -34 -3 -34 -25 -34 -23 0
-25 8 -8 36 17 27 36 25 33 -2z m-62 -18 c3 -11 1 -20 -4 -20 -5 0 -9 9 -9 20
0 11 2 20 4 20 2 0 6 -9 9 -20z m3242 -130 c-10 -17 -45 -32 -45 -20 0 6 10
15 23 20 29 12 29 12 22 0z m-3235 -15 c-7 -9 -15 -13 -19 -10 -3 3 1 10 9 15
21 14 24 12 10 -5z m30 -46 c0 -5 -7 -9 -15 -9 -9 0 -15 9 -15 21 0 18 2 19
15 9 8 -7 15 -16 15 -21z m3600 -104 c0 -7 -118 -65 -132 -65 -7 1 16 16 52
35 64 34 80 40 80 30z"/>
<path d="M4540 11851 c0 -5 -28 -11 -62 -14 -76 -6 -114 -12 -193 -32 -61 -16
-75 -27 -75 -58 0 -17 7 -18 68 -14 37 3 85 9 107 15 22 6 68 16 103 24 34 7
62 16 62 20 0 4 7 4 17 1 11 -4 14 -3 9 5 -15 25 52 11 106 -22 40 -24 58 -30
62 -21 5 15 -34 54 -84 84 -35 21 -120 30 -120 12z"/>
<path d="M4360 11681 c-67 -14 -139 -71 -117 -94 1 -1 -8 -13 -20 -27 -31 -32
-29 -38 15 -45 20 -4 44 -7 52 -9 8 -1 14 -8 12 -15 -2 -9 3 -11 13 -8 8 4 15
1 15 -5 0 -7 5 -6 15 2 13 10 19 10 33 -4 23 -20 30 -20 35 2 3 14 6 13 15 -8
9 -22 11 -22 12 -5 1 19 1 19 14 2 12 -16 14 -16 20 -1 5 13 9 14 21 4 10 -9
15 -9 15 -1 0 6 3 10 8 9 15 -3 62 15 62 24 0 5 5 6 12 2 7 -5 9 -2 5 9 -4 11
2 19 21 26 22 7 23 10 7 10 -17 1 -15 4 10 19 17 11 36 27 44 36 13 16 12 17
-14 10 -20 -5 -31 -3 -39 8 -32 44 -177 76 -266 59z m70 -100 c0 -11 -26 -22
-34 -14 -12 12 -5 23 14 23 11 0 20 -4 20 -9z m79 -10 l24 -19 -31 -16 c-45
-23 -50 -20 -38 19 13 40 13 41 45 16z m-189 -33 c0 -10 -19 -9 -45 2 -11 5
-14 9 -7 9 7 1 11 5 8 10 -4 5 0 11 6 14 13 5 38 -19 38 -35z"/>
<path d="M3854 11543 c6 -52 17 -72 39 -73 4 0 7 22 7 48 0 35 -5 54 -18 65
-30 27 -35 20 -28 -40z"/>
<path d="M3806 11452 c-2 -4 -1 -14 5 -22 7 -12 9 -10 9 8 0 23 -5 28 -14 14z"/>
<path d="M3840 11235 c-7 -8 -19 -15 -28 -15 -8 0 -13 -2 -10 -5 3 -3 -7 -19
-23 -36 -53 -57 -62 -136 -18 -160 23 -12 41 -3 20 10 -29 18 14 18 49 -1 19
-10 46 -18 60 -19 l25 -1 -25 -8 c-24 -8 -23 -8 8 -9 17 -1 32 3 32 8 0 5 9 7
20 4 27 -7 25 6 -7 39 -32 33 -46 35 -81 7 l-27 -20 -17 21 c-23 29 -23 41 2
47 18 5 25 21 21 46 -1 4 6 24 14 43 24 58 15 85 -15 49z"/>
<path d="M4105 11051 c-3 -6 4 -15 15 -21 17 -9 20 -8 20 10 0 20 -24 28 -35
11z"/>
<path d="M3457 10823 c-12 -11 -8 -34 8 -49 8 -9 15 -12 15 -7 0 4 4 3 8 -4 4
-7 13 -9 20 -4 9 5 9 14 0 39 -11 30 -35 41 -51 25z"/>
<path d="M4447 10776 c-3 -8 2 -16 12 -19 11 -3 17 2 17 14 0 22 -21 25 -29 5z"/>
<path d="M3762 10752 c-46 -10 -83 -21 -84 -26 0 -5 26 -27 58 -48 42 -27 69
-38 96 -38 21 0 38 3 38 8 0 12 -14 29 -30 35 -10 5 -9 6 5 4 11 -1 26 2 33 6
8 5 12 3 12 -7 0 -22 20 -20 21 2 0 14 2 14 9 -3 7 -17 9 -17 9 -3 1 23 25 13
39 -15 9 -18 11 -19 11 -4 1 16 5 19 34 21 6 1 15 5 19 11 4 5 17 4 32 -4 17
-10 29 -11 38 -4 20 15 101 26 93 12 -6 -8 -2 -8 13 0 11 6 31 11 43 11 36 0
13 13 -38 20 -28 5 -53 4 -60 -2 -7 -5 -22 -9 -35 -7 -13 1 -31 -2 -42 -6 -12
-5 -21 -3 -27 6 -6 11 -9 11 -9 1 0 -9 -5 -10 -18 -3 -9 5 -30 7 -46 4 -18 -4
-31 -1 -37 8 -6 10 -9 10 -9 2 0 -19 -57 -16 -64 3 -8 22 -8 22 17 27 16 3 14
4 -8 5 -16 0 -67 -7 -113 -16z"/>
<path d="M3550 9986 c7 -7 13 -7 20 0 6 6 3 10 -10 10 -13 0 -16 -4 -10 -10z"/>
<path d="M3516 8325 c-3 -10 -12 -15 -19 -12 -8 3 -20 1 -28 -4 -10 -6 -11 -9
-1 -10 21 -3 27 -4 38 -12 7 -4 14 0 18 8 3 8 14 15 25 15 11 0 23 5 26 10 3
6 0 10 -9 10 -8 0 -21 3 -29 6 -8 3 -17 -2 -21 -11z"/>
<path d="M3370 8211 c0 -12 5 -21 10 -21 6 0 10 6 10 14 0 8 -4 18 -10 21 -5
3 -10 -3 -10 -14z"/>
<path d="M3693 7525 c-13 -29 1 -34 17 -6 12 23 13 31 3 31 -5 0 -13 -11 -20
-25z"/>
<path d="M4720 7170 c-7 -17 -10 -33 -8 -36 3 -2 11 9 18 26 7 17 10 33 8 36
-3 2 -11 -9 -18 -26z"/>
<path d="M2668 7163 c7 -3 16 -2 19 1 4 3 -2 6 -13 5 -11 0 -14 -3 -6 -6z"/>
<path d="M2670 7108 c0 -9 -6 -19 -12 -21 -10 -4 -10 -6 0 -6 14 -1 28 26 18
36 -3 4 -6 -1 -6 -9z"/>
<path d="M2671 7057 c-8 -11 -5 -17 13 -27 33 -17 53 -4 30 21 -20 23 -28 24
-43 6z"/>
<path d="M2150 7028 c0 -19 2 -20 10 -8 13 19 13 30 0 30 -5 0 -10 -10 -10
-22z"/>
<path d="M2175 7010 c3 -5 8 -10 11 -10 2 0 4 5 4 10 0 6 -5 10 -11 10 -5 0
-7 -4 -4 -10z"/>
<path d="M3310 7013 c0 -5 5 -15 10 -23 8 -13 10 -12 10 3 0 11 4 15 12 11 7
-4 8 -3 4 4 -8 13 -36 16 -36 5z"/>
<path d="M2690 7000 c-8 -5 -12 -12 -9 -15 4 -3 12 1 19 10 14 17 11 19 -10 5z"/>
<path d="M2161 6754 c0 -11 3 -14 6 -6 3 7 2 16 -1 19 -3 4 -6 -2 -5 -13z"/>
<path d="M2081 6344 c0 -11 3 -14 6 -6 3 7 2 16 -1 19 -3 4 -6 -2 -5 -13z"/>
<path d="M2923 6185 c0 -8 4 -15 9 -15 4 0 8 7 8 15 0 8 -4 15 -8 15 -5 0 -9
-7 -9 -15z"/>
<path d="M3510 6190 c0 -5 5 -10 11 -10 5 0 7 5 4 10 -3 6 -8 10 -11 10 -2 0
-4 -4 -4 -10z"/>
<path d="M2090 6169 c0 -6 -7 -9 -15 -5 -21 8 -19 -11 3 -23 15 -8 18 -5 20
15 1 13 0 24 -3 24 -3 0 -5 -5 -5 -11z"/>
<path d="M1890 6146 c0 -9 5 -16 10 -16 6 0 10 4 10 9 0 6 -4 13 -10 16 -5 3
-10 -1 -10 -9z"/>
<path d="M3307 5712 c-24 -10 -58 -68 -51 -87 4 -11 -1 -15 -17 -15 -21 0 -63
-18 -49 -21 32 -5 79 -2 78 6 -1 6 1 17 5 25 3 8 8 26 11 40 3 14 18 33 33 42
28 18 23 23 -10 10z"/>
<path d="M3190 5454 c0 -8 5 -12 10 -9 6 3 10 10 10 16 0 5 -4 9 -10 9 -5 0
-10 -7 -10 -16z"/>
<path d="M3115 5411 c-3 -6 4 -8 16 -6 30 6 37 15 11 15 -11 0 -23 -4 -27 -9z"/>
<path d="M3091 5394 c0 -11 3 -14 6 -6 3 7 2 16 -1 19 -3 4 -6 -2 -5 -13z"/>
<path d="M3090 5361 c0 -5 -10 -11 -22 -13 -33 -5 -32 -23 2 -23 24 0 30 4 30
23 0 12 -2 22 -5 22 -3 0 -5 -4 -5 -9z"/>
<path d="M4352 4728 c-5 -7 -13 -24 -16 -38 -6 -23 -6 -23 5 -5 6 11 19 28 27
38 8 9 10 17 5 17 -6 0 -15 -6 -21 -12z"/>
<path d="M2877 4710 c-13 -13 -15 -20 -7 -25 15 -9 33 8 28 27 -2 13 -6 12
-21 -2z"/>
<path d="M3050 4664 c0 -8 5 -12 10 -9 6 4 8 11 5 16 -9 14 -15 11 -15 -7z"/>
<path d="M2860 4658 c0 -8 7 -15 15 -15 18 0 15 19 -3 25 -7 2 -12 -3 -12 -10z"/>
<path d="M3049 4622 c-15 -17 -15 -20 2 -30 15 -10 17 -9 13 3 -4 9 -1 22 6
30 7 8 8 15 3 15 -5 0 -16 -8 -24 -18z"/>
<path d="M3012 4560 c-9 -15 -10 -26 -3 -38 9 -15 10 -14 11 5 0 12 5 25 10
28 12 7 13 25 2 25 -4 0 -13 -9 -20 -20z"/>
<path d="M4415 4570 c-3 -5 1 -10 10 -10 9 0 13 5 10 10 -3 6 -8 10 -10 10 -2
0 -7 -4 -10 -10z"/>
<path d="M2528 4484 c-37 -8 -89 -24 -115 -35 -27 -12 -79 -32 -118 -45 -104
-36 -138 -63 -174 -136 -39 -80 -49 -152 -57 -408 -9 -290 11 -423 105 -689
72 -204 152 -316 268 -373 55 -27 73 -31 126 -28 165 8 293 4 325 -9 30 -13
33 -17 30 -50 -2 -27 1 -36 12 -36 10 0 16 13 18 43 3 37 1 42 -17 42 -13 0
-21 7 -21 16 0 14 2 15 17 3 15 -12 16 -12 10 3 -3 9 -1 19 6 21 13 4 15 484
2 607 -4 36 -7 72 -7 80 2 54 -23 361 -29 372 -6 10 -11 10 -20 1 -8 -8 -12
-89 -13 -287 0 -151 -2 -274 -3 -272 -2 1 -10 43 -18 92 -12 64 -15 140 -13
269 3 178 -13 506 -32 680 -5 50 -7 105 -4 123 l6 32 -108 -1 c-60 0 -139 -7
-176 -15z m352 -1292 c-6 -21 -8 -13 -8 33 0 51 1 55 8 27 4 -19 4 -46 0 -60z
m7 -74 c-3 -7 -5 -2 -5 12 0 14 2 19 5 13 2 -7 2 -19 0 -25z m30 -298 c-2 -24
-17 -15 -17 11 0 11 4 18 9 14 6 -3 9 -14 8 -25z"/>
<path d="M3420 4383 c1 -16 47 -41 60 -33 9 6 7 10 -9 15 -11 3 -21 11 -21 16
0 5 -7 9 -15 9 -8 0 -15 -3 -15 -7z"/>
<path d="M3888 4385 c-3 -3 -1 -29 4 -58 7 -34 6 -86 -1 -152 -6 -55 -13 -179
-16 -275 -3 -96 -13 -296 -21 -445 -8 -148 -16 -281 -16 -295 -7 -202 -33
-401 -62 -470 -7 -17 2 -19 204 -66 104 -24 198 -22 257 7 27 13 86 61 137
113 50 50 124 120 164 156 82 72 89 82 107 154 8 28 25 92 39 141 39 134 52
311 38 498 -24 296 -53 358 -217 457 -38 24 -83 54 -99 67 -64 53 -113 70
-315 108 -46 9 -106 27 -132 41 -50 25 -62 28 -71 19z"/>
<path d="M3266 4365 c-3 -8 -1 -15 4 -15 6 0 10 7 10 15 0 8 -2 15 -4 15 -2 0
-6 -7 -10 -15z"/>
<path d="M3210 4333 c0 -13 5 -23 10 -23 13 0 13 11 0 30 -8 12 -10 11 -10 -7z"/>
<path d="M3403 4335 c-9 -24 1 -27 20 -5 14 17 15 20 2 20 -9 0 -18 -7 -22
-15z"/>
<path d="M3200 4277 c0 -9 -4 -17 -10 -17 -5 0 -10 -14 -10 -32 0 -33 7 -35
13 -2 2 10 7 27 12 37 4 10 5 21 1 24 -3 4 -6 -1 -6 -10z"/>
<path d="M3380 4240 c0 -11 2 -20 5 -20 2 0 9 9 15 20 9 16 8 20 -5 20 -8 0
-15 -9 -15 -20z"/>
<path d="M3477 4233 c-7 -11 10 -40 18 -31 4 4 3 14 -3 24 -5 9 -12 12 -15 7z"/>
<path d="M3467 4054 c-20 -27 -14 -32 10 -9 8 8 13 19 11 24 -2 5 -11 -2 -21
-15z"/>
<path d="M2887 4063 c-9 -9 -7 -82 3 -113 6 -18 8 -4 9 48 1 72 0 78 -12 65z"/>
<path d="M1997 3201 c-4 -17 -3 -21 5 -13 5 5 8 16 6 23 -3 8 -7 3 -11 -10z"/>
<path d="M3750 3060 c0 -5 5 -10 10 -10 6 0 10 5 10 10 0 6 -4 10 -10 10 -5 0
-10 -4 -10 -10z"/>
<path d="M2037 3030 c-3 -11 -3 -20 -1 -20 2 0 8 9 14 20 6 11 7 20 2 20 -6 0
-12 -9 -15 -20z"/>
<path d="M3110 2660 c-9 -6 -10 -10 -3 -10 6 0 15 5 18 10 8 12 4 12 -15 0z"/>
<path d="M2906 2643 c5 -5 12 -12 16 -18 4 -6 8 -2 8 8 0 9 -7 17 -17 17 -9 0
-12 -3 -7 -7z"/>
<path d="M3078 2633 c7 -3 16 -2 19 1 4 3 -2 6 -13 5 -11 0 -14 -3 -6 -6z"/>
<path d="M2192 2520 c0 -14 2 -19 5 -12 2 6 2 18 0 25 -3 6 -5 1 -5 -13z"/>
<path d="M2580 2400 c0 -5 5 -10 11 -10 5 0 7 5 4 10 -3 6 -8 10 -11 10 -2 0
-4 -4 -4 -10z"/>
<path d="M1625 4989 c-4 -6 -5 -12 -2 -15 2 -3 7 2 10 11 7 17 1 20 -8 4z"/>
<path d="M5317 11055 c3 -44 10 -91 14 -105 4 -14 5 11 2 55 -4 44 -10 91 -14
105 -4 14 -5 -11 -2 -55z"/>
<path d="M5342 11025 c0 -16 2 -22 5 -12 2 9 2 23 0 30 -3 6 -5 -1 -5 -18z"/>
<path d="M2612 10295 c0 -16 2 -22 5 -12 2 9 2 23 0 30 -3 6 -5 -1 -5 -18z"/>
<path d="M2690 10246 c0 -14 4 -27 8 -30 5 -3 6 8 4 25 -5 35 -12 38 -12 5z"/>
<path d="M6243 6511 c-40 -25 -52 -60 -27 -78 47 -35 127 5 122 61 -3 26 -7
31 -33 34 -17 1 -44 -6 -62 -17z m32 -31 c-3 -5 -11 -10 -16 -10 -6 0 -7 5 -4
10 3 6 11 10 16 10 6 0 7 -4 4 -10z"/>
<path d="M6310 6414 c-14 -7 -32 -14 -40 -14 -24 0 -80 -38 -80 -55 0 -8 11
-22 25 -31 21 -14 32 -15 67 -6 35 9 46 8 59 -4 15 -14 16 -23 9 -89 0 -5 -7
5 -15 23 -8 17 -21 32 -29 32 -13 0 -36 -48 -36 -77 0 -8 -9 -26 -20 -41 -23
-31 -39 -132 -29 -180 9 -42 -4 -49 -49 -26 -21 11 -38 20 -40 21 -2 1 1 10 6
20 16 31 -13 105 -63 161 -29 32 -45 59 -45 76 0 24 4 26 40 26 29 0 42 5 50
19 15 29 -7 71 -37 71 -33 0 -63 -17 -63 -36 0 -8 -5 -12 -11 -9 -6 4 -8 14
-5 22 3 8 -4 27 -15 42 -24 33 -91 50 -115 30 -16 -13 -16 -13 -31 15 -9 16
-11 17 -16 2 -4 -10 -3 -15 2 -12 18 12 18 -22 0 -37 -10 -9 -19 -13 -20 -9
-1 4 -5 -6 -9 -23 -38 -134 -46 -171 -91 -400 -12 -60 -25 -126 -29 -145 -13
-62 -72 -242 -123 -375 -62 -164 -78 -215 -67 -215 5 0 12 5 15 10 8 12 25 13
25 1 0 -5 -27 -35 -60 -67 -33 -33 -60 -61 -60 -64 0 -3 10 -11 21 -19 19 -11
21 -11 16 3 -5 13 1 16 27 16 33 0 62 20 49 33 -10 10 12 8 44 -4 15 -5 51
-35 80 -65 28 -30 54 -50 57 -45 9 14 40 6 74 -19 16 -12 46 -27 68 -35 21 -8
32 -14 24 -15 -8 0 1 -10 20 -22 19 -12 38 -21 42 -20 4 1 4 -6 1 -15 -4 -11
-8 -13 -11 -5 -2 7 -10 12 -18 12 -9 0 -6 -11 12 -37 14 -21 23 -45 21 -55 -9
-32 1 -19 36 51 28 55 35 81 35 123 -2 99 -67 187 -167 225 l-44 17 -31 -35
c-17 -19 -41 -47 -54 -64 -13 -17 -19 -21 -13 -9 6 12 26 42 45 68 l35 45 -37
6 c-69 10 -157 27 -164 31 -14 9 -8 52 7 58 8 3 15 12 15 21 0 8 33 36 73 63
45 30 73 55 75 68 2 16 21 28 74 49 62 24 69 30 54 40 -17 13 -13 15 94 57 20
7 22 11 10 18 -8 6 -28 10 -44 10 -49 0 -18 16 89 46 55 15 116 35 135 45 38
18 77 56 67 65 -3 3 -40 -3 -81 -13 -42 -11 -76 -16 -76 -12 0 8 68 59 180
136 42 29 97 74 123 102 72 77 61 92 -29 40 -30 -17 -54 -28 -54 -24 0 3 19
27 43 53 54 58 87 112 87 142 0 19 -4 21 -25 16 -14 -4 -25 -4 -25 -2 0 2 16
27 35 56 20 30 35 64 35 81 0 29 -13 38 -25 19 -9 -14 -25 -12 -25 3 0 13 -41
58 -51 56 -2 -1 -15 -7 -29 -15z m-3 -30 c-3 -3 -12 -4 -19 -1 -8 3 -5 6 6 6
11 1 17 -2 13 -5z m117 -48 c-6 -16 -24 -23 -24 -8 0 10 22 33 27 28 2 -2 1
-11 -3 -20z m-107 8 c-3 -3 -12 -4 -19 -1 -8 3 -5 6 6 6 11 1 17 -2 13 -5z m3
-130 c0 -14 -7 -32 -15 -40 -13 -14 -15 -12 -15 14 0 38 9 64 21 56 5 -3 9
-16 9 -30z m78 -39 c-8 -17 -15 -22 -21 -16 -7 7 -6 15 3 26 20 24 31 18 18
-10z m-324 -55 c20 -22 36 -44 36 -49 0 -5 3 -18 7 -28 12 -32 -26 6 -47 48
-11 20 -27 44 -35 53 -9 9 -12 16 -7 16 5 0 26 -18 46 -40z m206 -26 c0 -31
-2 -34 -20 -24 -10 6 -17 17 -15 25 3 8 7 22 10 31 8 26 25 5 25 -32z m-236 1
c17 -26 12 -32 -13 -16 -16 10 -24 41 -11 41 4 0 15 -11 24 -25z m346 -69 c0
-3 -15 -14 -32 -26 l-33 -22 28 26 c27 25 37 31 37 22z m-318 -74 c-13 -4 -97
41 -107 58 -4 6 22 -4 56 -22 35 -17 58 -33 51 -36z m41 -13 c-22 -7 -31 -14
-27 -24 4 -9 0 -15 -10 -15 -9 0 -16 6 -16 13 0 16 36 36 65 35 12 0 7 -4 -12
-9z m67 -40 c0 -26 -61 -69 -99 -69 -27 0 -121 43 -121 55 0 7 60 -17 66 -26
3 -5 22 -9 43 -9 50 0 95 33 88 67 -3 19 -2 21 9 12 8 -6 14 -20 14 -30z
m-122 -24 c-7 -7 -58 16 -58 26 0 4 6 9 13 12 13 5 54 -29 45 -38z m-183 -24
c-7 -13 22 -41 43 -41 10 0 27 7 38 14 21 15 64 11 64 -5 0 -5 -13 -35 -29
-67 -22 -44 -39 -62 -72 -80 -24 -13 -36 -17 -27 -9 10 8 15 16 13 19 -3 3 4
13 15 23 11 10 20 26 20 36 0 16 -3 17 -31 5 -57 -24 -192 -138 -181 -153 4
-4 3 -5 -2 -1 -5 4 -15 3 -22 -3 -10 -8 -11 -5 -1 20 8 21 14 27 20 18 6 -8 7
-4 4 11 -3 14 0 25 8 28 7 3 21 21 31 39 18 34 18 35 0 48 -13 10 -16 20 -12
35 4 12 12 22 17 22 5 0 9 9 9 19 0 20 17 27 73 30 16 0 26 -3 22 -8z m69 -12
c-6 -11 -31 -12 -37 -1 -3 4 6 8 19 8 13 1 21 -2 18 -7z m231 -98 c-38 -24
-75 -35 -75 -23 0 20 38 38 85 41 16 0 14 -3 -10 -18z m-275 -25 c0 -2 -8 -10
-17 -17 -16 -13 -17 -12 -4 4 13 16 21 21 21 13z m45 -116 c4 -6 -6 -10 -22
-9 -25 0 -26 1 -8 9 11 5 21 9 22 9 1 1 5 -3 8 -9z m-105 -80 c-20 -13 -43
-13 -35 0 3 6 16 10 28 10 18 0 19 -2 7 -10z m-120 -80 c0 -12 -30 -33 -36
-27 -11 10 3 34 20 34 9 0 16 -4 16 -7z m20 -253 c0 -2 -18 -28 -40 -57 -50
-67 -53 -58 -4 10 32 44 44 57 44 47z m219 -241 c-18 -25 -34 -44 -37 -42 -2
3 11 25 29 50 18 25 34 44 37 42 2 -3 -11 -25 -29 -50z"/>
<path d="M1645 5199 c-4 -6 -4 -13 -1 -16 3 -3 1 -12 -5 -20 -7 -8 -8 -13 -1
-13 5 0 15 14 21 30 9 28 0 42 -14 19z"/>
<path d="M5785 4910 c-3 -5 -2 -10 4 -10 5 0 13 5 16 10 3 6 2 10 -4 10 -5 0
-13 -4 -16 -10z"/>
<path d="M5545 4730 c-3 -5 -2 -10 4 -10 5 0 13 5 16 10 3 6 2 10 -4 10 -5 0
-13 -4 -16 -10z"/>
<path d="M5865 4595 l-20 -15 20 6 c18 5 17 3 -4 -15 -30 -27 -24 -36 7 -10
13 10 22 26 20 34 -3 15 -5 15 -23 0z"/>
<path d="M5544 4511 l-32 -17 49 -28 c34 -19 54 -24 65 -18 14 8 14 10 0 25
-15 15 -15 17 1 26 16 9 16 12 3 21 -22 14 -51 11 -86 -9z"/>
<path d="M1557 4503 c-4 -3 -7 -13 -7 -22 1 -13 3 -13 11 2 11 19 8 33 -4 20z"/>
</g>
</svg>
